%TF.GenerationSoftware,KiCad,Pcbnew,8.0.4*%
%TF.CreationDate,2024-12-05T15:49:58-05:00*%
%TF.ProjectId,CVTPCB,43565450-4342-42e6-9b69-6361645f7063,rev?*%
%TF.SameCoordinates,Original*%
%TF.FileFunction,Copper,L1,Top*%
%TF.FilePolarity,Positive*%
%FSLAX46Y46*%
G04 Gerber Fmt 4.6, Leading zero omitted, Abs format (unit mm)*
G04 Created by KiCad (PCBNEW 8.0.4) date 2024-12-05 15:49:58*
%MOMM*%
%LPD*%
G01*
G04 APERTURE LIST*
%TA.AperFunction,ComponentPad*%
%ADD10C,2.400000*%
%TD*%
%TA.AperFunction,ComponentPad*%
%ADD11O,2.400000X2.400000*%
%TD*%
%TA.AperFunction,ComponentPad*%
%ADD12C,1.600000*%
%TD*%
%TA.AperFunction,ComponentPad*%
%ADD13O,1.600000X1.600000*%
%TD*%
%TA.AperFunction,ComponentPad*%
%ADD14R,1.700000X1.700000*%
%TD*%
%TA.AperFunction,ComponentPad*%
%ADD15O,1.700000X1.700000*%
%TD*%
%TA.AperFunction,ComponentPad*%
%ADD16O,1.750000X3.000000*%
%TD*%
%TA.AperFunction,SMDPad,CuDef*%
%ADD17R,1.750000X3.500000*%
%TD*%
%TA.AperFunction,ComponentPad*%
%ADD18R,3.000000X1.700000*%
%TD*%
%TA.AperFunction,ComponentPad*%
%ADD19R,1.500000X1.500000*%
%TD*%
%TA.AperFunction,SMDPad,CuDef*%
%ADD20R,4.500000X3.000000*%
%TD*%
%TA.AperFunction,ComponentPad*%
%ADD21C,1.260000*%
%TD*%
%TA.AperFunction,ViaPad*%
%ADD22C,1.000000*%
%TD*%
%TA.AperFunction,ViaPad*%
%ADD23C,0.600000*%
%TD*%
%TA.AperFunction,Conductor*%
%ADD24C,0.500000*%
%TD*%
%TA.AperFunction,Conductor*%
%ADD25C,0.200000*%
%TD*%
G04 APERTURE END LIST*
D10*
%TO.P,R4,1*%
%TO.N,Net-(J3-Pin_4)*%
X146500000Y-69850000D03*
D11*
%TO.P,R4,2*%
%TO.N,GND*%
X146500000Y-57150000D03*
%TD*%
D12*
%TO.P,R3,1*%
%TO.N,Net-(SW1-A)*%
X152000000Y-68580000D03*
D13*
%TO.P,R3,2*%
%TO.N,GND*%
X152000000Y-58420000D03*
%TD*%
D14*
%TO.P,J4,1,Pin_1*%
%TO.N,+5V*%
X150000000Y-113578500D03*
D15*
%TO.P,J4,2,Pin_2*%
%TO.N,GND*%
X152540000Y-113578500D03*
D14*
%TO.P,J4,3,Pin_3*%
%TO.N,Net-(J4-Pin_3)*%
X150000000Y-131612500D03*
D15*
%TO.P,J4,4,Pin_4*%
%TO.N,GND*%
X152540000Y-131612500D03*
%TD*%
D16*
%TO.P,U4,1,Vcc*%
%TO.N,+3.3V*%
X126260000Y-130500000D03*
%TO.P,U4,2,GND(Logic)*%
%TO.N,GND*%
X128800000Y-130500000D03*
%TO.P,U4,3,RX*%
%TO.N,Net-(U3-D26)*%
X131340000Y-130500000D03*
%TO.P,U4,4,TX*%
%TO.N,Net-(U3-D25)*%
X133880000Y-130500000D03*
%TO.P,U4,5,SLNT*%
%TO.N,unconnected-(U4-SLNT-Pad5)*%
X136420000Y-130500000D03*
%TO.P,U4,6,CANH*%
%TO.N,Net-(J7-Pin_3)*%
X138960000Y-130500000D03*
%TO.P,U4,7,CANL*%
%TO.N,Net-(J7-Pin_4)*%
X141500000Y-130500000D03*
%TD*%
D17*
%TO.P,J7,1,Pin_1*%
%TO.N,Net-(J4-Pin_3)*%
X120500000Y-124500000D03*
%TO.P,J7,2,Pin_2*%
%TO.N,GND*%
X117960000Y-124500000D03*
%TO.P,J7,3,Pin_3*%
%TO.N,Net-(J7-Pin_3)*%
X115420000Y-124500000D03*
%TO.P,J7,4,Pin_4*%
%TO.N,Net-(J7-Pin_4)*%
X112880000Y-124500000D03*
%TD*%
D18*
%TO.P,U3,1,3V3*%
%TO.N,+3.3V*%
X114600000Y-64440000D03*
%TO.P,U3,2,GND*%
%TO.N,GND*%
X114600000Y-66980000D03*
%TO.P,U3,3,D15*%
%TO.N,unconnected-(U3-D15-Pad3)*%
X114600000Y-69520000D03*
%TO.P,U3,4,D2*%
%TO.N,unconnected-(U3-D2-Pad4)*%
X114600000Y-72060000D03*
%TO.P,U3,5,D4*%
%TO.N,Net-(SW1-C)*%
X114600000Y-74600000D03*
%TO.P,U3,6,RX2*%
%TO.N,unconnected-(U3-RX2-Pad6)*%
X114600000Y-77140000D03*
%TO.P,U3,7,TX2*%
%TO.N,unconnected-(U3-TX2-Pad7)*%
X114600000Y-79680000D03*
%TO.P,U3,8,D5*%
%TO.N,unconnected-(U3-D5-Pad8)*%
X114600000Y-82220000D03*
%TO.P,U3,9,D18*%
%TO.N,unconnected-(U3-D18-Pad9)*%
X114600000Y-84760000D03*
%TO.P,U3,10,D19*%
%TO.N,unconnected-(U3-D19-Pad10)*%
X114600000Y-87300000D03*
%TO.P,U3,11,D21*%
%TO.N,unconnected-(U3-D21-Pad11)*%
X114600000Y-89840000D03*
%TO.P,U3,12,RX0*%
%TO.N,unconnected-(U3-RX0-Pad12)*%
X114600000Y-92380000D03*
%TO.P,U3,13,TX0*%
%TO.N,unconnected-(U3-TX0-Pad13)*%
X114600000Y-94920000D03*
%TO.P,U3,14,D22*%
%TO.N,unconnected-(U3-D22-Pad14)*%
X114600000Y-97460000D03*
%TO.P,U3,15,D23*%
%TO.N,unconnected-(U3-D23-Pad15)*%
X114600000Y-100000000D03*
%TO.P,U3,16,EN*%
%TO.N,unconnected-(U3-EN-Pad16)*%
X141000000Y-100000000D03*
%TO.P,U3,17,UP*%
%TO.N,unconnected-(U3-UP-Pad17)*%
X141000000Y-97460000D03*
%TO.P,U3,18,UN*%
%TO.N,unconnected-(U3-UN-Pad18)*%
X141000000Y-94920000D03*
%TO.P,U3,19,D34*%
%TO.N,Net-(SW2-A)*%
X141000000Y-92380000D03*
%TO.P,U3,20,D35*%
%TO.N,Net-(J1-Pin_3)*%
X141000000Y-89840000D03*
%TO.P,U3,21,D32*%
%TO.N,unconnected-(U3-D32-Pad21)*%
X141000000Y-87300000D03*
%TO.P,U3,22,D33*%
%TO.N,Net-(SW2-C)*%
X141000000Y-84760000D03*
%TO.P,U3,23,D25*%
%TO.N,Net-(U3-D25)*%
X141000000Y-82220000D03*
%TO.P,U3,24,D26*%
%TO.N,Net-(U3-D26)*%
X141000000Y-79680000D03*
%TO.P,U3,25,D27*%
%TO.N,Net-(J3-Pin_3)*%
X141000000Y-77140000D03*
%TO.P,U3,26,D14*%
%TO.N,unconnected-(U3-D14-Pad26)*%
X141000000Y-74600000D03*
%TO.P,U3,27,D12*%
%TO.N,unconnected-(U3-D12-Pad27)*%
X141000000Y-72060000D03*
%TO.P,U3,28,D13*%
%TO.N,Net-(SW1-A)*%
X141000000Y-69520000D03*
%TO.P,U3,29,GND*%
%TO.N,GND*%
X141000000Y-66980000D03*
%TO.P,U3,30,VIN*%
%TO.N,+5V*%
X141000000Y-64440000D03*
%TD*%
D19*
%TO.P,SW1,1,B*%
%TO.N,Net-(J3-Pin_5)*%
X155500000Y-77460000D03*
D12*
%TO.P,SW1,2,A*%
%TO.N,Net-(SW1-A)*%
X155500000Y-74920000D03*
%TO.P,SW1,3,C*%
%TO.N,Net-(SW1-C)*%
X155500000Y-80000000D03*
%TD*%
D20*
%TO.P,J3,1,Pin_1*%
%TO.N,+5V*%
X162000000Y-71000000D03*
%TO.P,J3,2,Pin_2*%
%TO.N,GND*%
X162000000Y-75000000D03*
%TO.P,J3,3,Pin_3*%
%TO.N,Net-(J3-Pin_3)*%
X162000000Y-79000000D03*
%TO.P,J3,4,Pin_4*%
%TO.N,Net-(J3-Pin_4)*%
X162000000Y-83000000D03*
%TO.P,J3,5,Pin_5*%
%TO.N,Net-(J3-Pin_5)*%
X162000000Y-87000000D03*
%TD*%
D21*
%TO.P,PrimPot1,1,1*%
%TO.N,Net-(SW2-C)*%
X146200000Y-107300000D03*
%TO.P,PrimPot1,2,2*%
%TO.N,GND*%
X147996051Y-105503949D03*
%TO.P,PrimPot1,3,3*%
%TO.N,unconnected-(PrimPot1-Pad3)*%
X146200000Y-103707898D03*
%TD*%
%TO.P,SecPot1,1,1*%
%TO.N,Net-(SW1-C)*%
X146200000Y-79300000D03*
%TO.P,SecPot1,2,2*%
%TO.N,GND*%
X147996051Y-77503949D03*
%TO.P,SecPot1,3,3*%
%TO.N,unconnected-(SecPot1-Pad3)*%
X146200000Y-75707898D03*
%TD*%
D12*
%TO.P,R1,1*%
%TO.N,Net-(SW2-A)*%
X151000000Y-98080000D03*
D13*
%TO.P,R1,2*%
%TO.N,GND*%
X151000000Y-87920000D03*
%TD*%
D10*
%TO.P,R2,1*%
%TO.N,Net-(J1-Pin_4)*%
X146500000Y-98850000D03*
D11*
%TO.P,R2,2*%
%TO.N,GND*%
X146500000Y-86150000D03*
%TD*%
D20*
%TO.P,J1,1,Pin_1*%
%TO.N,+5V*%
X162000000Y-96100000D03*
%TO.P,J1,2,Pin_2*%
%TO.N,GND*%
X162000000Y-100100000D03*
%TO.P,J1,3,Pin_3*%
%TO.N,Net-(J1-Pin_3)*%
X162000000Y-104100000D03*
%TO.P,J1,4,Pin_4*%
%TO.N,Net-(J1-Pin_4)*%
X162000000Y-108100000D03*
%TO.P,J1,5,Pin_5*%
%TO.N,Net-(J1-Pin_5)*%
X162000000Y-112100000D03*
%TD*%
D19*
%TO.P,SW2,1,B*%
%TO.N,Net-(J1-Pin_5)*%
X155500000Y-102040000D03*
D12*
%TO.P,SW2,2,A*%
%TO.N,Net-(SW2-A)*%
X155500000Y-99500000D03*
%TO.P,SW2,3,C*%
%TO.N,Net-(SW2-C)*%
X155500000Y-104580000D03*
%TD*%
D22*
%TO.N,GND*%
X118000000Y-128000000D03*
X159000000Y-100000000D03*
X159000000Y-75000000D03*
%TO.N,Net-(J4-Pin_3)*%
X122500000Y-124500000D03*
D23*
%TO.N,Net-(J1-Pin_5)*%
X158000000Y-111000000D03*
%TD*%
D24*
%TO.N,GND*%
X162000000Y-75000000D02*
X159000000Y-75000000D01*
D25*
X117960000Y-127960000D02*
X118000000Y-128000000D01*
D24*
X162000000Y-100100000D02*
X159100000Y-100100000D01*
D25*
X159100000Y-100100000D02*
X159000000Y-100000000D01*
D24*
X117960000Y-124500000D02*
X117960000Y-127960000D01*
%TO.N,+5V*%
X162000000Y-71000000D02*
X162000000Y-67500000D01*
X143000000Y-54500000D02*
X140500000Y-57000000D01*
X152500000Y-118000000D02*
X150000000Y-115500000D01*
X156000000Y-61500000D02*
X156000000Y-57500000D01*
X162000000Y-96100000D02*
X164100000Y-96100000D01*
X168000000Y-76250000D02*
X168000000Y-92500000D01*
X167000000Y-115500000D02*
X164500000Y-118000000D01*
X162000000Y-67500000D02*
X156000000Y-61500000D01*
X150000000Y-115500000D02*
X150000000Y-113578500D01*
X140500000Y-57000000D02*
X140500000Y-64440000D01*
X168000000Y-92500000D02*
X164400000Y-96100000D01*
X164100000Y-96100000D02*
X167000000Y-99000000D01*
X153000000Y-54500000D02*
X143000000Y-54500000D01*
X167000000Y-99000000D02*
X167000000Y-115500000D01*
X162750000Y-71000000D02*
X168000000Y-76250000D01*
X162000000Y-71000000D02*
X162750000Y-71000000D01*
X156000000Y-57500000D02*
X153000000Y-54500000D01*
X164500000Y-118000000D02*
X152500000Y-118000000D01*
X164400000Y-96100000D02*
X162000000Y-96100000D01*
D25*
%TO.N,+3.3V*%
X126260000Y-114260000D02*
X115500000Y-103500000D01*
X111000000Y-67630000D02*
X114190000Y-64440000D01*
X112500000Y-103500000D02*
X111000000Y-102000000D01*
X111000000Y-102000000D02*
X111000000Y-67630000D01*
X115500000Y-103500000D02*
X112500000Y-103500000D01*
X126260000Y-130500000D02*
X126260000Y-114260000D01*
X114190000Y-64440000D02*
X115100000Y-64440000D01*
%TO.N,Net-(SW2-A)*%
X155000000Y-99500000D02*
X153580000Y-98080000D01*
X153580000Y-98080000D02*
X151000000Y-98080000D01*
X145300000Y-92380000D02*
X140500000Y-92380000D01*
X155500000Y-99500000D02*
X155000000Y-99500000D01*
X151000000Y-98080000D02*
X145300000Y-92380000D01*
%TO.N,Net-(SW1-A)*%
X152000000Y-68580000D02*
X149920000Y-66500000D01*
X145500000Y-66500000D02*
X142480000Y-69520000D01*
X149920000Y-66500000D02*
X145500000Y-66500000D01*
X142480000Y-69520000D02*
X140500000Y-69520000D01*
%TO.N,Net-(J3-Pin_5)*%
X153500000Y-79000000D02*
X153500000Y-82500000D01*
X158000000Y-87000000D02*
X162000000Y-87000000D01*
X155500000Y-77460000D02*
X155040000Y-77460000D01*
X153500000Y-82500000D02*
X158000000Y-87000000D01*
X155040000Y-77460000D02*
X153500000Y-79000000D01*
D24*
%TO.N,Net-(J3-Pin_4)*%
X147650000Y-71000000D02*
X156500000Y-71000000D01*
X146500000Y-69850000D02*
X147650000Y-71000000D01*
X156500000Y-71000000D02*
X157757180Y-72257180D01*
X157757180Y-72257180D02*
X157757180Y-79507180D01*
X161250000Y-83000000D02*
X162000000Y-83000000D01*
X157757180Y-79507180D02*
X161250000Y-83000000D01*
D25*
%TO.N,Net-(J3-Pin_3)*%
X162000000Y-79000000D02*
X164000000Y-79000000D01*
X147500000Y-83500000D02*
X143500000Y-79500000D01*
X143500000Y-78000000D02*
X142640000Y-77140000D01*
X159500000Y-91000000D02*
X152000000Y-83500000D01*
X166500000Y-89000000D02*
X164500000Y-91000000D01*
X164000000Y-79000000D02*
X166500000Y-81500000D01*
X143500000Y-79500000D02*
X143500000Y-78000000D01*
X142640000Y-77140000D02*
X140500000Y-77140000D01*
X164500000Y-91000000D02*
X159500000Y-91000000D01*
X152000000Y-83500000D02*
X147500000Y-83500000D01*
X166500000Y-81500000D02*
X166500000Y-89000000D01*
D24*
%TO.N,Net-(J4-Pin_3)*%
X120500000Y-124500000D02*
X122500000Y-124500000D01*
D25*
%TO.N,Net-(J7-Pin_3)*%
X138960000Y-132040000D02*
X138960000Y-130500000D01*
X115420000Y-124500000D02*
X115420000Y-130920000D01*
X137500000Y-133500000D02*
X138960000Y-132040000D01*
X118000000Y-133500000D02*
X137500000Y-133500000D01*
X115420000Y-130920000D02*
X118000000Y-133500000D01*
%TO.N,Net-(J7-Pin_4)*%
X138500000Y-134500000D02*
X141500000Y-131500000D01*
X116500000Y-134500000D02*
X138500000Y-134500000D01*
X112880000Y-124500000D02*
X112880000Y-130880000D01*
X112880000Y-130880000D02*
X116500000Y-134500000D01*
X141500000Y-131500000D02*
X141500000Y-130500000D01*
%TO.N,Net-(U3-D25)*%
X133880000Y-88840000D02*
X140500000Y-82220000D01*
X133880000Y-130500000D02*
X133880000Y-88840000D01*
%TO.N,Net-(U3-D26)*%
X131340000Y-130500000D02*
X131340000Y-88840000D01*
X131340000Y-88840000D02*
X140500000Y-79680000D01*
%TO.N,Net-(J1-Pin_3)*%
X159000000Y-104000000D02*
X157500000Y-102500000D01*
X161250000Y-104100000D02*
X161150000Y-104000000D01*
X148840000Y-89840000D02*
X140500000Y-89840000D01*
X155500000Y-91000000D02*
X150000000Y-91000000D01*
X157500000Y-102500000D02*
X157500000Y-93000000D01*
X161150000Y-104000000D02*
X159000000Y-104000000D01*
X150000000Y-91000000D02*
X148840000Y-89840000D01*
X157500000Y-93000000D02*
X155500000Y-91000000D01*
X162000000Y-104100000D02*
X161250000Y-104100000D01*
D24*
%TO.N,Net-(J1-Pin_4)*%
X155100000Y-108100000D02*
X146500000Y-99500000D01*
X155500000Y-108100000D02*
X155100000Y-108100000D01*
D25*
X146500000Y-98850000D02*
X146500000Y-99500000D01*
D24*
X155500000Y-108100000D02*
X162000000Y-108100000D01*
D25*
X155500000Y-108100000D02*
X154900000Y-108100000D01*
%TO.N,Net-(J1-Pin_5)*%
X159100000Y-112100000D02*
X158000000Y-111000000D01*
X162000000Y-112100000D02*
X159100000Y-112100000D01*
%TD*%
%TA.AperFunction,NonConductor*%
G36*
X158667671Y-75944708D02*
G01*
X158803868Y-75986024D01*
X159000000Y-76005341D01*
X159113347Y-75994177D01*
X159181992Y-76007196D01*
X159232702Y-76055260D01*
X159249500Y-76117580D01*
X159249500Y-76547870D01*
X159249501Y-76547876D01*
X159255908Y-76607483D01*
X159306202Y-76742328D01*
X159306206Y-76742335D01*
X159392452Y-76857544D01*
X159392453Y-76857544D01*
X159392454Y-76857546D01*
X159421615Y-76879376D01*
X159450145Y-76900734D01*
X159492015Y-76956668D01*
X159496999Y-77026360D01*
X159463513Y-77087683D01*
X159450145Y-77099266D01*
X159392452Y-77142455D01*
X159306206Y-77257664D01*
X159306202Y-77257671D01*
X159255908Y-77392517D01*
X159249501Y-77452116D01*
X159249501Y-77452123D01*
X159249500Y-77452135D01*
X159249500Y-79638770D01*
X159229815Y-79705809D01*
X159177011Y-79751564D01*
X159107853Y-79761508D01*
X159044297Y-79732483D01*
X159037819Y-79726451D01*
X158543999Y-79232631D01*
X158510514Y-79171308D01*
X158507680Y-79144950D01*
X158507680Y-76063370D01*
X158527365Y-75996331D01*
X158580169Y-75950576D01*
X158649327Y-75940632D01*
X158667671Y-75944708D01*
G37*
%TD.AperFunction*%
%TA.AperFunction,NonConductor*%
G36*
X164955702Y-74267515D02*
G01*
X164962180Y-74273547D01*
X167213181Y-76524548D01*
X167246666Y-76585871D01*
X167249500Y-76612229D01*
X167249500Y-81134397D01*
X167229815Y-81201436D01*
X167177011Y-81247191D01*
X167107853Y-81257135D01*
X167044297Y-81228110D01*
X167018113Y-81196397D01*
X166980522Y-81131287D01*
X166980521Y-81131286D01*
X166980520Y-81131284D01*
X166868716Y-81019480D01*
X166868715Y-81019479D01*
X166864385Y-81015149D01*
X166864374Y-81015139D01*
X164786818Y-78937583D01*
X164753333Y-78876260D01*
X164750499Y-78849902D01*
X164750499Y-77452129D01*
X164750498Y-77452123D01*
X164750497Y-77452116D01*
X164744091Y-77392517D01*
X164693796Y-77257669D01*
X164693795Y-77257668D01*
X164693793Y-77257664D01*
X164607547Y-77142456D01*
X164607548Y-77142456D01*
X164607546Y-77142454D01*
X164549854Y-77099265D01*
X164507984Y-77043333D01*
X164503000Y-76973641D01*
X164536485Y-76912318D01*
X164549854Y-76900734D01*
X164607546Y-76857546D01*
X164693796Y-76742331D01*
X164744091Y-76607483D01*
X164750500Y-76547873D01*
X164750499Y-74361227D01*
X164770184Y-74294189D01*
X164822987Y-74248434D01*
X164892146Y-74238490D01*
X164955702Y-74267515D01*
G37*
%TD.AperFunction*%
%TA.AperFunction,NonConductor*%
G36*
X156931492Y-75149627D02*
G01*
X156985370Y-75194112D01*
X157006645Y-75260664D01*
X157006680Y-75263615D01*
X157006680Y-79581098D01*
X157006680Y-79581100D01*
X157006679Y-79581100D01*
X157035520Y-79726087D01*
X157035523Y-79726097D01*
X157092094Y-79862671D01*
X157092096Y-79862675D01*
X157107758Y-79886115D01*
X157115485Y-79897680D01*
X157174229Y-79985598D01*
X157174232Y-79985601D01*
X159213181Y-82024548D01*
X159246666Y-82085871D01*
X159249500Y-82112229D01*
X159249500Y-84547870D01*
X159249501Y-84547876D01*
X159255908Y-84607483D01*
X159306202Y-84742328D01*
X159306206Y-84742335D01*
X159392452Y-84857544D01*
X159392453Y-84857544D01*
X159392454Y-84857546D01*
X159407883Y-84869096D01*
X159450145Y-84900734D01*
X159492015Y-84956668D01*
X159496999Y-85026360D01*
X159463513Y-85087683D01*
X159450145Y-85099266D01*
X159392452Y-85142455D01*
X159306206Y-85257664D01*
X159306202Y-85257671D01*
X159255908Y-85392517D01*
X159254017Y-85410112D01*
X159249501Y-85452123D01*
X159249500Y-85452135D01*
X159249500Y-86275500D01*
X159229815Y-86342539D01*
X159177011Y-86388294D01*
X159125500Y-86399500D01*
X158300097Y-86399500D01*
X158233058Y-86379815D01*
X158212416Y-86363181D01*
X154136819Y-82287584D01*
X154103334Y-82226261D01*
X154100500Y-82199903D01*
X154100500Y-80635335D01*
X154120185Y-80568296D01*
X154172989Y-80522541D01*
X154242147Y-80512597D01*
X154305703Y-80541622D01*
X154336882Y-80582930D01*
X154369431Y-80652732D01*
X154369432Y-80652734D01*
X154499954Y-80839141D01*
X154660858Y-81000045D01*
X154660861Y-81000047D01*
X154847266Y-81130568D01*
X155053504Y-81226739D01*
X155053509Y-81226740D01*
X155053511Y-81226741D01*
X155106415Y-81240916D01*
X155273308Y-81285635D01*
X155435230Y-81299801D01*
X155499998Y-81305468D01*
X155500000Y-81305468D01*
X155500002Y-81305468D01*
X155556673Y-81300509D01*
X155726692Y-81285635D01*
X155946496Y-81226739D01*
X156152734Y-81130568D01*
X156339139Y-81000047D01*
X156500047Y-80839139D01*
X156630568Y-80652734D01*
X156726739Y-80446496D01*
X156785635Y-80226692D01*
X156805468Y-80000000D01*
X156785635Y-79773308D01*
X156726739Y-79553504D01*
X156630568Y-79347266D01*
X156500047Y-79160861D01*
X156500045Y-79160858D01*
X156339141Y-78999954D01*
X156245978Y-78934721D01*
X156202353Y-78880144D01*
X156195159Y-78810646D01*
X156226682Y-78748291D01*
X156286911Y-78712877D01*
X156303842Y-78709857D01*
X156357483Y-78704091D01*
X156492331Y-78653796D01*
X156607546Y-78567546D01*
X156693796Y-78452331D01*
X156744091Y-78317483D01*
X156750500Y-78257873D01*
X156750499Y-76662128D01*
X156744091Y-76602517D01*
X156743115Y-76599901D01*
X156693797Y-76467671D01*
X156693793Y-76467664D01*
X156607547Y-76352455D01*
X156607544Y-76352452D01*
X156492335Y-76266206D01*
X156492328Y-76266202D01*
X156357482Y-76215908D01*
X156357483Y-76215908D01*
X156303846Y-76210142D01*
X156239295Y-76183404D01*
X156199446Y-76126012D01*
X156196953Y-76056187D01*
X156232605Y-75996098D01*
X156245972Y-75985282D01*
X156339139Y-75920047D01*
X156500047Y-75759139D01*
X156630568Y-75572734D01*
X156726739Y-75366496D01*
X156762905Y-75231522D01*
X156799270Y-75171861D01*
X156862117Y-75141332D01*
X156931492Y-75149627D01*
G37*
%TD.AperFunction*%
%TA.AperFunction,NonConductor*%
G36*
X146133187Y-55270185D02*
G01*
X146178942Y-55322989D01*
X146188886Y-55392147D01*
X146159861Y-55455703D01*
X146102698Y-55492991D01*
X145876992Y-55562612D01*
X145647373Y-55673190D01*
X145647372Y-55673191D01*
X145436782Y-55816768D01*
X145249952Y-55990121D01*
X145249950Y-55990123D01*
X145091041Y-56189388D01*
X144963608Y-56410109D01*
X144870492Y-56647362D01*
X144870490Y-56647369D01*
X144813777Y-56895845D01*
X144794732Y-57149995D01*
X144794732Y-57150004D01*
X144813777Y-57404154D01*
X144854109Y-57580861D01*
X144870492Y-57652637D01*
X144963607Y-57889888D01*
X145091041Y-58110612D01*
X145249950Y-58309877D01*
X145436783Y-58483232D01*
X145647366Y-58626805D01*
X145647371Y-58626807D01*
X145647372Y-58626808D01*
X145647373Y-58626809D01*
X145769328Y-58685538D01*
X145876992Y-58737387D01*
X145876993Y-58737387D01*
X145876996Y-58737389D01*
X146120542Y-58812513D01*
X146372565Y-58850500D01*
X146627435Y-58850500D01*
X146879458Y-58812513D01*
X147123004Y-58737389D01*
X147336005Y-58634813D01*
X147352626Y-58626809D01*
X147352626Y-58626808D01*
X147352634Y-58626805D01*
X147563217Y-58483232D01*
X147631367Y-58419998D01*
X150694532Y-58419998D01*
X150694532Y-58420001D01*
X150714364Y-58646686D01*
X150714366Y-58646697D01*
X150773258Y-58866488D01*
X150773261Y-58866497D01*
X150869431Y-59072732D01*
X150869432Y-59072734D01*
X150999954Y-59259141D01*
X151160858Y-59420045D01*
X151160861Y-59420047D01*
X151347266Y-59550568D01*
X151553504Y-59646739D01*
X151773308Y-59705635D01*
X151935230Y-59719801D01*
X151999998Y-59725468D01*
X152000000Y-59725468D01*
X152000002Y-59725468D01*
X152056673Y-59720509D01*
X152226692Y-59705635D01*
X152446496Y-59646739D01*
X152652734Y-59550568D01*
X152839139Y-59420047D01*
X153000047Y-59259139D01*
X153130568Y-59072734D01*
X153226739Y-58866496D01*
X153285635Y-58646692D01*
X153305468Y-58420000D01*
X153285635Y-58193308D01*
X153226739Y-57973504D01*
X153130568Y-57767266D01*
X153000047Y-57580861D01*
X153000045Y-57580858D01*
X152839141Y-57419954D01*
X152652734Y-57289432D01*
X152652732Y-57289431D01*
X152446497Y-57193261D01*
X152446488Y-57193258D01*
X152226697Y-57134366D01*
X152226693Y-57134365D01*
X152226692Y-57134365D01*
X152226691Y-57134364D01*
X152226686Y-57134364D01*
X152000002Y-57114532D01*
X151999998Y-57114532D01*
X151773313Y-57134364D01*
X151773302Y-57134366D01*
X151553511Y-57193258D01*
X151553502Y-57193261D01*
X151347267Y-57289431D01*
X151347265Y-57289432D01*
X151160858Y-57419954D01*
X150999954Y-57580858D01*
X150869432Y-57767265D01*
X150869431Y-57767267D01*
X150773261Y-57973502D01*
X150773258Y-57973511D01*
X150714366Y-58193302D01*
X150714364Y-58193313D01*
X150694532Y-58419998D01*
X147631367Y-58419998D01*
X147750050Y-58309877D01*
X147908959Y-58110612D01*
X148036393Y-57889888D01*
X148129508Y-57652637D01*
X148186222Y-57404157D01*
X148202026Y-57193261D01*
X148205268Y-57150004D01*
X148205268Y-57149995D01*
X148186222Y-56895845D01*
X148179225Y-56865191D01*
X148129508Y-56647363D01*
X148036393Y-56410112D01*
X147908959Y-56189388D01*
X147750050Y-55990123D01*
X147563217Y-55816768D01*
X147352634Y-55673195D01*
X147352630Y-55673193D01*
X147352627Y-55673191D01*
X147352626Y-55673190D01*
X147123006Y-55562612D01*
X147123008Y-55562612D01*
X146897302Y-55492991D01*
X146839043Y-55454420D01*
X146810885Y-55390476D01*
X146821769Y-55321459D01*
X146868238Y-55269282D01*
X146933852Y-55250500D01*
X152637770Y-55250500D01*
X152704809Y-55270185D01*
X152725451Y-55286819D01*
X155213181Y-57774548D01*
X155246666Y-57835871D01*
X155249500Y-57862229D01*
X155249500Y-61573918D01*
X155249500Y-61573920D01*
X155249499Y-61573920D01*
X155278340Y-61718907D01*
X155278343Y-61718917D01*
X155334914Y-61855492D01*
X155367812Y-61904727D01*
X155367813Y-61904730D01*
X155417046Y-61978414D01*
X155417052Y-61978421D01*
X161213181Y-67774548D01*
X161246666Y-67835871D01*
X161249500Y-67862229D01*
X161249500Y-68875500D01*
X161229815Y-68942539D01*
X161177011Y-68988294D01*
X161125500Y-68999500D01*
X159702129Y-68999500D01*
X159702123Y-68999501D01*
X159642516Y-69005908D01*
X159507671Y-69056202D01*
X159507664Y-69056206D01*
X159392455Y-69142452D01*
X159392452Y-69142455D01*
X159306206Y-69257664D01*
X159306202Y-69257671D01*
X159255908Y-69392517D01*
X159249501Y-69452116D01*
X159249501Y-69452123D01*
X159249500Y-69452135D01*
X159249500Y-72547870D01*
X159249501Y-72547876D01*
X159255908Y-72607483D01*
X159306202Y-72742328D01*
X159306206Y-72742335D01*
X159392452Y-72857544D01*
X159392453Y-72857544D01*
X159392454Y-72857546D01*
X159421615Y-72879376D01*
X159450145Y-72900734D01*
X159492015Y-72956668D01*
X159496999Y-73026360D01*
X159463513Y-73087683D01*
X159450145Y-73099266D01*
X159392452Y-73142455D01*
X159306206Y-73257664D01*
X159306202Y-73257671D01*
X159255908Y-73392517D01*
X159249501Y-73452116D01*
X159249500Y-73452135D01*
X159249500Y-73882419D01*
X159229815Y-73949458D01*
X159177011Y-73995213D01*
X159113347Y-74005822D01*
X159000001Y-73994659D01*
X159000000Y-73994659D01*
X158803869Y-74013975D01*
X158667675Y-74055290D01*
X158597808Y-74055913D01*
X158538696Y-74018665D01*
X158509105Y-73955371D01*
X158507680Y-73936629D01*
X158507680Y-72183259D01*
X158478839Y-72038272D01*
X158478838Y-72038271D01*
X158478838Y-72038267D01*
X158422264Y-71901685D01*
X158389366Y-71852450D01*
X158389365Y-71852448D01*
X158340136Y-71778769D01*
X158340132Y-71778764D01*
X156978421Y-70417052D01*
X156978420Y-70417051D01*
X156882016Y-70352637D01*
X156882006Y-70352630D01*
X156855495Y-70334916D01*
X156855493Y-70334915D01*
X156855490Y-70334913D01*
X156718917Y-70278343D01*
X156718907Y-70278340D01*
X156573920Y-70249500D01*
X156573918Y-70249500D01*
X148308405Y-70249500D01*
X148241366Y-70229815D01*
X148195611Y-70177011D01*
X148185667Y-70107853D01*
X148185793Y-70107001D01*
X148186223Y-70104148D01*
X148205268Y-69850004D01*
X148205268Y-69849995D01*
X148186222Y-69595845D01*
X148182616Y-69580047D01*
X148129508Y-69347363D01*
X148036393Y-69110112D01*
X147908959Y-68889388D01*
X147750050Y-68690123D01*
X147563217Y-68516768D01*
X147352634Y-68373195D01*
X147352630Y-68373193D01*
X147352627Y-68373191D01*
X147352626Y-68373190D01*
X147123006Y-68262612D01*
X147123008Y-68262612D01*
X146879466Y-68187489D01*
X146879462Y-68187488D01*
X146879458Y-68187487D01*
X146758231Y-68169214D01*
X146627440Y-68149500D01*
X146627435Y-68149500D01*
X146372565Y-68149500D01*
X146372559Y-68149500D01*
X146215609Y-68173157D01*
X146120542Y-68187487D01*
X146120539Y-68187488D01*
X146120533Y-68187489D01*
X145876992Y-68262612D01*
X145647373Y-68373190D01*
X145647372Y-68373191D01*
X145436782Y-68516768D01*
X145249952Y-68690121D01*
X145249950Y-68690123D01*
X145091041Y-68889388D01*
X144963608Y-69110109D01*
X144870492Y-69347362D01*
X144870490Y-69347369D01*
X144813777Y-69595845D01*
X144794732Y-69849995D01*
X144794732Y-69850004D01*
X144813777Y-70104154D01*
X144866446Y-70334913D01*
X144870492Y-70352637D01*
X144963607Y-70589888D01*
X145091041Y-70810612D01*
X145249950Y-71009877D01*
X145436783Y-71183232D01*
X145647366Y-71326805D01*
X145647371Y-71326807D01*
X145647372Y-71326808D01*
X145647373Y-71326809D01*
X145769328Y-71385538D01*
X145876992Y-71437387D01*
X145876993Y-71437387D01*
X145876996Y-71437389D01*
X146120542Y-71512513D01*
X146372565Y-71550500D01*
X146627435Y-71550500D01*
X146879458Y-71512513D01*
X146977488Y-71482273D01*
X147047349Y-71481323D01*
X147101715Y-71513082D01*
X147139132Y-71550499D01*
X147171586Y-71582953D01*
X147171588Y-71582954D01*
X147294503Y-71665083D01*
X147294506Y-71665085D01*
X147351079Y-71688518D01*
X147351080Y-71688518D01*
X147431088Y-71721659D01*
X147547241Y-71744763D01*
X147566468Y-71748587D01*
X147576081Y-71750500D01*
X147576082Y-71750500D01*
X147576083Y-71750500D01*
X147723918Y-71750500D01*
X156137770Y-71750500D01*
X156204809Y-71770185D01*
X156225451Y-71786819D01*
X156970361Y-72531729D01*
X157003846Y-72593052D01*
X157006680Y-72619410D01*
X157006680Y-74576384D01*
X156986995Y-74643423D01*
X156934191Y-74689178D01*
X156865033Y-74699122D01*
X156801477Y-74670097D01*
X156763703Y-74611319D01*
X156762905Y-74608477D01*
X156726741Y-74473511D01*
X156726738Y-74473502D01*
X156643122Y-74294189D01*
X156630568Y-74267266D01*
X156500047Y-74080861D01*
X156500045Y-74080858D01*
X156339141Y-73919954D01*
X156152734Y-73789432D01*
X156152732Y-73789431D01*
X155946497Y-73693261D01*
X155946488Y-73693258D01*
X155726697Y-73634366D01*
X155726693Y-73634365D01*
X155726692Y-73634365D01*
X155726691Y-73634364D01*
X155726686Y-73634364D01*
X155500002Y-73614532D01*
X155499998Y-73614532D01*
X155273313Y-73634364D01*
X155273302Y-73634366D01*
X155053511Y-73693258D01*
X155053502Y-73693261D01*
X154847267Y-73789431D01*
X154847265Y-73789432D01*
X154660858Y-73919954D01*
X154499954Y-74080858D01*
X154369432Y-74267265D01*
X154369431Y-74267267D01*
X154273261Y-74473502D01*
X154273258Y-74473511D01*
X154214366Y-74693302D01*
X154214364Y-74693313D01*
X154194532Y-74919998D01*
X154194532Y-74920001D01*
X154214364Y-75146686D01*
X154214366Y-75146697D01*
X154273258Y-75366488D01*
X154273261Y-75366497D01*
X154369431Y-75572732D01*
X154369432Y-75572734D01*
X154499954Y-75759141D01*
X154660858Y-75920045D01*
X154754021Y-75985278D01*
X154797646Y-76039854D01*
X154804840Y-76109353D01*
X154773317Y-76171708D01*
X154713088Y-76207122D01*
X154696152Y-76210143D01*
X154642516Y-76215908D01*
X154507671Y-76266202D01*
X154507664Y-76266206D01*
X154392455Y-76352452D01*
X154392452Y-76352455D01*
X154306206Y-76467664D01*
X154306202Y-76467671D01*
X154255908Y-76602517D01*
X154249501Y-76662116D01*
X154249501Y-76662123D01*
X154249500Y-76662135D01*
X154249500Y-77349902D01*
X154229815Y-77416941D01*
X154213181Y-77437583D01*
X153019481Y-78631282D01*
X153019477Y-78631287D01*
X153006482Y-78653797D01*
X152997203Y-78669870D01*
X152940423Y-78768215D01*
X152899499Y-78920943D01*
X152899499Y-78920945D01*
X152899499Y-79089046D01*
X152899500Y-79089059D01*
X152899500Y-82413330D01*
X152899499Y-82413348D01*
X152899499Y-82579054D01*
X152899498Y-82579054D01*
X152899499Y-82579057D01*
X152940423Y-82731785D01*
X152968888Y-82781087D01*
X153019479Y-82868714D01*
X153019481Y-82868717D01*
X153138349Y-82987585D01*
X153138355Y-82987590D01*
X157515139Y-87364374D01*
X157515149Y-87364385D01*
X157519479Y-87368715D01*
X157519480Y-87368716D01*
X157631284Y-87480520D01*
X157718095Y-87530639D01*
X157718097Y-87530641D01*
X157756151Y-87552611D01*
X157768215Y-87559577D01*
X157920943Y-87600501D01*
X157920946Y-87600501D01*
X158086653Y-87600501D01*
X158086669Y-87600500D01*
X159125501Y-87600500D01*
X159192540Y-87620185D01*
X159238295Y-87672989D01*
X159249501Y-87724500D01*
X159249501Y-88547876D01*
X159255908Y-88607483D01*
X159306202Y-88742328D01*
X159306206Y-88742335D01*
X159392452Y-88857544D01*
X159392455Y-88857547D01*
X159507664Y-88943793D01*
X159507671Y-88943797D01*
X159642517Y-88994091D01*
X159642516Y-88994091D01*
X159649444Y-88994835D01*
X159702127Y-89000500D01*
X164297872Y-89000499D01*
X164357483Y-88994091D01*
X164492331Y-88943796D01*
X164607546Y-88857546D01*
X164693796Y-88742331D01*
X164744091Y-88607483D01*
X164750500Y-88547873D01*
X164750499Y-85452128D01*
X164744091Y-85392517D01*
X164693796Y-85257669D01*
X164693795Y-85257668D01*
X164693793Y-85257664D01*
X164607547Y-85142456D01*
X164607548Y-85142456D01*
X164607546Y-85142454D01*
X164549854Y-85099265D01*
X164507984Y-85043333D01*
X164503000Y-84973641D01*
X164536485Y-84912318D01*
X164549854Y-84900734D01*
X164607546Y-84857546D01*
X164693796Y-84742331D01*
X164744091Y-84607483D01*
X164750500Y-84547873D01*
X164750499Y-81452128D01*
X164744091Y-81392517D01*
X164717840Y-81322135D01*
X164693797Y-81257671D01*
X164693793Y-81257664D01*
X164607547Y-81142456D01*
X164607548Y-81142456D01*
X164607546Y-81142454D01*
X164549854Y-81099265D01*
X164507984Y-81043333D01*
X164503000Y-80973641D01*
X164536485Y-80912318D01*
X164549850Y-80900736D01*
X164607546Y-80857546D01*
X164693360Y-80742912D01*
X164749294Y-80701042D01*
X164818986Y-80696058D01*
X164880308Y-80729543D01*
X165863181Y-81712416D01*
X165896666Y-81773739D01*
X165899500Y-81800097D01*
X165899500Y-88699903D01*
X165879815Y-88766942D01*
X165863181Y-88787584D01*
X164287584Y-90363181D01*
X164226261Y-90396666D01*
X164199903Y-90399500D01*
X159800098Y-90399500D01*
X159733059Y-90379815D01*
X159712417Y-90363181D01*
X152487590Y-83138355D01*
X152487588Y-83138352D01*
X152368717Y-83019481D01*
X152368716Y-83019480D01*
X152281904Y-82969360D01*
X152281904Y-82969359D01*
X152281900Y-82969358D01*
X152231785Y-82940423D01*
X152079057Y-82899499D01*
X151920943Y-82899499D01*
X151913347Y-82899499D01*
X151913331Y-82899500D01*
X147800097Y-82899500D01*
X147733058Y-82879815D01*
X147712416Y-82863181D01*
X144149234Y-79299999D01*
X145064657Y-79299999D01*
X145064657Y-79300000D01*
X145083987Y-79508618D01*
X145141323Y-79710130D01*
X145141328Y-79710143D01*
X145217279Y-79862671D01*
X145234712Y-79897681D01*
X145358357Y-80061415D01*
X145360973Y-80064878D01*
X145360976Y-80064881D01*
X145515800Y-80206021D01*
X145515805Y-80206025D01*
X145693930Y-80316315D01*
X145693931Y-80316315D01*
X145693934Y-80316317D01*
X145889299Y-80392002D01*
X146095244Y-80430500D01*
X146095246Y-80430500D01*
X146304754Y-80430500D01*
X146304756Y-80430500D01*
X146510701Y-80392002D01*
X146706066Y-80316317D01*
X146850807Y-80226697D01*
X146884194Y-80206025D01*
X146884194Y-80206024D01*
X146884197Y-80206023D01*
X147039029Y-80064876D01*
X147165288Y-79897681D01*
X147258676Y-79710133D01*
X147316012Y-79508619D01*
X147335343Y-79300000D01*
X147329100Y-79232631D01*
X147316012Y-79091381D01*
X147312505Y-79079057D01*
X147258676Y-78889867D01*
X147165288Y-78702319D01*
X147039029Y-78535124D01*
X147039026Y-78535121D01*
X147039023Y-78535118D01*
X146884199Y-78393978D01*
X146884194Y-78393974D01*
X146706069Y-78283684D01*
X146706063Y-78283682D01*
X146510701Y-78207998D01*
X146304756Y-78169500D01*
X146095244Y-78169500D01*
X145889299Y-78207998D01*
X145765752Y-78255860D01*
X145693936Y-78283682D01*
X145693930Y-78283684D01*
X145515805Y-78393974D01*
X145515800Y-78393978D01*
X145360976Y-78535118D01*
X145360973Y-78535121D01*
X145234712Y-78702318D01*
X145141328Y-78889856D01*
X145141323Y-78889869D01*
X145083987Y-79091381D01*
X145064657Y-79299999D01*
X144149234Y-79299999D01*
X144136819Y-79287584D01*
X144103334Y-79226261D01*
X144100500Y-79199903D01*
X144100500Y-78089060D01*
X144100501Y-78089047D01*
X144100501Y-77920944D01*
X144098665Y-77914092D01*
X144059577Y-77768216D01*
X144027449Y-77712568D01*
X143980524Y-77631290D01*
X143980518Y-77631282D01*
X143853184Y-77503948D01*
X146860708Y-77503948D01*
X146860708Y-77503949D01*
X146880038Y-77712567D01*
X146937374Y-77914079D01*
X146937379Y-77914092D01*
X147019523Y-78079058D01*
X147030763Y-78101630D01*
X147148751Y-78257873D01*
X147157024Y-78268827D01*
X147157027Y-78268830D01*
X147311851Y-78409970D01*
X147311856Y-78409974D01*
X147489981Y-78520264D01*
X147489982Y-78520264D01*
X147489985Y-78520266D01*
X147685350Y-78595951D01*
X147891295Y-78634449D01*
X147891297Y-78634449D01*
X148100805Y-78634449D01*
X148100807Y-78634449D01*
X148306752Y-78595951D01*
X148502117Y-78520266D01*
X148680248Y-78409972D01*
X148835080Y-78268825D01*
X148961339Y-78101630D01*
X149054727Y-77914082D01*
X149112063Y-77712568D01*
X149131394Y-77503949D01*
X149112063Y-77295330D01*
X149054727Y-77093816D01*
X149051673Y-77087683D01*
X148986435Y-76956668D01*
X148961339Y-76906268D01*
X148835080Y-76739073D01*
X148835077Y-76739070D01*
X148835074Y-76739067D01*
X148680250Y-76597927D01*
X148680245Y-76597923D01*
X148502120Y-76487633D01*
X148502114Y-76487631D01*
X148306752Y-76411947D01*
X148100807Y-76373449D01*
X147891295Y-76373449D01*
X147685350Y-76411947D01*
X147561803Y-76459809D01*
X147489987Y-76487631D01*
X147489981Y-76487633D01*
X147311856Y-76597923D01*
X147311851Y-76597927D01*
X147157027Y-76739067D01*
X147157024Y-76739070D01*
X147030763Y-76906267D01*
X146937379Y-77093805D01*
X146937374Y-77093818D01*
X146880038Y-77295330D01*
X146860708Y-77503948D01*
X143853184Y-77503948D01*
X143127590Y-76778355D01*
X143127588Y-76778352D01*
X143036818Y-76687582D01*
X143003333Y-76626259D01*
X143000499Y-76599901D01*
X143000499Y-76242129D01*
X143000498Y-76242123D01*
X143000497Y-76242116D01*
X142994091Y-76182517D01*
X142970039Y-76118031D01*
X142943797Y-76047671D01*
X142943795Y-76047668D01*
X142866421Y-75944309D01*
X142842004Y-75878848D01*
X142856855Y-75810575D01*
X142866416Y-75795696D01*
X142932143Y-75707897D01*
X145064657Y-75707897D01*
X145064657Y-75707898D01*
X145083987Y-75916516D01*
X145141323Y-76118028D01*
X145141328Y-76118041D01*
X145234712Y-76305579D01*
X145357117Y-76467671D01*
X145360973Y-76472776D01*
X145360976Y-76472779D01*
X145515800Y-76613919D01*
X145515805Y-76613923D01*
X145693930Y-76724213D01*
X145693931Y-76724213D01*
X145693934Y-76724215D01*
X145889299Y-76799900D01*
X146095244Y-76838398D01*
X146095246Y-76838398D01*
X146304754Y-76838398D01*
X146304756Y-76838398D01*
X146510701Y-76799900D01*
X146706066Y-76724215D01*
X146810617Y-76659480D01*
X146884194Y-76613923D01*
X146884194Y-76613922D01*
X146884197Y-76613921D01*
X147039029Y-76472774D01*
X147165288Y-76305579D01*
X147258676Y-76118031D01*
X147316012Y-75916517D01*
X147335343Y-75707898D01*
X147333900Y-75692330D01*
X147316012Y-75499279D01*
X147278232Y-75366497D01*
X147258676Y-75297765D01*
X147241671Y-75263615D01*
X147180781Y-75141332D01*
X147165288Y-75110217D01*
X147039029Y-74943022D01*
X147039026Y-74943019D01*
X147039023Y-74943016D01*
X146884199Y-74801876D01*
X146884194Y-74801872D01*
X146706069Y-74691582D01*
X146706063Y-74691580D01*
X146699863Y-74689178D01*
X146510701Y-74615896D01*
X146304756Y-74577398D01*
X146095244Y-74577398D01*
X145889299Y-74615896D01*
X145818244Y-74643423D01*
X145693936Y-74691580D01*
X145693930Y-74691582D01*
X145515805Y-74801872D01*
X145515800Y-74801876D01*
X145360976Y-74943016D01*
X145360973Y-74943019D01*
X145234712Y-75110216D01*
X145141328Y-75297754D01*
X145141323Y-75297767D01*
X145083987Y-75499279D01*
X145064657Y-75707897D01*
X142932143Y-75707897D01*
X142943796Y-75692331D01*
X142994091Y-75557483D01*
X143000500Y-75497873D01*
X143000499Y-73702128D01*
X142994091Y-73642517D01*
X142983653Y-73614532D01*
X142943797Y-73507671D01*
X142943795Y-73507668D01*
X142902217Y-73452127D01*
X142866421Y-73404309D01*
X142842004Y-73338848D01*
X142856855Y-73270575D01*
X142866416Y-73255696D01*
X142943796Y-73152331D01*
X142994091Y-73017483D01*
X143000500Y-72957873D01*
X143000499Y-71162128D01*
X142994091Y-71102517D01*
X142943796Y-70967669D01*
X142866421Y-70864309D01*
X142842004Y-70798848D01*
X142856855Y-70730575D01*
X142866416Y-70715696D01*
X142943796Y-70612331D01*
X142994091Y-70477483D01*
X143000500Y-70417873D01*
X143000499Y-69900095D01*
X143020183Y-69833057D01*
X143036813Y-69812420D01*
X145712416Y-67136819D01*
X145773739Y-67103334D01*
X145800097Y-67100500D01*
X149619903Y-67100500D01*
X149686942Y-67120185D01*
X149707584Y-67136819D01*
X150708058Y-68137293D01*
X150741543Y-68198616D01*
X150740152Y-68257067D01*
X150714366Y-68353302D01*
X150714364Y-68353313D01*
X150694532Y-68579998D01*
X150694532Y-68580001D01*
X150714364Y-68806686D01*
X150714366Y-68806697D01*
X150773258Y-69026488D01*
X150773261Y-69026497D01*
X150869431Y-69232732D01*
X150869432Y-69232734D01*
X150999954Y-69419141D01*
X151160858Y-69580045D01*
X151160861Y-69580047D01*
X151347266Y-69710568D01*
X151553504Y-69806739D01*
X151773308Y-69865635D01*
X151935230Y-69879801D01*
X151999998Y-69885468D01*
X152000000Y-69885468D01*
X152000002Y-69885468D01*
X152056673Y-69880509D01*
X152226692Y-69865635D01*
X152446496Y-69806739D01*
X152652734Y-69710568D01*
X152839139Y-69580047D01*
X153000047Y-69419139D01*
X153130568Y-69232734D01*
X153226739Y-69026496D01*
X153285635Y-68806692D01*
X153305468Y-68580000D01*
X153303938Y-68562517D01*
X153292141Y-68427669D01*
X153285635Y-68353308D01*
X153226739Y-68133504D01*
X153130568Y-67927266D01*
X153000047Y-67740861D01*
X153000045Y-67740858D01*
X152839141Y-67579954D01*
X152652734Y-67449432D01*
X152652732Y-67449431D01*
X152446497Y-67353261D01*
X152446488Y-67353258D01*
X152226697Y-67294366D01*
X152226693Y-67294365D01*
X152226692Y-67294365D01*
X152226691Y-67294364D01*
X152226686Y-67294364D01*
X152000002Y-67274532D01*
X151999998Y-67274532D01*
X151773313Y-67294364D01*
X151773302Y-67294366D01*
X151677067Y-67320152D01*
X151607217Y-67318489D01*
X151557293Y-67288058D01*
X150407590Y-66138355D01*
X150407588Y-66138352D01*
X150288717Y-66019481D01*
X150288716Y-66019480D01*
X150201904Y-65969360D01*
X150201904Y-65969359D01*
X150201900Y-65969358D01*
X150151785Y-65940423D01*
X149999057Y-65899499D01*
X149840943Y-65899499D01*
X149833347Y-65899499D01*
X149833331Y-65899500D01*
X145586669Y-65899500D01*
X145586653Y-65899499D01*
X145579057Y-65899499D01*
X145420943Y-65899499D01*
X145313587Y-65928265D01*
X145268210Y-65940424D01*
X145268209Y-65940425D01*
X145218096Y-65969359D01*
X145218095Y-65969360D01*
X145174689Y-65994420D01*
X145131285Y-66019479D01*
X145131282Y-66019481D01*
X145019478Y-66131286D01*
X143212180Y-67938583D01*
X143150857Y-67972068D01*
X143081165Y-67967084D01*
X143025232Y-67925212D01*
X143000815Y-67859748D01*
X143000499Y-67850929D01*
X143000499Y-66082128D01*
X142994091Y-66022517D01*
X142992958Y-66019480D01*
X142943797Y-65887671D01*
X142943795Y-65887668D01*
X142866421Y-65784309D01*
X142842004Y-65718848D01*
X142856855Y-65650575D01*
X142866416Y-65635696D01*
X142943796Y-65532331D01*
X142994091Y-65397483D01*
X143000500Y-65337873D01*
X143000499Y-63542128D01*
X142994091Y-63482517D01*
X142943796Y-63347669D01*
X142943795Y-63347668D01*
X142943793Y-63347664D01*
X142857547Y-63232455D01*
X142857544Y-63232452D01*
X142742335Y-63146206D01*
X142742328Y-63146202D01*
X142607482Y-63095908D01*
X142607483Y-63095908D01*
X142547883Y-63089501D01*
X142547881Y-63089500D01*
X142547873Y-63089500D01*
X142547865Y-63089500D01*
X141374500Y-63089500D01*
X141307461Y-63069815D01*
X141261706Y-63017011D01*
X141250500Y-62965500D01*
X141250500Y-57362230D01*
X141270185Y-57295191D01*
X141286819Y-57274549D01*
X143274549Y-55286819D01*
X143335872Y-55253334D01*
X143362230Y-55250500D01*
X146066148Y-55250500D01*
X146133187Y-55270185D01*
G37*
%TD.AperFunction*%
%TA.AperFunction,NonConductor*%
G36*
X148606942Y-90460185D02*
G01*
X148627583Y-90476818D01*
X149631284Y-91480520D01*
X149631286Y-91480521D01*
X149631290Y-91480524D01*
X149768209Y-91559573D01*
X149768216Y-91559577D01*
X149920943Y-91600501D01*
X149920945Y-91600501D01*
X150086654Y-91600501D01*
X150086670Y-91600500D01*
X155199903Y-91600500D01*
X155266942Y-91620185D01*
X155287584Y-91636819D01*
X156863181Y-93212416D01*
X156896666Y-93273739D01*
X156899500Y-93300097D01*
X156899500Y-98864664D01*
X156879815Y-98931703D01*
X156827011Y-98977458D01*
X156757853Y-98987402D01*
X156694297Y-98958377D01*
X156663118Y-98917069D01*
X156638681Y-98864664D01*
X156630568Y-98847266D01*
X156500047Y-98660861D01*
X156500045Y-98660858D01*
X156339141Y-98499954D01*
X156152734Y-98369432D01*
X156152732Y-98369431D01*
X155946497Y-98273261D01*
X155946488Y-98273258D01*
X155726697Y-98214366D01*
X155726693Y-98214365D01*
X155726692Y-98214365D01*
X155726691Y-98214364D01*
X155726686Y-98214364D01*
X155500002Y-98194532D01*
X155499998Y-98194532D01*
X155273313Y-98214364D01*
X155273302Y-98214366D01*
X155053511Y-98273258D01*
X155053502Y-98273261D01*
X154894595Y-98347362D01*
X154847266Y-98369432D01*
X154847264Y-98369432D01*
X154842360Y-98371720D01*
X154841779Y-98370474D01*
X154780220Y-98385400D01*
X154714196Y-98362538D01*
X154698457Y-98349222D01*
X154067590Y-97718355D01*
X154067588Y-97718352D01*
X153948717Y-97599481D01*
X153948716Y-97599480D01*
X153861904Y-97549360D01*
X153861904Y-97549359D01*
X153861900Y-97549358D01*
X153811785Y-97520423D01*
X153659057Y-97479499D01*
X153500943Y-97479499D01*
X153493347Y-97479499D01*
X153493331Y-97479500D01*
X152231692Y-97479500D01*
X152164653Y-97459815D01*
X152130119Y-97426625D01*
X152000047Y-97240861D01*
X152000045Y-97240858D01*
X151839141Y-97079954D01*
X151652734Y-96949432D01*
X151652732Y-96949431D01*
X151446497Y-96853261D01*
X151446488Y-96853258D01*
X151226697Y-96794366D01*
X151226693Y-96794365D01*
X151226692Y-96794365D01*
X151226691Y-96794364D01*
X151226686Y-96794364D01*
X151000002Y-96774532D01*
X150999998Y-96774532D01*
X150773313Y-96794364D01*
X150773302Y-96794366D01*
X150677067Y-96820152D01*
X150607217Y-96818489D01*
X150557293Y-96788058D01*
X145787590Y-92018355D01*
X145787588Y-92018352D01*
X145668717Y-91899481D01*
X145668709Y-91899475D01*
X145556888Y-91834916D01*
X145556888Y-91834915D01*
X145556885Y-91834915D01*
X145531785Y-91820423D01*
X145379057Y-91779499D01*
X145220943Y-91779499D01*
X145213347Y-91779499D01*
X145213331Y-91779500D01*
X143124499Y-91779500D01*
X143057460Y-91759815D01*
X143011705Y-91707011D01*
X143000499Y-91655500D01*
X143000499Y-91482129D01*
X143000498Y-91482123D01*
X143000497Y-91482116D01*
X142994091Y-91422517D01*
X142974023Y-91368713D01*
X142943797Y-91287671D01*
X142943795Y-91287668D01*
X142866421Y-91184309D01*
X142842004Y-91118848D01*
X142856855Y-91050575D01*
X142866416Y-91035696D01*
X142943796Y-90932331D01*
X142994091Y-90797483D01*
X143000500Y-90737873D01*
X143000500Y-90564500D01*
X143020185Y-90497461D01*
X143072989Y-90451706D01*
X143124500Y-90440500D01*
X148539903Y-90440500D01*
X148606942Y-90460185D01*
G37*
%TD.AperFunction*%
%TA.AperFunction,NonConductor*%
G36*
X143205702Y-80055383D02*
G01*
X143212180Y-80061415D01*
X147015139Y-83864374D01*
X147015149Y-83864385D01*
X147019479Y-83868715D01*
X147019480Y-83868716D01*
X147131284Y-83980520D01*
X147218095Y-84030639D01*
X147218097Y-84030641D01*
X147268213Y-84059576D01*
X147268215Y-84059577D01*
X147420942Y-84100500D01*
X147420943Y-84100500D01*
X151699903Y-84100500D01*
X151766942Y-84120185D01*
X151787583Y-84136818D01*
X159131284Y-91480520D01*
X159131286Y-91480521D01*
X159131290Y-91480524D01*
X159268209Y-91559573D01*
X159268216Y-91559577D01*
X159420943Y-91600501D01*
X159420945Y-91600501D01*
X159586654Y-91600501D01*
X159586670Y-91600500D01*
X164413331Y-91600500D01*
X164413347Y-91600501D01*
X164420943Y-91600501D01*
X164579054Y-91600501D01*
X164579057Y-91600501D01*
X164731785Y-91559577D01*
X164781904Y-91530639D01*
X164868716Y-91480520D01*
X164980520Y-91368716D01*
X164980520Y-91368714D01*
X164990728Y-91358507D01*
X164990730Y-91358504D01*
X166858506Y-89490728D01*
X166858511Y-89490724D01*
X166868714Y-89480520D01*
X166868716Y-89480520D01*
X166980520Y-89368716D01*
X167018113Y-89303602D01*
X167068680Y-89255387D01*
X167137287Y-89242164D01*
X167202152Y-89268132D01*
X167242680Y-89325047D01*
X167249500Y-89365603D01*
X167249500Y-92137769D01*
X167229815Y-92204808D01*
X167213181Y-92225450D01*
X164935407Y-94503224D01*
X164874084Y-94536709D01*
X164804392Y-94531725D01*
X164748459Y-94489853D01*
X164731544Y-94458876D01*
X164693797Y-94357671D01*
X164693793Y-94357664D01*
X164607547Y-94242455D01*
X164607544Y-94242452D01*
X164492335Y-94156206D01*
X164492328Y-94156202D01*
X164357482Y-94105908D01*
X164357483Y-94105908D01*
X164297883Y-94099501D01*
X164297881Y-94099500D01*
X164297873Y-94099500D01*
X164297864Y-94099500D01*
X159702129Y-94099500D01*
X159702123Y-94099501D01*
X159642516Y-94105908D01*
X159507671Y-94156202D01*
X159507664Y-94156206D01*
X159392455Y-94242452D01*
X159392452Y-94242455D01*
X159306206Y-94357664D01*
X159306202Y-94357671D01*
X159255908Y-94492517D01*
X159249501Y-94552116D01*
X159249500Y-94552135D01*
X159249500Y-97647870D01*
X159249501Y-97647876D01*
X159255908Y-97707483D01*
X159306202Y-97842328D01*
X159306206Y-97842335D01*
X159392452Y-97957544D01*
X159392453Y-97957544D01*
X159392454Y-97957546D01*
X159421615Y-97979376D01*
X159450145Y-98000734D01*
X159492015Y-98056668D01*
X159496999Y-98126360D01*
X159463513Y-98187683D01*
X159450145Y-98199266D01*
X159392452Y-98242455D01*
X159306206Y-98357664D01*
X159306202Y-98357671D01*
X159255908Y-98492517D01*
X159249501Y-98552116D01*
X159249501Y-98552123D01*
X159249500Y-98552135D01*
X159249500Y-98882419D01*
X159229815Y-98949458D01*
X159177011Y-98995213D01*
X159113347Y-99005822D01*
X159000001Y-98994659D01*
X159000000Y-98994659D01*
X158803870Y-99013975D01*
X158615266Y-99071188D01*
X158441467Y-99164086D01*
X158441460Y-99164090D01*
X158303165Y-99277587D01*
X158238855Y-99304900D01*
X158169987Y-99293109D01*
X158118427Y-99245957D01*
X158100500Y-99181734D01*
X158100500Y-92920945D01*
X158100500Y-92920943D01*
X158059577Y-92768216D01*
X158059577Y-92768215D01*
X158031109Y-92718907D01*
X158012352Y-92686419D01*
X158012351Y-92686418D01*
X157980521Y-92631286D01*
X157980520Y-92631284D01*
X157868716Y-92519480D01*
X157868715Y-92519479D01*
X157864385Y-92515149D01*
X157864374Y-92515139D01*
X155987590Y-90638355D01*
X155987588Y-90638352D01*
X155868717Y-90519481D01*
X155868716Y-90519480D01*
X155781904Y-90469360D01*
X155781904Y-90469359D01*
X155781900Y-90469358D01*
X155731785Y-90440423D01*
X155579057Y-90399499D01*
X155420943Y-90399499D01*
X155413347Y-90399499D01*
X155413331Y-90399500D01*
X150300098Y-90399500D01*
X150233059Y-90379815D01*
X150212417Y-90363181D01*
X149327590Y-89478355D01*
X149327588Y-89478352D01*
X149208717Y-89359481D01*
X149208716Y-89359480D01*
X149121904Y-89309360D01*
X149121904Y-89309359D01*
X149121900Y-89309358D01*
X149071785Y-89280423D01*
X148919057Y-89239499D01*
X148760943Y-89239499D01*
X148753347Y-89239499D01*
X148753331Y-89239500D01*
X143124499Y-89239500D01*
X143057460Y-89219815D01*
X143011705Y-89167011D01*
X143000499Y-89115500D01*
X143000499Y-88942129D01*
X143000498Y-88942123D01*
X143000497Y-88942116D01*
X142994091Y-88882517D01*
X142984777Y-88857546D01*
X142943797Y-88747671D01*
X142943795Y-88747668D01*
X142939800Y-88742331D01*
X142866421Y-88644309D01*
X142842004Y-88578848D01*
X142856855Y-88510575D01*
X142866416Y-88495696D01*
X142943796Y-88392331D01*
X142994091Y-88257483D01*
X143000500Y-88197873D01*
X143000500Y-87919998D01*
X149694532Y-87919998D01*
X149694532Y-87920001D01*
X149714364Y-88146686D01*
X149714366Y-88146697D01*
X149773258Y-88366488D01*
X149773261Y-88366497D01*
X149869431Y-88572732D01*
X149869432Y-88572734D01*
X149999954Y-88759141D01*
X150160858Y-88920045D01*
X150192379Y-88942116D01*
X150347266Y-89050568D01*
X150553504Y-89146739D01*
X150773308Y-89205635D01*
X150935230Y-89219801D01*
X150999998Y-89225468D01*
X151000000Y-89225468D01*
X151000002Y-89225468D01*
X151064614Y-89219815D01*
X151226692Y-89205635D01*
X151446496Y-89146739D01*
X151652734Y-89050568D01*
X151839139Y-88920047D01*
X152000047Y-88759139D01*
X152130568Y-88572734D01*
X152226739Y-88366496D01*
X152285635Y-88146692D01*
X152305468Y-87920000D01*
X152285635Y-87693308D01*
X152226739Y-87473504D01*
X152130568Y-87267266D01*
X152000047Y-87080861D01*
X152000045Y-87080858D01*
X151839141Y-86919954D01*
X151652734Y-86789432D01*
X151652732Y-86789431D01*
X151446497Y-86693261D01*
X151446488Y-86693258D01*
X151226697Y-86634366D01*
X151226693Y-86634365D01*
X151226692Y-86634365D01*
X151226691Y-86634364D01*
X151226686Y-86634364D01*
X151000002Y-86614532D01*
X150999998Y-86614532D01*
X150773313Y-86634364D01*
X150773302Y-86634366D01*
X150553511Y-86693258D01*
X150553502Y-86693261D01*
X150347267Y-86789431D01*
X150347265Y-86789432D01*
X150160858Y-86919954D01*
X149999954Y-87080858D01*
X149869432Y-87267265D01*
X149869431Y-87267267D01*
X149773261Y-87473502D01*
X149773258Y-87473511D01*
X149714366Y-87693302D01*
X149714364Y-87693313D01*
X149694532Y-87919998D01*
X143000500Y-87919998D01*
X143000499Y-86402128D01*
X142994091Y-86342517D01*
X142969095Y-86275500D01*
X142943797Y-86207671D01*
X142943795Y-86207668D01*
X142900621Y-86149995D01*
X144794732Y-86149995D01*
X144794732Y-86150004D01*
X144813777Y-86404154D01*
X144866321Y-86634366D01*
X144870492Y-86652637D01*
X144963607Y-86889888D01*
X145091041Y-87110612D01*
X145249950Y-87309877D01*
X145436783Y-87483232D01*
X145647366Y-87626805D01*
X145647371Y-87626807D01*
X145647372Y-87626808D01*
X145647373Y-87626809D01*
X145743268Y-87672989D01*
X145876992Y-87737387D01*
X145876993Y-87737387D01*
X145876996Y-87737389D01*
X146120542Y-87812513D01*
X146372565Y-87850500D01*
X146627435Y-87850500D01*
X146879458Y-87812513D01*
X147123004Y-87737389D01*
X147352634Y-87626805D01*
X147563217Y-87483232D01*
X147750050Y-87309877D01*
X147908959Y-87110612D01*
X148036393Y-86889888D01*
X148129508Y-86652637D01*
X148186222Y-86404157D01*
X148200946Y-86207671D01*
X148205268Y-86150004D01*
X148205268Y-86149995D01*
X148186222Y-85895845D01*
X148176290Y-85852331D01*
X148129508Y-85647363D01*
X148036393Y-85410112D01*
X147908959Y-85189388D01*
X147750050Y-84990123D01*
X147563217Y-84816768D01*
X147352634Y-84673195D01*
X147352630Y-84673193D01*
X147352627Y-84673191D01*
X147352626Y-84673190D01*
X147123006Y-84562612D01*
X147123008Y-84562612D01*
X146879466Y-84487489D01*
X146879462Y-84487488D01*
X146879458Y-84487487D01*
X146758231Y-84469214D01*
X146627440Y-84449500D01*
X146627435Y-84449500D01*
X146372565Y-84449500D01*
X146372559Y-84449500D01*
X146215609Y-84473157D01*
X146120542Y-84487487D01*
X146120539Y-84487488D01*
X146120533Y-84487489D01*
X145876992Y-84562612D01*
X145647373Y-84673190D01*
X145647372Y-84673191D01*
X145436782Y-84816768D01*
X145249952Y-84990121D01*
X145249950Y-84990123D01*
X145091041Y-85189388D01*
X144963608Y-85410109D01*
X144870492Y-85647362D01*
X144870490Y-85647369D01*
X144813777Y-85895845D01*
X144794732Y-86149995D01*
X142900621Y-86149995D01*
X142866421Y-86104309D01*
X142842004Y-86038848D01*
X142856855Y-85970575D01*
X142866416Y-85955696D01*
X142943796Y-85852331D01*
X142994091Y-85717483D01*
X143000500Y-85657873D01*
X143000499Y-83862128D01*
X142994091Y-83802517D01*
X142943796Y-83667669D01*
X142866421Y-83564309D01*
X142842004Y-83498848D01*
X142856855Y-83430575D01*
X142866416Y-83415696D01*
X142943796Y-83312331D01*
X142994091Y-83177483D01*
X143000500Y-83117873D01*
X143000499Y-81322128D01*
X142994091Y-81262517D01*
X142980747Y-81226741D01*
X142943797Y-81127671D01*
X142943795Y-81127668D01*
X142890297Y-81056204D01*
X142866421Y-81024309D01*
X142842004Y-80958848D01*
X142856855Y-80890575D01*
X142866416Y-80875696D01*
X142943796Y-80772331D01*
X142994091Y-80637483D01*
X143000500Y-80577873D01*
X143000499Y-80149094D01*
X143020183Y-80082057D01*
X143072987Y-80036302D01*
X143142146Y-80026358D01*
X143205702Y-80055383D01*
G37*
%TD.AperFunction*%
%TA.AperFunction,NonConductor*%
G36*
X156843365Y-100031555D02*
G01*
X156888700Y-100084720D01*
X156899500Y-100135335D01*
X156899500Y-100949897D01*
X156879815Y-101016936D01*
X156827011Y-101062691D01*
X156757853Y-101072635D01*
X156694297Y-101043610D01*
X156676234Y-101024208D01*
X156607547Y-100932455D01*
X156607544Y-100932452D01*
X156492335Y-100846206D01*
X156492328Y-100846202D01*
X156357482Y-100795908D01*
X156357483Y-100795908D01*
X156303846Y-100790142D01*
X156239295Y-100763404D01*
X156199446Y-100706012D01*
X156196953Y-100636187D01*
X156232605Y-100576098D01*
X156245972Y-100565282D01*
X156339139Y-100500047D01*
X156500047Y-100339139D01*
X156630568Y-100152734D01*
X156663118Y-100082929D01*
X156709290Y-100030491D01*
X156776484Y-100011339D01*
X156843365Y-100031555D01*
G37*
%TD.AperFunction*%
%TA.AperFunction,NonConductor*%
G36*
X158303165Y-100722412D02*
G01*
X158441460Y-100835909D01*
X158441467Y-100835913D01*
X158615266Y-100928811D01*
X158615269Y-100928811D01*
X158615273Y-100928814D01*
X158803868Y-100986024D01*
X159000000Y-101005341D01*
X159113347Y-100994177D01*
X159181992Y-101007196D01*
X159232702Y-101055260D01*
X159249500Y-101117580D01*
X159249500Y-101647870D01*
X159249501Y-101647876D01*
X159255908Y-101707483D01*
X159306202Y-101842328D01*
X159306206Y-101842335D01*
X159392452Y-101957544D01*
X159392453Y-101957544D01*
X159392454Y-101957546D01*
X159421615Y-101979376D01*
X159450145Y-102000734D01*
X159492015Y-102056668D01*
X159496999Y-102126360D01*
X159463513Y-102187683D01*
X159450145Y-102199266D01*
X159392452Y-102242455D01*
X159306206Y-102357664D01*
X159306202Y-102357671D01*
X159255908Y-102492517D01*
X159249501Y-102552116D01*
X159249501Y-102552123D01*
X159249500Y-102552135D01*
X159249500Y-103100903D01*
X159229815Y-103167942D01*
X159177011Y-103213697D01*
X159107853Y-103223641D01*
X159044297Y-103194616D01*
X159037819Y-103188584D01*
X158136819Y-102287584D01*
X158103334Y-102226261D01*
X158100500Y-102199903D01*
X158100500Y-100818265D01*
X158120185Y-100751226D01*
X158172989Y-100705471D01*
X158242147Y-100695527D01*
X158303165Y-100722412D01*
G37*
%TD.AperFunction*%
%TA.AperFunction,NonConductor*%
G36*
X138918834Y-82212914D02*
G01*
X138974767Y-82254786D01*
X138999184Y-82320250D01*
X138999500Y-82329096D01*
X138999500Y-82819901D01*
X138979815Y-82886940D01*
X138963181Y-82907582D01*
X133511286Y-88359478D01*
X133399481Y-88471282D01*
X133399479Y-88471284D01*
X133385390Y-88495689D01*
X133371654Y-88519481D01*
X133342487Y-88570000D01*
X133320846Y-88607483D01*
X133320423Y-88608215D01*
X133279499Y-88760943D01*
X133279499Y-88760945D01*
X133279499Y-88929046D01*
X133279500Y-88929059D01*
X133279500Y-128561222D01*
X133259815Y-128628261D01*
X133211796Y-128671706D01*
X133159083Y-128698565D01*
X133071501Y-128762197D01*
X132983922Y-128825828D01*
X132983920Y-128825830D01*
X132983919Y-128825830D01*
X132830830Y-128978919D01*
X132830830Y-128978920D01*
X132830828Y-128978922D01*
X132722530Y-129127979D01*
X132710318Y-129144789D01*
X132654988Y-129187454D01*
X132585374Y-129193433D01*
X132523579Y-129160827D01*
X132509682Y-129144789D01*
X132505061Y-129138429D01*
X132389172Y-128978922D01*
X132236078Y-128825828D01*
X132060919Y-128698567D01*
X132060918Y-128698566D01*
X132060916Y-128698565D01*
X132008204Y-128671706D01*
X131957408Y-128623731D01*
X131940500Y-128561222D01*
X131940500Y-89140096D01*
X131960185Y-89073057D01*
X131976814Y-89052420D01*
X138787819Y-82241414D01*
X138849142Y-82207930D01*
X138918834Y-82212914D01*
G37*
%TD.AperFunction*%
%TA.AperFunction,NonConductor*%
G36*
X114209426Y-126625571D02*
G01*
X114224311Y-126635137D01*
X114302669Y-126693796D01*
X114302671Y-126693797D01*
X114347618Y-126710561D01*
X114437517Y-126744091D01*
X114497127Y-126750500D01*
X114695500Y-126750499D01*
X114762539Y-126770183D01*
X114808294Y-126822987D01*
X114819500Y-126874499D01*
X114819500Y-130833330D01*
X114819499Y-130833348D01*
X114819499Y-130999054D01*
X114819498Y-130999054D01*
X114860423Y-131151785D01*
X114889358Y-131201900D01*
X114889359Y-131201904D01*
X114889360Y-131201904D01*
X114916386Y-131248716D01*
X114939479Y-131288714D01*
X114939481Y-131288717D01*
X115058349Y-131407585D01*
X115058355Y-131407590D01*
X117338584Y-133687819D01*
X117372069Y-133749142D01*
X117367085Y-133818834D01*
X117325213Y-133874767D01*
X117259749Y-133899184D01*
X117250903Y-133899500D01*
X116800097Y-133899500D01*
X116733058Y-133879815D01*
X116712416Y-133863181D01*
X113516819Y-130667584D01*
X113483334Y-130606261D01*
X113480500Y-130579903D01*
X113480500Y-126874499D01*
X113500185Y-126807460D01*
X113552989Y-126761705D01*
X113604500Y-126750499D01*
X113802871Y-126750499D01*
X113802872Y-126750499D01*
X113862483Y-126744091D01*
X113997331Y-126693796D01*
X114075689Y-126635136D01*
X114141153Y-126610720D01*
X114209426Y-126625571D01*
G37*
%TD.AperFunction*%
%TA.AperFunction,NonConductor*%
G36*
X169442539Y-53020185D02*
G01*
X169488294Y-53072989D01*
X169499500Y-53124500D01*
X169499500Y-134879111D01*
X169479815Y-134946150D01*
X169427011Y-134991905D01*
X169376218Y-135003109D01*
X138970075Y-135179239D01*
X138902923Y-135159943D01*
X138856863Y-135107405D01*
X138846519Y-135038305D01*
X138875175Y-134974582D01*
X138881676Y-134967560D01*
X138903086Y-134946150D01*
X138980520Y-134868716D01*
X138980520Y-134868714D01*
X138990724Y-134858511D01*
X138990727Y-134858506D01*
X141312416Y-132536819D01*
X141373739Y-132503334D01*
X141400097Y-132500500D01*
X141608253Y-132500500D01*
X141608254Y-132500500D01*
X141822097Y-132466630D01*
X142028009Y-132399726D01*
X142220919Y-132301433D01*
X142396078Y-132174172D01*
X142549172Y-132021078D01*
X142676433Y-131845919D01*
X142774726Y-131653009D01*
X142841630Y-131447097D01*
X142875500Y-131233254D01*
X142875500Y-130714635D01*
X148649500Y-130714635D01*
X148649500Y-132510370D01*
X148649501Y-132510376D01*
X148655908Y-132569983D01*
X148706202Y-132704828D01*
X148706206Y-132704835D01*
X148792452Y-132820044D01*
X148792455Y-132820047D01*
X148907664Y-132906293D01*
X148907671Y-132906297D01*
X149042517Y-132956591D01*
X149042516Y-132956591D01*
X149049444Y-132957335D01*
X149102127Y-132963000D01*
X150897872Y-132962999D01*
X150957483Y-132956591D01*
X151092331Y-132906296D01*
X151207546Y-132820046D01*
X151293796Y-132704831D01*
X151342810Y-132573416D01*
X151384681Y-132517484D01*
X151450145Y-132493066D01*
X151518418Y-132507917D01*
X151546673Y-132529069D01*
X151668599Y-132650995D01*
X151765384Y-132718765D01*
X151862165Y-132786532D01*
X151862167Y-132786533D01*
X151862170Y-132786535D01*
X152076337Y-132886403D01*
X152076343Y-132886404D01*
X152076344Y-132886405D01*
X152125216Y-132899500D01*
X152304592Y-132947563D01*
X152481034Y-132963000D01*
X152539999Y-132968159D01*
X152540000Y-132968159D01*
X152540001Y-132968159D01*
X152598966Y-132963000D01*
X152775408Y-132947563D01*
X153003663Y-132886403D01*
X153217830Y-132786535D01*
X153411401Y-132650995D01*
X153578495Y-132483901D01*
X153714035Y-132290330D01*
X153813903Y-132076163D01*
X153875063Y-131847908D01*
X153895659Y-131612500D01*
X153875063Y-131377092D01*
X153813903Y-131148837D01*
X153714035Y-130934671D01*
X153648407Y-130840943D01*
X153578494Y-130741097D01*
X153411402Y-130574006D01*
X153411395Y-130574001D01*
X153217834Y-130438467D01*
X153217830Y-130438465D01*
X153217828Y-130438464D01*
X153003663Y-130338597D01*
X153003659Y-130338596D01*
X153003655Y-130338594D01*
X152775413Y-130277438D01*
X152775403Y-130277436D01*
X152540001Y-130256841D01*
X152539999Y-130256841D01*
X152304596Y-130277436D01*
X152304586Y-130277438D01*
X152076344Y-130338594D01*
X152076335Y-130338598D01*
X151862171Y-130438464D01*
X151862169Y-130438465D01*
X151668600Y-130574003D01*
X151546673Y-130695930D01*
X151485350Y-130729414D01*
X151415658Y-130724430D01*
X151359725Y-130682558D01*
X151342810Y-130651581D01*
X151293797Y-130520171D01*
X151293793Y-130520164D01*
X151207547Y-130404955D01*
X151207544Y-130404952D01*
X151092335Y-130318706D01*
X151092328Y-130318702D01*
X150957482Y-130268408D01*
X150957483Y-130268408D01*
X150897883Y-130262001D01*
X150897881Y-130262000D01*
X150897873Y-130262000D01*
X150897864Y-130262000D01*
X149102129Y-130262000D01*
X149102123Y-130262001D01*
X149042516Y-130268408D01*
X148907671Y-130318702D01*
X148907664Y-130318706D01*
X148792455Y-130404952D01*
X148792452Y-130404955D01*
X148706206Y-130520164D01*
X148706202Y-130520171D01*
X148655908Y-130655017D01*
X148649501Y-130714616D01*
X148649500Y-130714635D01*
X142875500Y-130714635D01*
X142875500Y-129766746D01*
X142841630Y-129552903D01*
X142789119Y-129391289D01*
X142774727Y-129346993D01*
X142774726Y-129346990D01*
X142676432Y-129154080D01*
X142669682Y-129144789D01*
X142549172Y-128978922D01*
X142396078Y-128825828D01*
X142220919Y-128698567D01*
X142156222Y-128665602D01*
X142028009Y-128600273D01*
X142028006Y-128600272D01*
X141822098Y-128533370D01*
X141715175Y-128516435D01*
X141608254Y-128499500D01*
X141391746Y-128499500D01*
X141320465Y-128510790D01*
X141177901Y-128533370D01*
X140971993Y-128600272D01*
X140971990Y-128600273D01*
X140779080Y-128698567D01*
X140679145Y-128771174D01*
X140603922Y-128825828D01*
X140603920Y-128825830D01*
X140603919Y-128825830D01*
X140450830Y-128978919D01*
X140450830Y-128978920D01*
X140450828Y-128978922D01*
X140342530Y-129127979D01*
X140330318Y-129144789D01*
X140274988Y-129187454D01*
X140205374Y-129193433D01*
X140143579Y-129160827D01*
X140129682Y-129144789D01*
X140125061Y-129138429D01*
X140009172Y-128978922D01*
X139856078Y-128825828D01*
X139680919Y-128698567D01*
X139616222Y-128665602D01*
X139488009Y-128600273D01*
X139488006Y-128600272D01*
X139282098Y-128533370D01*
X139175175Y-128516435D01*
X139068254Y-128499500D01*
X138851746Y-128499500D01*
X138780465Y-128510790D01*
X138637901Y-128533370D01*
X138431993Y-128600272D01*
X138431990Y-128600273D01*
X138239080Y-128698567D01*
X138139145Y-128771174D01*
X138063922Y-128825828D01*
X138063920Y-128825830D01*
X138063919Y-128825830D01*
X137910830Y-128978919D01*
X137910830Y-128978920D01*
X137910828Y-128978922D01*
X137802530Y-129127979D01*
X137790318Y-129144789D01*
X137734988Y-129187454D01*
X137665374Y-129193433D01*
X137603579Y-129160827D01*
X137589682Y-129144789D01*
X137585061Y-129138429D01*
X137469172Y-128978922D01*
X137316078Y-128825828D01*
X137140919Y-128698567D01*
X137076222Y-128665602D01*
X136948009Y-128600273D01*
X136948006Y-128600272D01*
X136742098Y-128533370D01*
X136635175Y-128516435D01*
X136528254Y-128499500D01*
X136311746Y-128499500D01*
X136240465Y-128510790D01*
X136097901Y-128533370D01*
X135891993Y-128600272D01*
X135891990Y-128600273D01*
X135699080Y-128698567D01*
X135599145Y-128771174D01*
X135523922Y-128825828D01*
X135523920Y-128825830D01*
X135523919Y-128825830D01*
X135370830Y-128978919D01*
X135370830Y-128978920D01*
X135370828Y-128978922D01*
X135262530Y-129127979D01*
X135250318Y-129144789D01*
X135194988Y-129187454D01*
X135125374Y-129193433D01*
X135063579Y-129160827D01*
X135049682Y-129144789D01*
X135045061Y-129138429D01*
X134929172Y-128978922D01*
X134776078Y-128825828D01*
X134600919Y-128698567D01*
X134600918Y-128698566D01*
X134600916Y-128698565D01*
X134548204Y-128671706D01*
X134497408Y-128623731D01*
X134480500Y-128561222D01*
X134480500Y-127865186D01*
X160599500Y-127865186D01*
X160599500Y-128134813D01*
X160629686Y-128402719D01*
X160629688Y-128402731D01*
X160689684Y-128665594D01*
X160689687Y-128665602D01*
X160778734Y-128920082D01*
X160895714Y-129162994D01*
X160895716Y-129162997D01*
X161039162Y-129391289D01*
X161207266Y-129602085D01*
X161397915Y-129792734D01*
X161608711Y-129960838D01*
X161837003Y-130104284D01*
X162079921Y-130221267D01*
X162240443Y-130277436D01*
X162334397Y-130310312D01*
X162334405Y-130310315D01*
X162334408Y-130310315D01*
X162334409Y-130310316D01*
X162597268Y-130370312D01*
X162865187Y-130400499D01*
X162865188Y-130400500D01*
X162865191Y-130400500D01*
X163134812Y-130400500D01*
X163134812Y-130400499D01*
X163402732Y-130370312D01*
X163665591Y-130310316D01*
X163920079Y-130221267D01*
X164162997Y-130104284D01*
X164391289Y-129960838D01*
X164602085Y-129792734D01*
X164792734Y-129602085D01*
X164960838Y-129391289D01*
X165104284Y-129162997D01*
X165221267Y-128920079D01*
X165310316Y-128665591D01*
X165370312Y-128402732D01*
X165400500Y-128134809D01*
X165400500Y-127865191D01*
X165370312Y-127597268D01*
X165310316Y-127334409D01*
X165294357Y-127288802D01*
X165278779Y-127244282D01*
X165221267Y-127079921D01*
X165104284Y-126837003D01*
X164960838Y-126608711D01*
X164792734Y-126397915D01*
X164602085Y-126207266D01*
X164391289Y-126039162D01*
X164162997Y-125895716D01*
X164162994Y-125895714D01*
X163920082Y-125778734D01*
X163665602Y-125689687D01*
X163665594Y-125689684D01*
X163468446Y-125644687D01*
X163402732Y-125629688D01*
X163402728Y-125629687D01*
X163402719Y-125629686D01*
X163134813Y-125599500D01*
X163134809Y-125599500D01*
X162865191Y-125599500D01*
X162865186Y-125599500D01*
X162597280Y-125629686D01*
X162597268Y-125629688D01*
X162334405Y-125689684D01*
X162334397Y-125689687D01*
X162079917Y-125778734D01*
X161837005Y-125895714D01*
X161608712Y-126039161D01*
X161397915Y-126207265D01*
X161207265Y-126397915D01*
X161039161Y-126608712D01*
X160895714Y-126837005D01*
X160778734Y-127079917D01*
X160689687Y-127334397D01*
X160689684Y-127334405D01*
X160629688Y-127597268D01*
X160629686Y-127597280D01*
X160599500Y-127865186D01*
X134480500Y-127865186D01*
X134480500Y-107299999D01*
X145064657Y-107299999D01*
X145064657Y-107300000D01*
X145083987Y-107508618D01*
X145141323Y-107710130D01*
X145141328Y-107710143D01*
X145234712Y-107897681D01*
X145360973Y-108064878D01*
X145360976Y-108064881D01*
X145515800Y-108206021D01*
X145515805Y-108206025D01*
X145693930Y-108316315D01*
X145693931Y-108316315D01*
X145693934Y-108316317D01*
X145889299Y-108392002D01*
X146095244Y-108430500D01*
X146095246Y-108430500D01*
X146304754Y-108430500D01*
X146304756Y-108430500D01*
X146510701Y-108392002D01*
X146706066Y-108316317D01*
X146884197Y-108206023D01*
X147039029Y-108064876D01*
X147165288Y-107897681D01*
X147258676Y-107710133D01*
X147316012Y-107508619D01*
X147335343Y-107300000D01*
X147316012Y-107091381D01*
X147258676Y-106889867D01*
X147165288Y-106702319D01*
X147039029Y-106535124D01*
X147039026Y-106535121D01*
X147039023Y-106535118D01*
X146884199Y-106393978D01*
X146884194Y-106393974D01*
X146706069Y-106283684D01*
X146706063Y-106283682D01*
X146510701Y-106207998D01*
X146304756Y-106169500D01*
X146095244Y-106169500D01*
X145889299Y-106207998D01*
X145800353Y-106242456D01*
X145693936Y-106283682D01*
X145693930Y-106283684D01*
X145515805Y-106393974D01*
X145515800Y-106393978D01*
X145360976Y-106535118D01*
X145360973Y-106535121D01*
X145234712Y-106702318D01*
X145141328Y-106889856D01*
X145141323Y-106889869D01*
X145083987Y-107091381D01*
X145064657Y-107299999D01*
X134480500Y-107299999D01*
X134480500Y-105503948D01*
X146860708Y-105503948D01*
X146860708Y-105503949D01*
X146880038Y-105712567D01*
X146937374Y-105914079D01*
X146937379Y-105914092D01*
X147016826Y-106073641D01*
X147030763Y-106101630D01*
X147137109Y-106242456D01*
X147157024Y-106268827D01*
X147157027Y-106268830D01*
X147311851Y-106409970D01*
X147311856Y-106409974D01*
X147489981Y-106520264D01*
X147489982Y-106520264D01*
X147489985Y-106520266D01*
X147685350Y-106595951D01*
X147891295Y-106634449D01*
X147891297Y-106634449D01*
X148100805Y-106634449D01*
X148100807Y-106634449D01*
X148306752Y-106595951D01*
X148502117Y-106520266D01*
X148680248Y-106409972D01*
X148835080Y-106268825D01*
X148961339Y-106101630D01*
X149054727Y-105914082D01*
X149112063Y-105712568D01*
X149131394Y-105503949D01*
X149112063Y-105295330D01*
X149054727Y-105093816D01*
X148961339Y-104906268D01*
X148835080Y-104739073D01*
X148835077Y-104739070D01*
X148835074Y-104739067D01*
X148680250Y-104597927D01*
X148680245Y-104597923D01*
X148502120Y-104487633D01*
X148502114Y-104487631D01*
X148483761Y-104480521D01*
X148306752Y-104411947D01*
X148100807Y-104373449D01*
X147891295Y-104373449D01*
X147685350Y-104411947D01*
X147561803Y-104459809D01*
X147489987Y-104487631D01*
X147489981Y-104487633D01*
X147311856Y-104597923D01*
X147311851Y-104597927D01*
X147157027Y-104739067D01*
X147157024Y-104739070D01*
X147030763Y-104906267D01*
X146937379Y-105093805D01*
X146937374Y-105093818D01*
X146880038Y-105295330D01*
X146860708Y-105503948D01*
X134480500Y-105503948D01*
X134480500Y-103707897D01*
X145064657Y-103707897D01*
X145064657Y-103707898D01*
X145083987Y-103916516D01*
X145141323Y-104118028D01*
X145141328Y-104118041D01*
X145234712Y-104305579D01*
X145360973Y-104472776D01*
X145360976Y-104472779D01*
X145515800Y-104613919D01*
X145515805Y-104613923D01*
X145693930Y-104724213D01*
X145693931Y-104724213D01*
X145693934Y-104724215D01*
X145889299Y-104799900D01*
X146095244Y-104838398D01*
X146095246Y-104838398D01*
X146304754Y-104838398D01*
X146304756Y-104838398D01*
X146510701Y-104799900D01*
X146706066Y-104724215D01*
X146884197Y-104613921D01*
X147039029Y-104472774D01*
X147165288Y-104305579D01*
X147258676Y-104118031D01*
X147316012Y-103916517D01*
X147335343Y-103707898D01*
X147323487Y-103579954D01*
X147316012Y-103499279D01*
X147264033Y-103316594D01*
X147258676Y-103297765D01*
X147256242Y-103292877D01*
X147204310Y-103188584D01*
X147165288Y-103110217D01*
X147039029Y-102943022D01*
X147039026Y-102943019D01*
X147039023Y-102943016D01*
X146884199Y-102801876D01*
X146884194Y-102801872D01*
X146706069Y-102691582D01*
X146706063Y-102691580D01*
X146510701Y-102615896D01*
X146304756Y-102577398D01*
X146095244Y-102577398D01*
X145889299Y-102615896D01*
X145765752Y-102663758D01*
X145693936Y-102691580D01*
X145693930Y-102691582D01*
X145515805Y-102801872D01*
X145515800Y-102801876D01*
X145360976Y-102943016D01*
X145360973Y-102943019D01*
X145234712Y-103110216D01*
X145141328Y-103297754D01*
X145141323Y-103297767D01*
X145083987Y-103499279D01*
X145064657Y-103707897D01*
X134480500Y-103707897D01*
X134480500Y-89140097D01*
X134500185Y-89073058D01*
X134516819Y-89052416D01*
X136649282Y-86919953D01*
X138787821Y-84781413D01*
X138849142Y-84747930D01*
X138918834Y-84752914D01*
X138974767Y-84794786D01*
X138999184Y-84860250D01*
X138999500Y-84869096D01*
X138999500Y-85657870D01*
X138999501Y-85657876D01*
X139005908Y-85717483D01*
X139056202Y-85852328D01*
X139056203Y-85852330D01*
X139133578Y-85955689D01*
X139157995Y-86021153D01*
X139143144Y-86089426D01*
X139133578Y-86104311D01*
X139056203Y-86207669D01*
X139056202Y-86207671D01*
X139005908Y-86342517D01*
X139000987Y-86388294D01*
X138999501Y-86402123D01*
X138999500Y-86402135D01*
X138999500Y-88197870D01*
X138999501Y-88197876D01*
X139005908Y-88257483D01*
X139056202Y-88392328D01*
X139056203Y-88392330D01*
X139133578Y-88495689D01*
X139157995Y-88561153D01*
X139143144Y-88629426D01*
X139133578Y-88644311D01*
X139056203Y-88747669D01*
X139056202Y-88747671D01*
X139005908Y-88882517D01*
X139000906Y-88929046D01*
X138999501Y-88942123D01*
X138999500Y-88942135D01*
X138999500Y-90737870D01*
X138999501Y-90737876D01*
X139005908Y-90797483D01*
X139056202Y-90932328D01*
X139056203Y-90932330D01*
X139133578Y-91035689D01*
X139157995Y-91101153D01*
X139143144Y-91169426D01*
X139133578Y-91184311D01*
X139056203Y-91287669D01*
X139056202Y-91287671D01*
X139005908Y-91422517D01*
X138999673Y-91480518D01*
X138999501Y-91482123D01*
X138999500Y-91482135D01*
X138999500Y-93277870D01*
X138999501Y-93277876D01*
X139005908Y-93337483D01*
X139056202Y-93472328D01*
X139056203Y-93472330D01*
X139133578Y-93575689D01*
X139157995Y-93641153D01*
X139143144Y-93709426D01*
X139133578Y-93724311D01*
X139056203Y-93827669D01*
X139056202Y-93827671D01*
X139005908Y-93962517D01*
X138999501Y-94022116D01*
X138999501Y-94022123D01*
X138999500Y-94022135D01*
X138999500Y-95817870D01*
X138999501Y-95817876D01*
X139005908Y-95877483D01*
X139056202Y-96012328D01*
X139056203Y-96012330D01*
X139133578Y-96115689D01*
X139157995Y-96181153D01*
X139143144Y-96249426D01*
X139133578Y-96264311D01*
X139056203Y-96367669D01*
X139056202Y-96367671D01*
X139005908Y-96502517D01*
X138999501Y-96562116D01*
X138999501Y-96562123D01*
X138999500Y-96562135D01*
X138999500Y-98357870D01*
X138999501Y-98357876D01*
X139005908Y-98417483D01*
X139056202Y-98552328D01*
X139056203Y-98552330D01*
X139056204Y-98552331D01*
X139125205Y-98644505D01*
X139133578Y-98655689D01*
X139157995Y-98721153D01*
X139143144Y-98789426D01*
X139133578Y-98804311D01*
X139056203Y-98907669D01*
X139056202Y-98907671D01*
X139005908Y-99042517D01*
X138999501Y-99102116D01*
X138999501Y-99102123D01*
X138999500Y-99102135D01*
X138999500Y-100897870D01*
X138999501Y-100897876D01*
X139005908Y-100957483D01*
X139056202Y-101092328D01*
X139056206Y-101092335D01*
X139142452Y-101207544D01*
X139142455Y-101207547D01*
X139257664Y-101293793D01*
X139257671Y-101293797D01*
X139392517Y-101344091D01*
X139392516Y-101344091D01*
X139399444Y-101344835D01*
X139452127Y-101350500D01*
X142547872Y-101350499D01*
X142607483Y-101344091D01*
X142742331Y-101293796D01*
X142857546Y-101207546D01*
X142943796Y-101092331D01*
X142994091Y-100957483D01*
X143000500Y-100897873D01*
X143000499Y-99102128D01*
X142994091Y-99042517D01*
X142973534Y-98987402D01*
X142943797Y-98907671D01*
X142943795Y-98907668D01*
X142866421Y-98804309D01*
X142842004Y-98738848D01*
X142856855Y-98670575D01*
X142866416Y-98655696D01*
X142943796Y-98552331D01*
X142994091Y-98417483D01*
X143000500Y-98357873D01*
X143000499Y-96562128D01*
X142994091Y-96502517D01*
X142943796Y-96367669D01*
X142866421Y-96264309D01*
X142842004Y-96198848D01*
X142856855Y-96130575D01*
X142866416Y-96115696D01*
X142943796Y-96012331D01*
X142994091Y-95877483D01*
X143000500Y-95817873D01*
X143000499Y-94022128D01*
X142994091Y-93962517D01*
X142943796Y-93827669D01*
X142866421Y-93724309D01*
X142842004Y-93658848D01*
X142856855Y-93590575D01*
X142866416Y-93575696D01*
X142943796Y-93472331D01*
X142994091Y-93337483D01*
X143000500Y-93277873D01*
X143000500Y-93104500D01*
X143020185Y-93037461D01*
X143072989Y-92991706D01*
X143124500Y-92980500D01*
X144999903Y-92980500D01*
X145066942Y-93000185D01*
X145087584Y-93016819D01*
X149708058Y-97637293D01*
X149741543Y-97698616D01*
X149740152Y-97757067D01*
X149714366Y-97853302D01*
X149714364Y-97853313D01*
X149694532Y-98079998D01*
X149694532Y-98080001D01*
X149714364Y-98306686D01*
X149714366Y-98306697D01*
X149773258Y-98526488D01*
X149773261Y-98526497D01*
X149869431Y-98732732D01*
X149869432Y-98732734D01*
X149999954Y-98919141D01*
X150160858Y-99080045D01*
X150160861Y-99080047D01*
X150347266Y-99210568D01*
X150553504Y-99306739D01*
X150773308Y-99365635D01*
X150935230Y-99379801D01*
X150999998Y-99385468D01*
X151000000Y-99385468D01*
X151000002Y-99385468D01*
X151056673Y-99380509D01*
X151226692Y-99365635D01*
X151446496Y-99306739D01*
X151652734Y-99210568D01*
X151839139Y-99080047D01*
X152000047Y-98919139D01*
X152130118Y-98733375D01*
X152184693Y-98689752D01*
X152231692Y-98680500D01*
X153279903Y-98680500D01*
X153346942Y-98700185D01*
X153367584Y-98716819D01*
X154166814Y-99516049D01*
X154200299Y-99577372D01*
X154202661Y-99592922D01*
X154214364Y-99726687D01*
X154214366Y-99726697D01*
X154273258Y-99946488D01*
X154273261Y-99946497D01*
X154369431Y-100152732D01*
X154369432Y-100152734D01*
X154499954Y-100339141D01*
X154660858Y-100500045D01*
X154754021Y-100565278D01*
X154797646Y-100619854D01*
X154804840Y-100689353D01*
X154773317Y-100751708D01*
X154713088Y-100787122D01*
X154696152Y-100790143D01*
X154642516Y-100795908D01*
X154507671Y-100846202D01*
X154507664Y-100846206D01*
X154392455Y-100932452D01*
X154392452Y-100932455D01*
X154306206Y-101047664D01*
X154306202Y-101047671D01*
X154255908Y-101182517D01*
X154249501Y-101242116D01*
X154249500Y-101242135D01*
X154249500Y-102837870D01*
X154249501Y-102837876D01*
X154255908Y-102897483D01*
X154306202Y-103032328D01*
X154306206Y-103032335D01*
X154392452Y-103147544D01*
X154392455Y-103147547D01*
X154507664Y-103233793D01*
X154507671Y-103233797D01*
X154552618Y-103250561D01*
X154642517Y-103284091D01*
X154696157Y-103289858D01*
X154760703Y-103316594D01*
X154800552Y-103373986D01*
X154803047Y-103443811D01*
X154767395Y-103503900D01*
X154754022Y-103514721D01*
X154660856Y-103579956D01*
X154499954Y-103740858D01*
X154369432Y-103927265D01*
X154369431Y-103927267D01*
X154273261Y-104133502D01*
X154273258Y-104133511D01*
X154214366Y-104353302D01*
X154214364Y-104353313D01*
X154194532Y-104579998D01*
X154194532Y-104580001D01*
X154214364Y-104806686D01*
X154214366Y-104806697D01*
X154273258Y-105026488D01*
X154273261Y-105026497D01*
X154369431Y-105232732D01*
X154369432Y-105232734D01*
X154499954Y-105419141D01*
X154660858Y-105580045D01*
X154660861Y-105580047D01*
X154847266Y-105710568D01*
X155053504Y-105806739D01*
X155273308Y-105865635D01*
X155435230Y-105879801D01*
X155499998Y-105885468D01*
X155500000Y-105885468D01*
X155500002Y-105885468D01*
X155556673Y-105880509D01*
X155726692Y-105865635D01*
X155946496Y-105806739D01*
X156152734Y-105710568D01*
X156339139Y-105580047D01*
X156500047Y-105419139D01*
X156630568Y-105232734D01*
X156726739Y-105026496D01*
X156785635Y-104806692D01*
X156802634Y-104612384D01*
X156805468Y-104580001D01*
X156805468Y-104579998D01*
X156786983Y-104368716D01*
X156785635Y-104353308D01*
X156726739Y-104133504D01*
X156630568Y-103927266D01*
X156500047Y-103740861D01*
X156500045Y-103740858D01*
X156339141Y-103579954D01*
X156245978Y-103514721D01*
X156202353Y-103460144D01*
X156195159Y-103390646D01*
X156226682Y-103328291D01*
X156286911Y-103292877D01*
X156303842Y-103289857D01*
X156357483Y-103284091D01*
X156492331Y-103233796D01*
X156607546Y-103147546D01*
X156693796Y-103032331D01*
X156744091Y-102897483D01*
X156749300Y-102849034D01*
X156776035Y-102784487D01*
X156833427Y-102744638D01*
X156903252Y-102742143D01*
X156963342Y-102777795D01*
X156979975Y-102800292D01*
X157019477Y-102868712D01*
X157019481Y-102868717D01*
X157138349Y-102987585D01*
X157138355Y-102987590D01*
X158515139Y-104364374D01*
X158515149Y-104364385D01*
X158519479Y-104368715D01*
X158519480Y-104368716D01*
X158631284Y-104480520D01*
X158631286Y-104480521D01*
X158631290Y-104480524D01*
X158768209Y-104559573D01*
X158768216Y-104559577D01*
X158880019Y-104589534D01*
X158920942Y-104600500D01*
X158920943Y-104600500D01*
X159125501Y-104600500D01*
X159192540Y-104620185D01*
X159238295Y-104672989D01*
X159249501Y-104724500D01*
X159249501Y-105647876D01*
X159255908Y-105707483D01*
X159306202Y-105842328D01*
X159306206Y-105842335D01*
X159392452Y-105957544D01*
X159392453Y-105957544D01*
X159392454Y-105957546D01*
X159421615Y-105979376D01*
X159450145Y-106000734D01*
X159492015Y-106056668D01*
X159496999Y-106126360D01*
X159463513Y-106187683D01*
X159450145Y-106199266D01*
X159392452Y-106242455D01*
X159306206Y-106357664D01*
X159306202Y-106357671D01*
X159255908Y-106492517D01*
X159251328Y-106535121D01*
X159249501Y-106552123D01*
X159249500Y-106552135D01*
X159249500Y-107225500D01*
X159229815Y-107292539D01*
X159177011Y-107338294D01*
X159125500Y-107349500D01*
X155462229Y-107349500D01*
X155395190Y-107329815D01*
X155374548Y-107313181D01*
X147962703Y-99901335D01*
X147929218Y-99840012D01*
X147934202Y-99770320D01*
X147942991Y-99751664D01*
X148036393Y-99589888D01*
X148129508Y-99352637D01*
X148186222Y-99104157D01*
X148195717Y-98977458D01*
X148205268Y-98850004D01*
X148205268Y-98849995D01*
X148186222Y-98595845D01*
X148176290Y-98552331D01*
X148129508Y-98347363D01*
X148036393Y-98110112D01*
X147908959Y-97889388D01*
X147750050Y-97690123D01*
X147563217Y-97516768D01*
X147352634Y-97373195D01*
X147352630Y-97373193D01*
X147352627Y-97373191D01*
X147352626Y-97373190D01*
X147123006Y-97262612D01*
X147123008Y-97262612D01*
X146879466Y-97187489D01*
X146879462Y-97187488D01*
X146879458Y-97187487D01*
X146758231Y-97169214D01*
X146627440Y-97149500D01*
X146627435Y-97149500D01*
X146372565Y-97149500D01*
X146372559Y-97149500D01*
X146215609Y-97173157D01*
X146120542Y-97187487D01*
X146120539Y-97187488D01*
X146120533Y-97187489D01*
X145876992Y-97262612D01*
X145647373Y-97373190D01*
X145647372Y-97373191D01*
X145436782Y-97516768D01*
X145249952Y-97690121D01*
X145249950Y-97690123D01*
X145091041Y-97889388D01*
X144963608Y-98110109D01*
X144870492Y-98347362D01*
X144870490Y-98347369D01*
X144813777Y-98595845D01*
X144794732Y-98849995D01*
X144794732Y-98850004D01*
X144813777Y-99104154D01*
X144860016Y-99306741D01*
X144870492Y-99352637D01*
X144963607Y-99589888D01*
X145091041Y-99810612D01*
X145249950Y-100009877D01*
X145436783Y-100183232D01*
X145647366Y-100326805D01*
X145647371Y-100326807D01*
X145647372Y-100326808D01*
X145647373Y-100326809D01*
X145769328Y-100385538D01*
X145876992Y-100437387D01*
X145876993Y-100437387D01*
X145876996Y-100437389D01*
X146120542Y-100512513D01*
X146372565Y-100550500D01*
X146437770Y-100550500D01*
X146504809Y-100570185D01*
X146525451Y-100586819D01*
X150528162Y-104589529D01*
X154517049Y-108578416D01*
X154621584Y-108682951D01*
X154621587Y-108682953D01*
X154621588Y-108682954D01*
X154744503Y-108765083D01*
X154744506Y-108765085D01*
X154801079Y-108788518D01*
X154801080Y-108788518D01*
X154881088Y-108821659D01*
X154997241Y-108844763D01*
X155016468Y-108848587D01*
X155026081Y-108850500D01*
X155026082Y-108850500D01*
X155026083Y-108850500D01*
X155173918Y-108850500D01*
X155426082Y-108850500D01*
X159125501Y-108850500D01*
X159192540Y-108870185D01*
X159238295Y-108922989D01*
X159249501Y-108974500D01*
X159249501Y-109647876D01*
X159255908Y-109707483D01*
X159306202Y-109842328D01*
X159306206Y-109842335D01*
X159392452Y-109957544D01*
X159392453Y-109957544D01*
X159392454Y-109957546D01*
X159421615Y-109979376D01*
X159450145Y-110000734D01*
X159492015Y-110056668D01*
X159496999Y-110126360D01*
X159463513Y-110187683D01*
X159450145Y-110199266D01*
X159392452Y-110242455D01*
X159306206Y-110357664D01*
X159306202Y-110357671D01*
X159255908Y-110492517D01*
X159249501Y-110552116D01*
X159249501Y-110552123D01*
X159249500Y-110552135D01*
X159249500Y-111100903D01*
X159229815Y-111167942D01*
X159177011Y-111213697D01*
X159107853Y-111223641D01*
X159044297Y-111194616D01*
X159037819Y-111188584D01*
X158830700Y-110981465D01*
X158797215Y-110920142D01*
X158795163Y-110907686D01*
X158785368Y-110820745D01*
X158725789Y-110650478D01*
X158629816Y-110497738D01*
X158502262Y-110370184D01*
X158482337Y-110357664D01*
X158349523Y-110274211D01*
X158179254Y-110214631D01*
X158179249Y-110214630D01*
X158000004Y-110194435D01*
X157999996Y-110194435D01*
X157820750Y-110214630D01*
X157820745Y-110214631D01*
X157650476Y-110274211D01*
X157497737Y-110370184D01*
X157370184Y-110497737D01*
X157274211Y-110650476D01*
X157214631Y-110820745D01*
X157214630Y-110820750D01*
X157194435Y-110999996D01*
X157194435Y-111000003D01*
X157214630Y-111179249D01*
X157214631Y-111179254D01*
X157274211Y-111349523D01*
X157306095Y-111400265D01*
X157370184Y-111502262D01*
X157497738Y-111629816D01*
X157650478Y-111725789D01*
X157820745Y-111785368D01*
X157907669Y-111795161D01*
X157972080Y-111822226D01*
X157981465Y-111830700D01*
X158615139Y-112464374D01*
X158615149Y-112464385D01*
X158619479Y-112468715D01*
X158619480Y-112468716D01*
X158731284Y-112580520D01*
X158731286Y-112580521D01*
X158731287Y-112580522D01*
X158801425Y-112621015D01*
X158801427Y-112621017D01*
X158801428Y-112621017D01*
X158868215Y-112659577D01*
X159020943Y-112700501D01*
X159020946Y-112700501D01*
X159125501Y-112700501D01*
X159192540Y-112720186D01*
X159238295Y-112772990D01*
X159249501Y-112824501D01*
X159249501Y-113647876D01*
X159255908Y-113707483D01*
X159306202Y-113842328D01*
X159306206Y-113842335D01*
X159392452Y-113957544D01*
X159392455Y-113957547D01*
X159507664Y-114043793D01*
X159507671Y-114043797D01*
X159642517Y-114094091D01*
X159642516Y-114094091D01*
X159649444Y-114094835D01*
X159702127Y-114100500D01*
X164297872Y-114100499D01*
X164357483Y-114094091D01*
X164492331Y-114043796D01*
X164607546Y-113957546D01*
X164693796Y-113842331D01*
X164744091Y-113707483D01*
X164750500Y-113647873D01*
X164750499Y-110552128D01*
X164744091Y-110492517D01*
X164693796Y-110357669D01*
X164693795Y-110357668D01*
X164693793Y-110357664D01*
X164607547Y-110242456D01*
X164607548Y-110242456D01*
X164607546Y-110242454D01*
X164549854Y-110199265D01*
X164507984Y-110143333D01*
X164503000Y-110073641D01*
X164536485Y-110012318D01*
X164549854Y-110000734D01*
X164607546Y-109957546D01*
X164693796Y-109842331D01*
X164744091Y-109707483D01*
X164750500Y-109647873D01*
X164750499Y-106552128D01*
X164744091Y-106492517D01*
X164713304Y-106409974D01*
X164693797Y-106357671D01*
X164693793Y-106357664D01*
X164607547Y-106242456D01*
X164607548Y-106242456D01*
X164607546Y-106242454D01*
X164549854Y-106199265D01*
X164507984Y-106143333D01*
X164503000Y-106073641D01*
X164536485Y-106012318D01*
X164549854Y-106000734D01*
X164607546Y-105957546D01*
X164693796Y-105842331D01*
X164744091Y-105707483D01*
X164750500Y-105647873D01*
X164750499Y-102552128D01*
X164744091Y-102492517D01*
X164742253Y-102487590D01*
X164693797Y-102357671D01*
X164693793Y-102357664D01*
X164607547Y-102242456D01*
X164607548Y-102242456D01*
X164607546Y-102242454D01*
X164549854Y-102199265D01*
X164507984Y-102143333D01*
X164503000Y-102073641D01*
X164536485Y-102012318D01*
X164549854Y-102000734D01*
X164607546Y-101957546D01*
X164693796Y-101842331D01*
X164744091Y-101707483D01*
X164750500Y-101647873D01*
X164750499Y-98552128D01*
X164744091Y-98492517D01*
X164717936Y-98422393D01*
X164693797Y-98357671D01*
X164693793Y-98357664D01*
X164607547Y-98242456D01*
X164607548Y-98242456D01*
X164607546Y-98242454D01*
X164549854Y-98199265D01*
X164507984Y-98143333D01*
X164503000Y-98073641D01*
X164536485Y-98012318D01*
X164549854Y-98000734D01*
X164607546Y-97957546D01*
X164645355Y-97907038D01*
X164701288Y-97865169D01*
X164770980Y-97860185D01*
X164832302Y-97893670D01*
X166213181Y-99274548D01*
X166246666Y-99335871D01*
X166249500Y-99362229D01*
X166249500Y-115137770D01*
X166229815Y-115204809D01*
X166213181Y-115225451D01*
X164225451Y-117213181D01*
X164164128Y-117246666D01*
X164137770Y-117249500D01*
X152862230Y-117249500D01*
X152795191Y-117229815D01*
X152774549Y-117213181D01*
X150786819Y-115225451D01*
X150753334Y-115164128D01*
X150750500Y-115137770D01*
X150750500Y-115052999D01*
X150770185Y-114985960D01*
X150822989Y-114940205D01*
X150874500Y-114928999D01*
X150897871Y-114928999D01*
X150897872Y-114928999D01*
X150957483Y-114922591D01*
X151092331Y-114872296D01*
X151207546Y-114786046D01*
X151293796Y-114670831D01*
X151342810Y-114539416D01*
X151384681Y-114483484D01*
X151450145Y-114459066D01*
X151518418Y-114473917D01*
X151546673Y-114495069D01*
X151668599Y-114616995D01*
X151765384Y-114684765D01*
X151862165Y-114752532D01*
X151862167Y-114752533D01*
X151862170Y-114752535D01*
X152076337Y-114852403D01*
X152304592Y-114913563D01*
X152481034Y-114929000D01*
X152539999Y-114934159D01*
X152540000Y-114934159D01*
X152540001Y-114934159D01*
X152598966Y-114929000D01*
X152775408Y-114913563D01*
X153003663Y-114852403D01*
X153217830Y-114752535D01*
X153411401Y-114616995D01*
X153578495Y-114449901D01*
X153714035Y-114256330D01*
X153813903Y-114042163D01*
X153875063Y-113813908D01*
X153895659Y-113578500D01*
X153875063Y-113343092D01*
X153813903Y-113114837D01*
X153714035Y-112900671D01*
X153669455Y-112837003D01*
X153578494Y-112707097D01*
X153411402Y-112540006D01*
X153411395Y-112540001D01*
X153217834Y-112404467D01*
X153217830Y-112404465D01*
X153217828Y-112404464D01*
X153003663Y-112304597D01*
X153003659Y-112304596D01*
X153003655Y-112304594D01*
X152775413Y-112243438D01*
X152775403Y-112243436D01*
X152540001Y-112222841D01*
X152539999Y-112222841D01*
X152304596Y-112243436D01*
X152304586Y-112243438D01*
X152076344Y-112304594D01*
X152076335Y-112304598D01*
X151862171Y-112404464D01*
X151862169Y-112404465D01*
X151668600Y-112540003D01*
X151546673Y-112661930D01*
X151485350Y-112695414D01*
X151415658Y-112690430D01*
X151359725Y-112648558D01*
X151342810Y-112617581D01*
X151293797Y-112486171D01*
X151293793Y-112486164D01*
X151207547Y-112370955D01*
X151207544Y-112370952D01*
X151092335Y-112284706D01*
X151092328Y-112284702D01*
X150957482Y-112234408D01*
X150957483Y-112234408D01*
X150897883Y-112228001D01*
X150897881Y-112228000D01*
X150897873Y-112228000D01*
X150897864Y-112228000D01*
X149102129Y-112228000D01*
X149102123Y-112228001D01*
X149042516Y-112234408D01*
X148907671Y-112284702D01*
X148907664Y-112284706D01*
X148792455Y-112370952D01*
X148792452Y-112370955D01*
X148706206Y-112486164D01*
X148706202Y-112486171D01*
X148655908Y-112621017D01*
X148649501Y-112680616D01*
X148649500Y-112680635D01*
X148649500Y-114476370D01*
X148649501Y-114476376D01*
X148655908Y-114535983D01*
X148706202Y-114670828D01*
X148706206Y-114670835D01*
X148792452Y-114786044D01*
X148792455Y-114786047D01*
X148907664Y-114872293D01*
X148907671Y-114872297D01*
X148952618Y-114889061D01*
X149042517Y-114922591D01*
X149102127Y-114929000D01*
X149125497Y-114928999D01*
X149192536Y-114948681D01*
X149238292Y-115001483D01*
X149249500Y-115052999D01*
X149249500Y-115573918D01*
X149249500Y-115573920D01*
X149249499Y-115573920D01*
X149278340Y-115718907D01*
X149278343Y-115718917D01*
X149334914Y-115855492D01*
X149367812Y-115904727D01*
X149367813Y-115904730D01*
X149417046Y-115978414D01*
X149417052Y-115978421D01*
X152021584Y-118582952D01*
X152021586Y-118582954D01*
X152051058Y-118602645D01*
X152095270Y-118632186D01*
X152144505Y-118665084D01*
X152144506Y-118665084D01*
X152144507Y-118665085D01*
X152144509Y-118665086D01*
X152281082Y-118721656D01*
X152281087Y-118721658D01*
X152281091Y-118721658D01*
X152281092Y-118721659D01*
X152426079Y-118750500D01*
X152426082Y-118750500D01*
X164573920Y-118750500D01*
X164671462Y-118731096D01*
X164718913Y-118721658D01*
X164855495Y-118665084D01*
X164904729Y-118632186D01*
X164904734Y-118632183D01*
X164929071Y-118615921D01*
X164978416Y-118582952D01*
X167582952Y-115978416D01*
X167632186Y-115904729D01*
X167665084Y-115855495D01*
X167721658Y-115718913D01*
X167744897Y-115602085D01*
X167750500Y-115573920D01*
X167750500Y-98926079D01*
X167721659Y-98781092D01*
X167721658Y-98781091D01*
X167721658Y-98781087D01*
X167696833Y-98721153D01*
X167665087Y-98644511D01*
X167665080Y-98644498D01*
X167582952Y-98521585D01*
X167553883Y-98492516D01*
X167478416Y-98417049D01*
X165399048Y-96337681D01*
X165365563Y-96276358D01*
X165370547Y-96206666D01*
X165399048Y-96162319D01*
X168582947Y-92978421D01*
X168582948Y-92978420D01*
X168582948Y-92978419D01*
X168582952Y-92978416D01*
X168661726Y-92860520D01*
X168661727Y-92860520D01*
X168661732Y-92860510D01*
X168665084Y-92855495D01*
X168721658Y-92718913D01*
X168750500Y-92573918D01*
X168750500Y-76176082D01*
X168750500Y-76176079D01*
X168721659Y-76031092D01*
X168721658Y-76031091D01*
X168721658Y-76031087D01*
X168707165Y-75996098D01*
X168665087Y-75894511D01*
X168665080Y-75894498D01*
X168582952Y-75771585D01*
X168570506Y-75759139D01*
X168478416Y-75667049D01*
X164786818Y-71975451D01*
X164753333Y-71914128D01*
X164750499Y-71887770D01*
X164750499Y-69452129D01*
X164750498Y-69452123D01*
X164750497Y-69452116D01*
X164744091Y-69392517D01*
X164727249Y-69347362D01*
X164693797Y-69257671D01*
X164693793Y-69257664D01*
X164607547Y-69142455D01*
X164607544Y-69142452D01*
X164492335Y-69056206D01*
X164492328Y-69056202D01*
X164357482Y-69005908D01*
X164357483Y-69005908D01*
X164297883Y-68999501D01*
X164297881Y-68999500D01*
X164297873Y-68999500D01*
X164297865Y-68999500D01*
X162874500Y-68999500D01*
X162807461Y-68979815D01*
X162761706Y-68927011D01*
X162750500Y-68875500D01*
X162750500Y-67426079D01*
X162721659Y-67281092D01*
X162721658Y-67281091D01*
X162721658Y-67281087D01*
X162679412Y-67179095D01*
X162665087Y-67144511D01*
X162665080Y-67144498D01*
X162582952Y-67021585D01*
X162582951Y-67021584D01*
X162478416Y-66917049D01*
X156786819Y-61225451D01*
X156753334Y-61164128D01*
X156750500Y-61137770D01*
X156750500Y-58365186D01*
X160599500Y-58365186D01*
X160599500Y-58634813D01*
X160629686Y-58902719D01*
X160629688Y-58902731D01*
X160689684Y-59165594D01*
X160689687Y-59165602D01*
X160778734Y-59420082D01*
X160895714Y-59662994D01*
X160895716Y-59662997D01*
X161039162Y-59891289D01*
X161207266Y-60102085D01*
X161397915Y-60292734D01*
X161608711Y-60460838D01*
X161837003Y-60604284D01*
X162079921Y-60721267D01*
X162271049Y-60788145D01*
X162334397Y-60810312D01*
X162334405Y-60810315D01*
X162334408Y-60810315D01*
X162334409Y-60810316D01*
X162597268Y-60870312D01*
X162865187Y-60900499D01*
X162865188Y-60900500D01*
X162865191Y-60900500D01*
X163134812Y-60900500D01*
X163134812Y-60900499D01*
X163402732Y-60870312D01*
X163665591Y-60810316D01*
X163920079Y-60721267D01*
X164162997Y-60604284D01*
X164391289Y-60460838D01*
X164602085Y-60292734D01*
X164792734Y-60102085D01*
X164960838Y-59891289D01*
X165104284Y-59662997D01*
X165221267Y-59420079D01*
X165310316Y-59165591D01*
X165370312Y-58902732D01*
X165400500Y-58634809D01*
X165400500Y-58365191D01*
X165370312Y-58097268D01*
X165310316Y-57834409D01*
X165221267Y-57579921D01*
X165136624Y-57404157D01*
X165104285Y-57337004D01*
X165050972Y-57252158D01*
X164960838Y-57108711D01*
X164792734Y-56897915D01*
X164602085Y-56707266D01*
X164391289Y-56539162D01*
X164162997Y-56395716D01*
X164162994Y-56395714D01*
X163920082Y-56278734D01*
X163665602Y-56189687D01*
X163665594Y-56189684D01*
X163468446Y-56144687D01*
X163402732Y-56129688D01*
X163402728Y-56129687D01*
X163402719Y-56129686D01*
X163134813Y-56099500D01*
X163134809Y-56099500D01*
X162865191Y-56099500D01*
X162865186Y-56099500D01*
X162597280Y-56129686D01*
X162597268Y-56129688D01*
X162334405Y-56189684D01*
X162334397Y-56189687D01*
X162079917Y-56278734D01*
X161837005Y-56395714D01*
X161608712Y-56539161D01*
X161397915Y-56707265D01*
X161207265Y-56897915D01*
X161039161Y-57108712D01*
X160895715Y-57337004D01*
X160778734Y-57579917D01*
X160689687Y-57834397D01*
X160689684Y-57834405D01*
X160629688Y-58097268D01*
X160629686Y-58097280D01*
X160599500Y-58365186D01*
X156750500Y-58365186D01*
X156750500Y-57426079D01*
X156732781Y-57337004D01*
X156732781Y-57337003D01*
X156721659Y-57281088D01*
X156667408Y-57150117D01*
X156665764Y-57145522D01*
X156582954Y-57021588D01*
X156582953Y-57021587D01*
X156582951Y-57021584D01*
X156478416Y-56917049D01*
X155750755Y-56189388D01*
X153478421Y-53917052D01*
X153478414Y-53917046D01*
X153404729Y-53867812D01*
X153404729Y-53867813D01*
X153355491Y-53834913D01*
X153218917Y-53778343D01*
X153218907Y-53778340D01*
X153073920Y-53749500D01*
X153073918Y-53749500D01*
X142926082Y-53749500D01*
X142926080Y-53749500D01*
X142781092Y-53778340D01*
X142781086Y-53778342D01*
X142644508Y-53834914D01*
X142644496Y-53834921D01*
X142595269Y-53867813D01*
X142521588Y-53917044D01*
X142521580Y-53917050D01*
X139917049Y-56521581D01*
X139882551Y-56573211D01*
X139882552Y-56573212D01*
X139834914Y-56644508D01*
X139778343Y-56781082D01*
X139778340Y-56781092D01*
X139749500Y-56926079D01*
X139749500Y-62965500D01*
X139729815Y-63032539D01*
X139677011Y-63078294D01*
X139625501Y-63089500D01*
X139452130Y-63089500D01*
X139452123Y-63089501D01*
X139392516Y-63095908D01*
X139257671Y-63146202D01*
X139257664Y-63146206D01*
X139142455Y-63232452D01*
X139142452Y-63232455D01*
X139056206Y-63347664D01*
X139056202Y-63347671D01*
X139005908Y-63482517D01*
X138999501Y-63542116D01*
X138999501Y-63542123D01*
X138999500Y-63542135D01*
X138999500Y-65337870D01*
X138999501Y-65337876D01*
X139005908Y-65397483D01*
X139056202Y-65532328D01*
X139056203Y-65532330D01*
X139133578Y-65635689D01*
X139157995Y-65701153D01*
X139143144Y-65769426D01*
X139133578Y-65784311D01*
X139056203Y-65887669D01*
X139056202Y-65887671D01*
X139005908Y-66022517D01*
X138999501Y-66082116D01*
X138999501Y-66082123D01*
X138999500Y-66082135D01*
X138999500Y-67877870D01*
X138999501Y-67877876D01*
X139005908Y-67937483D01*
X139056202Y-68072328D01*
X139056203Y-68072330D01*
X139133578Y-68175689D01*
X139157995Y-68241153D01*
X139143144Y-68309426D01*
X139133578Y-68324311D01*
X139056203Y-68427669D01*
X139056202Y-68427671D01*
X139005908Y-68562517D01*
X138999501Y-68622116D01*
X138999501Y-68622123D01*
X138999500Y-68622135D01*
X138999500Y-70417870D01*
X138999501Y-70417876D01*
X139005908Y-70477483D01*
X139056202Y-70612328D01*
X139056203Y-70612330D01*
X139133578Y-70715689D01*
X139157995Y-70781153D01*
X139143144Y-70849426D01*
X139133578Y-70864311D01*
X139056203Y-70967669D01*
X139056202Y-70967671D01*
X139005908Y-71102517D01*
X138999501Y-71162116D01*
X138999501Y-71162123D01*
X138999500Y-71162135D01*
X138999500Y-72957870D01*
X138999501Y-72957876D01*
X139005908Y-73017483D01*
X139056202Y-73152328D01*
X139056203Y-73152330D01*
X139133578Y-73255689D01*
X139157995Y-73321153D01*
X139143144Y-73389426D01*
X139133578Y-73404311D01*
X139056203Y-73507669D01*
X139056202Y-73507671D01*
X139005908Y-73642517D01*
X139000453Y-73693261D01*
X138999501Y-73702123D01*
X138999500Y-73702135D01*
X138999500Y-75497870D01*
X138999501Y-75497876D01*
X139005908Y-75557483D01*
X139056202Y-75692328D01*
X139056203Y-75692330D01*
X139056204Y-75692331D01*
X139106216Y-75759139D01*
X139133578Y-75795689D01*
X139157995Y-75861153D01*
X139143144Y-75929426D01*
X139133578Y-75944311D01*
X139056203Y-76047669D01*
X139056202Y-76047671D01*
X139005908Y-76182517D01*
X138999501Y-76242116D01*
X138999501Y-76242123D01*
X138999500Y-76242135D01*
X138999500Y-78037870D01*
X138999501Y-78037876D01*
X139005908Y-78097483D01*
X139056202Y-78232328D01*
X139056203Y-78232330D01*
X139133578Y-78335689D01*
X139157995Y-78401153D01*
X139143144Y-78469426D01*
X139133578Y-78484311D01*
X139056203Y-78587669D01*
X139056202Y-78587671D01*
X139005908Y-78722517D01*
X139000453Y-78773261D01*
X138999501Y-78782123D01*
X138999500Y-78782135D01*
X138999500Y-80279902D01*
X138979815Y-80346941D01*
X138963181Y-80367583D01*
X130859481Y-88471282D01*
X130859479Y-88471284D01*
X130845390Y-88495689D01*
X130831654Y-88519481D01*
X130802487Y-88570000D01*
X130780846Y-88607483D01*
X130780423Y-88608215D01*
X130739499Y-88760943D01*
X130739499Y-88760945D01*
X130739499Y-88929046D01*
X130739500Y-88929059D01*
X130739500Y-128561222D01*
X130719815Y-128628261D01*
X130671796Y-128671706D01*
X130619083Y-128698565D01*
X130531501Y-128762197D01*
X130443922Y-128825828D01*
X130443920Y-128825830D01*
X130443919Y-128825830D01*
X130290830Y-128978919D01*
X130290830Y-128978920D01*
X130290828Y-128978922D01*
X130182530Y-129127979D01*
X130170318Y-129144789D01*
X130114988Y-129187454D01*
X130045374Y-129193433D01*
X129983579Y-129160827D01*
X129969682Y-129144789D01*
X129965061Y-129138429D01*
X129849172Y-128978922D01*
X129696078Y-128825828D01*
X129520919Y-128698567D01*
X129456222Y-128665602D01*
X129328009Y-128600273D01*
X129328006Y-128600272D01*
X129122098Y-128533370D01*
X129015175Y-128516435D01*
X128908254Y-128499500D01*
X128691746Y-128499500D01*
X128620465Y-128510790D01*
X128477901Y-128533370D01*
X128271993Y-128600272D01*
X128271990Y-128600273D01*
X128079080Y-128698567D01*
X127979145Y-128771174D01*
X127903922Y-128825828D01*
X127903920Y-128825830D01*
X127903919Y-128825830D01*
X127750830Y-128978919D01*
X127750830Y-128978920D01*
X127750828Y-128978922D01*
X127642530Y-129127979D01*
X127630318Y-129144789D01*
X127574988Y-129187454D01*
X127505374Y-129193433D01*
X127443579Y-129160827D01*
X127429682Y-129144789D01*
X127425061Y-129138429D01*
X127309172Y-128978922D01*
X127156078Y-128825828D01*
X126980919Y-128698567D01*
X126980918Y-128698566D01*
X126980916Y-128698565D01*
X126928204Y-128671706D01*
X126877408Y-128623731D01*
X126860500Y-128561222D01*
X126860500Y-114349059D01*
X126860501Y-114349046D01*
X126860501Y-114180945D01*
X126860501Y-114180943D01*
X126819577Y-114028215D01*
X126778776Y-113957546D01*
X126740520Y-113891284D01*
X126628716Y-113779480D01*
X126628715Y-113779479D01*
X126624385Y-113775149D01*
X126624374Y-113775139D01*
X115987590Y-103138355D01*
X115987588Y-103138352D01*
X115868717Y-103019481D01*
X115868716Y-103019480D01*
X115781904Y-102969360D01*
X115781904Y-102969359D01*
X115781900Y-102969358D01*
X115731785Y-102940423D01*
X115579057Y-102899499D01*
X115420943Y-102899499D01*
X115413347Y-102899499D01*
X115413331Y-102899500D01*
X112800097Y-102899500D01*
X112733058Y-102879815D01*
X112712416Y-102863181D01*
X111636819Y-101787584D01*
X111603334Y-101726261D01*
X111600500Y-101699903D01*
X111600500Y-67930096D01*
X111620185Y-67863057D01*
X111636815Y-67842419D01*
X112387821Y-67091412D01*
X112449142Y-67057929D01*
X112518833Y-67062913D01*
X112574767Y-67104785D01*
X112599184Y-67170249D01*
X112599500Y-67179095D01*
X112599500Y-67877870D01*
X112599501Y-67877876D01*
X112605908Y-67937483D01*
X112656202Y-68072328D01*
X112656203Y-68072330D01*
X112733578Y-68175689D01*
X112757995Y-68241153D01*
X112743144Y-68309426D01*
X112733578Y-68324311D01*
X112656203Y-68427669D01*
X112656202Y-68427671D01*
X112605908Y-68562517D01*
X112599501Y-68622116D01*
X112599501Y-68622123D01*
X112599500Y-68622135D01*
X112599500Y-70417870D01*
X112599501Y-70417876D01*
X112605908Y-70477483D01*
X112656202Y-70612328D01*
X112656203Y-70612330D01*
X112733578Y-70715689D01*
X112757995Y-70781153D01*
X112743144Y-70849426D01*
X112733578Y-70864311D01*
X112656203Y-70967669D01*
X112656202Y-70967671D01*
X112605908Y-71102517D01*
X112599501Y-71162116D01*
X112599501Y-71162123D01*
X112599500Y-71162135D01*
X112599500Y-72957870D01*
X112599501Y-72957876D01*
X112605908Y-73017483D01*
X112656202Y-73152328D01*
X112656203Y-73152330D01*
X112733578Y-73255689D01*
X112757995Y-73321153D01*
X112743144Y-73389426D01*
X112733578Y-73404311D01*
X112656203Y-73507669D01*
X112656202Y-73507671D01*
X112605908Y-73642517D01*
X112600453Y-73693261D01*
X112599501Y-73702123D01*
X112599500Y-73702135D01*
X112599500Y-75497870D01*
X112599501Y-75497876D01*
X112605908Y-75557483D01*
X112656202Y-75692328D01*
X112656203Y-75692330D01*
X112656204Y-75692331D01*
X112706216Y-75759139D01*
X112733578Y-75795689D01*
X112757995Y-75861153D01*
X112743144Y-75929426D01*
X112733578Y-75944311D01*
X112656203Y-76047669D01*
X112656202Y-76047671D01*
X112605908Y-76182517D01*
X112599501Y-76242116D01*
X112599501Y-76242123D01*
X112599500Y-76242135D01*
X112599500Y-78037870D01*
X112599501Y-78037876D01*
X112605908Y-78097483D01*
X112656202Y-78232328D01*
X112656203Y-78232330D01*
X112733578Y-78335689D01*
X112757995Y-78401153D01*
X112743144Y-78469426D01*
X112733578Y-78484311D01*
X112656203Y-78587669D01*
X112656202Y-78587671D01*
X112605908Y-78722517D01*
X112600453Y-78773261D01*
X112599501Y-78782123D01*
X112599500Y-78782135D01*
X112599500Y-80577870D01*
X112599501Y-80577876D01*
X112605908Y-80637483D01*
X112656202Y-80772328D01*
X112656203Y-80772330D01*
X112656204Y-80772331D01*
X112706216Y-80839139D01*
X112733578Y-80875689D01*
X112757995Y-80941153D01*
X112743144Y-81009426D01*
X112733578Y-81024311D01*
X112656203Y-81127669D01*
X112656202Y-81127671D01*
X112605908Y-81262517D01*
X112603423Y-81285635D01*
X112599501Y-81322123D01*
X112599500Y-81322135D01*
X112599500Y-83117870D01*
X112599501Y-83117876D01*
X112605908Y-83177483D01*
X112656202Y-83312328D01*
X112656203Y-83312330D01*
X112733578Y-83415689D01*
X112757995Y-83481153D01*
X112743144Y-83549426D01*
X112733578Y-83564311D01*
X112656203Y-83667669D01*
X112656202Y-83667671D01*
X112605908Y-83802517D01*
X112599501Y-83862116D01*
X112599501Y-83862123D01*
X112599500Y-83862135D01*
X112599500Y-85657870D01*
X112599501Y-85657876D01*
X112605908Y-85717483D01*
X112656202Y-85852328D01*
X112656203Y-85852330D01*
X112733578Y-85955689D01*
X112757995Y-86021153D01*
X112743144Y-86089426D01*
X112733578Y-86104311D01*
X112656203Y-86207669D01*
X112656202Y-86207671D01*
X112605908Y-86342517D01*
X112600987Y-86388294D01*
X112599501Y-86402123D01*
X112599500Y-86402135D01*
X112599500Y-88197870D01*
X112599501Y-88197876D01*
X112605908Y-88257483D01*
X112656202Y-88392328D01*
X112656203Y-88392330D01*
X112733578Y-88495689D01*
X112757995Y-88561153D01*
X112743144Y-88629426D01*
X112733578Y-88644311D01*
X112656203Y-88747669D01*
X112656202Y-88747671D01*
X112605908Y-88882517D01*
X112600906Y-88929046D01*
X112599501Y-88942123D01*
X112599500Y-88942135D01*
X112599500Y-90737870D01*
X112599501Y-90737876D01*
X112605908Y-90797483D01*
X112656202Y-90932328D01*
X112656203Y-90932330D01*
X112733578Y-91035689D01*
X112757995Y-91101153D01*
X112743144Y-91169426D01*
X112733578Y-91184311D01*
X112656203Y-91287669D01*
X112656202Y-91287671D01*
X112605908Y-91422517D01*
X112599673Y-91480518D01*
X112599501Y-91482123D01*
X112599500Y-91482135D01*
X112599500Y-93277870D01*
X112599501Y-93277876D01*
X112605908Y-93337483D01*
X112656202Y-93472328D01*
X112656203Y-93472330D01*
X112733578Y-93575689D01*
X112757995Y-93641153D01*
X112743144Y-93709426D01*
X112733578Y-93724311D01*
X112656203Y-93827669D01*
X112656202Y-93827671D01*
X112605908Y-93962517D01*
X112599501Y-94022116D01*
X112599501Y-94022123D01*
X112599500Y-94022135D01*
X112599500Y-95817870D01*
X112599501Y-95817876D01*
X112605908Y-95877483D01*
X112656202Y-96012328D01*
X112656203Y-96012330D01*
X112733578Y-96115689D01*
X112757995Y-96181153D01*
X112743144Y-96249426D01*
X112733578Y-96264311D01*
X112656203Y-96367669D01*
X112656202Y-96367671D01*
X112605908Y-96502517D01*
X112599501Y-96562116D01*
X112599501Y-96562123D01*
X112599500Y-96562135D01*
X112599500Y-98357870D01*
X112599501Y-98357876D01*
X112605908Y-98417483D01*
X112656202Y-98552328D01*
X112656203Y-98552330D01*
X112656204Y-98552331D01*
X112725205Y-98644505D01*
X112733578Y-98655689D01*
X112757995Y-98721153D01*
X112743144Y-98789426D01*
X112733578Y-98804311D01*
X112656203Y-98907669D01*
X112656202Y-98907671D01*
X112605908Y-99042517D01*
X112599501Y-99102116D01*
X112599501Y-99102123D01*
X112599500Y-99102135D01*
X112599500Y-100897870D01*
X112599501Y-100897876D01*
X112605908Y-100957483D01*
X112656202Y-101092328D01*
X112656206Y-101092335D01*
X112742452Y-101207544D01*
X112742455Y-101207547D01*
X112857664Y-101293793D01*
X112857671Y-101293797D01*
X112992517Y-101344091D01*
X112992516Y-101344091D01*
X112999444Y-101344835D01*
X113052127Y-101350500D01*
X116147872Y-101350499D01*
X116207483Y-101344091D01*
X116342331Y-101293796D01*
X116457546Y-101207546D01*
X116543796Y-101092331D01*
X116594091Y-100957483D01*
X116600500Y-100897873D01*
X116600499Y-99102128D01*
X116594091Y-99042517D01*
X116573534Y-98987402D01*
X116543797Y-98907671D01*
X116543795Y-98907668D01*
X116466421Y-98804309D01*
X116442004Y-98738848D01*
X116456855Y-98670575D01*
X116466416Y-98655696D01*
X116543796Y-98552331D01*
X116594091Y-98417483D01*
X116600500Y-98357873D01*
X116600499Y-96562128D01*
X116594091Y-96502517D01*
X116543796Y-96367669D01*
X116466421Y-96264309D01*
X116442004Y-96198848D01*
X116456855Y-96130575D01*
X116466416Y-96115696D01*
X116543796Y-96012331D01*
X116594091Y-95877483D01*
X116600500Y-95817873D01*
X116600499Y-94022128D01*
X116594091Y-93962517D01*
X116543796Y-93827669D01*
X116466421Y-93724309D01*
X116442004Y-93658848D01*
X116456855Y-93590575D01*
X116466416Y-93575696D01*
X116543796Y-93472331D01*
X116594091Y-93337483D01*
X116600500Y-93277873D01*
X116600499Y-91482128D01*
X116594091Y-91422517D01*
X116574023Y-91368713D01*
X116543797Y-91287671D01*
X116543795Y-91287668D01*
X116466421Y-91184309D01*
X116442004Y-91118848D01*
X116456855Y-91050575D01*
X116466416Y-91035696D01*
X116543796Y-90932331D01*
X116594091Y-90797483D01*
X116600500Y-90737873D01*
X116600499Y-88942128D01*
X116594091Y-88882517D01*
X116584777Y-88857546D01*
X116543797Y-88747671D01*
X116543795Y-88747668D01*
X116539800Y-88742331D01*
X116466421Y-88644309D01*
X116442004Y-88578848D01*
X116456855Y-88510575D01*
X116466416Y-88495696D01*
X116543796Y-88392331D01*
X116594091Y-88257483D01*
X116600500Y-88197873D01*
X116600499Y-86402128D01*
X116594091Y-86342517D01*
X116569095Y-86275500D01*
X116543797Y-86207671D01*
X116543795Y-86207668D01*
X116466421Y-86104309D01*
X116442004Y-86038848D01*
X116456855Y-85970575D01*
X116466416Y-85955696D01*
X116543796Y-85852331D01*
X116594091Y-85717483D01*
X116600500Y-85657873D01*
X116600499Y-83862128D01*
X116594091Y-83802517D01*
X116543796Y-83667669D01*
X116466421Y-83564309D01*
X116442004Y-83498848D01*
X116456855Y-83430575D01*
X116466416Y-83415696D01*
X116543796Y-83312331D01*
X116594091Y-83177483D01*
X116600500Y-83117873D01*
X116600499Y-81322128D01*
X116594091Y-81262517D01*
X116580747Y-81226741D01*
X116543797Y-81127671D01*
X116543795Y-81127668D01*
X116490297Y-81056204D01*
X116466421Y-81024309D01*
X116442004Y-80958848D01*
X116456855Y-80890575D01*
X116466416Y-80875696D01*
X116543796Y-80772331D01*
X116594091Y-80637483D01*
X116600500Y-80577873D01*
X116600499Y-78782128D01*
X116594091Y-78722517D01*
X116586557Y-78702318D01*
X116543797Y-78587671D01*
X116543795Y-78587668D01*
X116466421Y-78484309D01*
X116442004Y-78418848D01*
X116456855Y-78350575D01*
X116466416Y-78335696D01*
X116543796Y-78232331D01*
X116594091Y-78097483D01*
X116600500Y-78037873D01*
X116600499Y-76242128D01*
X116594091Y-76182517D01*
X116570039Y-76118031D01*
X116543797Y-76047671D01*
X116543795Y-76047668D01*
X116466421Y-75944309D01*
X116442004Y-75878848D01*
X116456855Y-75810575D01*
X116466416Y-75795696D01*
X116543796Y-75692331D01*
X116594091Y-75557483D01*
X116600500Y-75497873D01*
X116600499Y-73702128D01*
X116594091Y-73642517D01*
X116583653Y-73614532D01*
X116543797Y-73507671D01*
X116543795Y-73507668D01*
X116502217Y-73452127D01*
X116466421Y-73404309D01*
X116442004Y-73338848D01*
X116456855Y-73270575D01*
X116466416Y-73255696D01*
X116543796Y-73152331D01*
X116594091Y-73017483D01*
X116600500Y-72957873D01*
X116600499Y-71162128D01*
X116594091Y-71102517D01*
X116543796Y-70967669D01*
X116466421Y-70864309D01*
X116442004Y-70798848D01*
X116456855Y-70730575D01*
X116466416Y-70715696D01*
X116543796Y-70612331D01*
X116594091Y-70477483D01*
X116600500Y-70417873D01*
X116600499Y-68622128D01*
X116594091Y-68562517D01*
X116543796Y-68427669D01*
X116466421Y-68324309D01*
X116442004Y-68258848D01*
X116456855Y-68190575D01*
X116466416Y-68175696D01*
X116543796Y-68072331D01*
X116594091Y-67937483D01*
X116600500Y-67877873D01*
X116600499Y-66082128D01*
X116594091Y-66022517D01*
X116592958Y-66019480D01*
X116543797Y-65887671D01*
X116543795Y-65887668D01*
X116466421Y-65784309D01*
X116442004Y-65718848D01*
X116456855Y-65650575D01*
X116466416Y-65635696D01*
X116543796Y-65532331D01*
X116594091Y-65397483D01*
X116600500Y-65337873D01*
X116600499Y-63542128D01*
X116594091Y-63482517D01*
X116543796Y-63347669D01*
X116543795Y-63347668D01*
X116543793Y-63347664D01*
X116457547Y-63232455D01*
X116457544Y-63232452D01*
X116342335Y-63146206D01*
X116342328Y-63146202D01*
X116207482Y-63095908D01*
X116207483Y-63095908D01*
X116147883Y-63089501D01*
X116147881Y-63089500D01*
X116147873Y-63089500D01*
X116147864Y-63089500D01*
X113052129Y-63089500D01*
X113052123Y-63089501D01*
X112992516Y-63095908D01*
X112857671Y-63146202D01*
X112857664Y-63146206D01*
X112742455Y-63232452D01*
X112742452Y-63232455D01*
X112656206Y-63347664D01*
X112656202Y-63347671D01*
X112605908Y-63482517D01*
X112599501Y-63542116D01*
X112599501Y-63542123D01*
X112599500Y-63542135D01*
X112599500Y-65129902D01*
X112579815Y-65196941D01*
X112563181Y-65217583D01*
X110519481Y-67261282D01*
X110519479Y-67261284D01*
X110511831Y-67274532D01*
X110500381Y-67294365D01*
X110440423Y-67398215D01*
X110399499Y-67550943D01*
X110399499Y-67550945D01*
X110399499Y-67719046D01*
X110399500Y-67719059D01*
X110399500Y-101913330D01*
X110399499Y-101913348D01*
X110399499Y-102079054D01*
X110399498Y-102079054D01*
X110399499Y-102079057D01*
X110440423Y-102231785D01*
X110440424Y-102231787D01*
X110440423Y-102231787D01*
X110446583Y-102242455D01*
X110446584Y-102242456D01*
X110519477Y-102368712D01*
X110519481Y-102368717D01*
X110638349Y-102487585D01*
X110638355Y-102487590D01*
X112015139Y-103864374D01*
X112015149Y-103864385D01*
X112019479Y-103868715D01*
X112019480Y-103868716D01*
X112131284Y-103980520D01*
X112131286Y-103980521D01*
X112131290Y-103980524D01*
X112268209Y-104059573D01*
X112268216Y-104059577D01*
X112380019Y-104089534D01*
X112420942Y-104100500D01*
X112420943Y-104100500D01*
X115199903Y-104100500D01*
X115266942Y-104120185D01*
X115287584Y-104136819D01*
X125623181Y-114472416D01*
X125656666Y-114533739D01*
X125659500Y-114560097D01*
X125659500Y-128561222D01*
X125639815Y-128628261D01*
X125591796Y-128671706D01*
X125539083Y-128698565D01*
X125451501Y-128762197D01*
X125363922Y-128825828D01*
X125363920Y-128825830D01*
X125363919Y-128825830D01*
X125210830Y-128978919D01*
X125210830Y-128978920D01*
X125210828Y-128978922D01*
X125156174Y-129054145D01*
X125083567Y-129154080D01*
X124985273Y-129346990D01*
X124985272Y-129346993D01*
X124918370Y-129552901D01*
X124918370Y-129552903D01*
X124884500Y-129766746D01*
X124884500Y-131233254D01*
X124893285Y-131288717D01*
X124918370Y-131447098D01*
X124985272Y-131653006D01*
X124985273Y-131653009D01*
X125066562Y-131812545D01*
X125083567Y-131845919D01*
X125210828Y-132021078D01*
X125363922Y-132174172D01*
X125539081Y-132301433D01*
X125633697Y-132349642D01*
X125731990Y-132399726D01*
X125731993Y-132399727D01*
X125789018Y-132418255D01*
X125937903Y-132466630D01*
X126151746Y-132500500D01*
X126151747Y-132500500D01*
X126368253Y-132500500D01*
X126368254Y-132500500D01*
X126582097Y-132466630D01*
X126788009Y-132399726D01*
X126980919Y-132301433D01*
X127156078Y-132174172D01*
X127309172Y-132021078D01*
X127429683Y-131855208D01*
X127485012Y-131812545D01*
X127554625Y-131806566D01*
X127616420Y-131839172D01*
X127630313Y-131855205D01*
X127750828Y-132021078D01*
X127903922Y-132174172D01*
X128079081Y-132301433D01*
X128173697Y-132349642D01*
X128271990Y-132399726D01*
X128271993Y-132399727D01*
X128329018Y-132418255D01*
X128477903Y-132466630D01*
X128691746Y-132500500D01*
X128691747Y-132500500D01*
X128908253Y-132500500D01*
X128908254Y-132500500D01*
X129122097Y-132466630D01*
X129328009Y-132399726D01*
X129520919Y-132301433D01*
X129696078Y-132174172D01*
X129849172Y-132021078D01*
X129969683Y-131855208D01*
X130025012Y-131812545D01*
X130094625Y-131806566D01*
X130156420Y-131839172D01*
X130170313Y-131855205D01*
X130290828Y-132021078D01*
X130443922Y-132174172D01*
X130619081Y-132301433D01*
X130713697Y-132349642D01*
X130811990Y-132399726D01*
X130811993Y-132399727D01*
X130869018Y-132418255D01*
X131017903Y-132466630D01*
X131231746Y-132500500D01*
X131231747Y-132500500D01*
X131448253Y-132500500D01*
X131448254Y-132500500D01*
X131662097Y-132466630D01*
X131868009Y-132399726D01*
X132060919Y-132301433D01*
X132236078Y-132174172D01*
X132389172Y-132021078D01*
X132509683Y-131855208D01*
X132565012Y-131812545D01*
X132634625Y-131806566D01*
X132696420Y-131839172D01*
X132710313Y-131855205D01*
X132830828Y-132021078D01*
X132983922Y-132174172D01*
X133159081Y-132301433D01*
X133253697Y-132349642D01*
X133351990Y-132399726D01*
X133351993Y-132399727D01*
X133409018Y-132418255D01*
X133557903Y-132466630D01*
X133771746Y-132500500D01*
X133771747Y-132500500D01*
X133988253Y-132500500D01*
X133988254Y-132500500D01*
X134202097Y-132466630D01*
X134408009Y-132399726D01*
X134600919Y-132301433D01*
X134776078Y-132174172D01*
X134929172Y-132021078D01*
X135049683Y-131855208D01*
X135105012Y-131812545D01*
X135174625Y-131806566D01*
X135236420Y-131839172D01*
X135250313Y-131855205D01*
X135370828Y-132021078D01*
X135523922Y-132174172D01*
X135699081Y-132301433D01*
X135793697Y-132349642D01*
X135891990Y-132399726D01*
X135891993Y-132399727D01*
X135949018Y-132418255D01*
X136097903Y-132466630D01*
X136311746Y-132500500D01*
X136311747Y-132500500D01*
X136528253Y-132500500D01*
X136528254Y-132500500D01*
X136742097Y-132466630D01*
X136948009Y-132399726D01*
X137140919Y-132301433D01*
X137316078Y-132174172D01*
X137469172Y-132021078D01*
X137589683Y-131855208D01*
X137645012Y-131812545D01*
X137714625Y-131806566D01*
X137776420Y-131839172D01*
X137790313Y-131855205D01*
X137910828Y-132021078D01*
X137910829Y-132021079D01*
X137910830Y-132021080D01*
X137932576Y-132042826D01*
X137966061Y-132104149D01*
X137961077Y-132173841D01*
X137932576Y-132218188D01*
X137287584Y-132863181D01*
X137226261Y-132896666D01*
X137199903Y-132899500D01*
X118300097Y-132899500D01*
X118233058Y-132879815D01*
X118212416Y-132863181D01*
X116056819Y-130707584D01*
X116023334Y-130646261D01*
X116020500Y-130619903D01*
X116020500Y-126874499D01*
X116040185Y-126807460D01*
X116092989Y-126761705D01*
X116144500Y-126750499D01*
X116342871Y-126750499D01*
X116342872Y-126750499D01*
X116402483Y-126744091D01*
X116537331Y-126693796D01*
X116615689Y-126635136D01*
X116681153Y-126610720D01*
X116749426Y-126625571D01*
X116764311Y-126635137D01*
X116842669Y-126693796D01*
X116842671Y-126693797D01*
X116887618Y-126710561D01*
X116977517Y-126744091D01*
X117037127Y-126750500D01*
X117085500Y-126750499D01*
X117152537Y-126770182D01*
X117198293Y-126822985D01*
X117209500Y-126874499D01*
X117209500Y-127341761D01*
X117189815Y-127408800D01*
X117181354Y-127420425D01*
X117164090Y-127441461D01*
X117164086Y-127441467D01*
X117071188Y-127615266D01*
X117013975Y-127803870D01*
X116994659Y-128000000D01*
X117013975Y-128196129D01*
X117071188Y-128384733D01*
X117164086Y-128558532D01*
X117164090Y-128558539D01*
X117289116Y-128710883D01*
X117441460Y-128835909D01*
X117441467Y-128835913D01*
X117615266Y-128928811D01*
X117615269Y-128928811D01*
X117615273Y-128928814D01*
X117803868Y-128986024D01*
X118000000Y-129005341D01*
X118196132Y-128986024D01*
X118384727Y-128928814D01*
X118401064Y-128920082D01*
X118558532Y-128835913D01*
X118558538Y-128835910D01*
X118710883Y-128710883D01*
X118835910Y-128558538D01*
X118928814Y-128384727D01*
X118986024Y-128196132D01*
X119005341Y-128000000D01*
X118986024Y-127803868D01*
X118928814Y-127615273D01*
X118928811Y-127615269D01*
X118928811Y-127615266D01*
X118835913Y-127441467D01*
X118835909Y-127441460D01*
X118738647Y-127322947D01*
X118711334Y-127258637D01*
X118710500Y-127244282D01*
X118710500Y-126874499D01*
X118730185Y-126807460D01*
X118782989Y-126761705D01*
X118834500Y-126750499D01*
X118882871Y-126750499D01*
X118882872Y-126750499D01*
X118942483Y-126744091D01*
X119077331Y-126693796D01*
X119155689Y-126635136D01*
X119221153Y-126610720D01*
X119289426Y-126625571D01*
X119304311Y-126635137D01*
X119382669Y-126693796D01*
X119382671Y-126693797D01*
X119517517Y-126744091D01*
X119517516Y-126744091D01*
X119524444Y-126744835D01*
X119577127Y-126750500D01*
X121422872Y-126750499D01*
X121482483Y-126744091D01*
X121617331Y-126693796D01*
X121732546Y-126607546D01*
X121818796Y-126492331D01*
X121869091Y-126357483D01*
X121875500Y-126297873D01*
X121875499Y-125507533D01*
X121895183Y-125440495D01*
X121947987Y-125394740D01*
X122017146Y-125384796D01*
X122057952Y-125398176D01*
X122115266Y-125428811D01*
X122115269Y-125428811D01*
X122115273Y-125428814D01*
X122303868Y-125486024D01*
X122500000Y-125505341D01*
X122696132Y-125486024D01*
X122884727Y-125428814D01*
X123058538Y-125335910D01*
X123210883Y-125210883D01*
X123335910Y-125058538D01*
X123428814Y-124884727D01*
X123486024Y-124696132D01*
X123505341Y-124500000D01*
X123486024Y-124303868D01*
X123428814Y-124115273D01*
X123428811Y-124115269D01*
X123428811Y-124115266D01*
X123335913Y-123941467D01*
X123335909Y-123941460D01*
X123210883Y-123789116D01*
X123058539Y-123664090D01*
X123058532Y-123664086D01*
X122884733Y-123571188D01*
X122884727Y-123571186D01*
X122696132Y-123513976D01*
X122696129Y-123513975D01*
X122500000Y-123494659D01*
X122303870Y-123513975D01*
X122115266Y-123571188D01*
X122057952Y-123601824D01*
X121989549Y-123616066D01*
X121924305Y-123591066D01*
X121882935Y-123534761D01*
X121875499Y-123492466D01*
X121875499Y-122702129D01*
X121875498Y-122702123D01*
X121875497Y-122702116D01*
X121869091Y-122642517D01*
X121818796Y-122507669D01*
X121818795Y-122507668D01*
X121818793Y-122507664D01*
X121732547Y-122392455D01*
X121732544Y-122392452D01*
X121617335Y-122306206D01*
X121617328Y-122306202D01*
X121482482Y-122255908D01*
X121482483Y-122255908D01*
X121422883Y-122249501D01*
X121422881Y-122249500D01*
X121422873Y-122249500D01*
X121422864Y-122249500D01*
X119577129Y-122249500D01*
X119577123Y-122249501D01*
X119517516Y-122255908D01*
X119382671Y-122306202D01*
X119382669Y-122306203D01*
X119304311Y-122364863D01*
X119238847Y-122389280D01*
X119170574Y-122374429D01*
X119155689Y-122364863D01*
X119077330Y-122306203D01*
X119077328Y-122306202D01*
X118942482Y-122255908D01*
X118942483Y-122255908D01*
X118882883Y-122249501D01*
X118882881Y-122249500D01*
X118882873Y-122249500D01*
X118882864Y-122249500D01*
X117037129Y-122249500D01*
X117037123Y-122249501D01*
X116977516Y-122255908D01*
X116842671Y-122306202D01*
X116842669Y-122306203D01*
X116764311Y-122364863D01*
X116698847Y-122389280D01*
X116630574Y-122374429D01*
X116615689Y-122364863D01*
X116537330Y-122306203D01*
X116537328Y-122306202D01*
X116402482Y-122255908D01*
X116402483Y-122255908D01*
X116342883Y-122249501D01*
X116342881Y-122249500D01*
X116342873Y-122249500D01*
X116342864Y-122249500D01*
X114497129Y-122249500D01*
X114497123Y-122249501D01*
X114437516Y-122255908D01*
X114302671Y-122306202D01*
X114302669Y-122306203D01*
X114224311Y-122364863D01*
X114158847Y-122389280D01*
X114090574Y-122374429D01*
X114075689Y-122364863D01*
X113997330Y-122306203D01*
X113997328Y-122306202D01*
X113862482Y-122255908D01*
X113862483Y-122255908D01*
X113802883Y-122249501D01*
X113802881Y-122249500D01*
X113802873Y-122249500D01*
X113802864Y-122249500D01*
X111957129Y-122249500D01*
X111957123Y-122249501D01*
X111897516Y-122255908D01*
X111762671Y-122306202D01*
X111762664Y-122306206D01*
X111647455Y-122392452D01*
X111647452Y-122392455D01*
X111561206Y-122507664D01*
X111561202Y-122507671D01*
X111510908Y-122642517D01*
X111504501Y-122702116D01*
X111504501Y-122702123D01*
X111504500Y-122702135D01*
X111504500Y-126297870D01*
X111504501Y-126297876D01*
X111510908Y-126357483D01*
X111561202Y-126492328D01*
X111561206Y-126492335D01*
X111647452Y-126607544D01*
X111647455Y-126607547D01*
X111762664Y-126693793D01*
X111762671Y-126693797D01*
X111807618Y-126710561D01*
X111897517Y-126744091D01*
X111957127Y-126750500D01*
X112155500Y-126750499D01*
X112222539Y-126770183D01*
X112268294Y-126822987D01*
X112279500Y-126874499D01*
X112279500Y-130793330D01*
X112279499Y-130793348D01*
X112279499Y-130959054D01*
X112279498Y-130959054D01*
X112290216Y-130999054D01*
X112320423Y-131111785D01*
X112320424Y-131111786D01*
X112331680Y-131131284D01*
X112331681Y-131131285D01*
X112399475Y-131248709D01*
X112399481Y-131248717D01*
X112518349Y-131367585D01*
X112518355Y-131367590D01*
X116015139Y-134864374D01*
X116015149Y-134864385D01*
X116019479Y-134868715D01*
X116019480Y-134868716D01*
X116131284Y-134980520D01*
X116218095Y-135030639D01*
X116218097Y-135030641D01*
X116256151Y-135052611D01*
X116268215Y-135059577D01*
X116295887Y-135066991D01*
X116355547Y-135103356D01*
X116386076Y-135166203D01*
X116377781Y-135235578D01*
X116333296Y-135289456D01*
X116266744Y-135310731D01*
X116264511Y-135310764D01*
X110125218Y-135346326D01*
X110058066Y-135327030D01*
X110012006Y-135274492D01*
X110000500Y-135222328D01*
X110000500Y-113865186D01*
X113599500Y-113865186D01*
X113599500Y-114134813D01*
X113629686Y-114402719D01*
X113629688Y-114402731D01*
X113689684Y-114665594D01*
X113689687Y-114665602D01*
X113778734Y-114920082D01*
X113895714Y-115162994D01*
X113895716Y-115162997D01*
X114039162Y-115391289D01*
X114164573Y-115548549D01*
X114184803Y-115573918D01*
X114207266Y-115602085D01*
X114397915Y-115792734D01*
X114608711Y-115960838D01*
X114837003Y-116104284D01*
X115079921Y-116221267D01*
X115271049Y-116288145D01*
X115334397Y-116310312D01*
X115334405Y-116310315D01*
X115334408Y-116310315D01*
X115334409Y-116310316D01*
X115597268Y-116370312D01*
X115865187Y-116400499D01*
X115865188Y-116400500D01*
X115865191Y-116400500D01*
X116134812Y-116400500D01*
X116134812Y-116400499D01*
X116402732Y-116370312D01*
X116665591Y-116310316D01*
X116920079Y-116221267D01*
X117162997Y-116104284D01*
X117391289Y-115960838D01*
X117602085Y-115792734D01*
X117792734Y-115602085D01*
X117960838Y-115391289D01*
X118104284Y-115162997D01*
X118221267Y-114920079D01*
X118310316Y-114665591D01*
X118370312Y-114402732D01*
X118400500Y-114134809D01*
X118400500Y-113865191D01*
X118370312Y-113597268D01*
X118310316Y-113334409D01*
X118221267Y-113079921D01*
X118104284Y-112837003D01*
X117960838Y-112608711D01*
X117792734Y-112397915D01*
X117602085Y-112207266D01*
X117391289Y-112039162D01*
X117162997Y-111895716D01*
X117162994Y-111895714D01*
X116920082Y-111778734D01*
X116665602Y-111689687D01*
X116665594Y-111689684D01*
X116468446Y-111644687D01*
X116402732Y-111629688D01*
X116402728Y-111629687D01*
X116402719Y-111629686D01*
X116134813Y-111599500D01*
X116134809Y-111599500D01*
X115865191Y-111599500D01*
X115865186Y-111599500D01*
X115597280Y-111629686D01*
X115597268Y-111629688D01*
X115334405Y-111689684D01*
X115334397Y-111689687D01*
X115079917Y-111778734D01*
X114837005Y-111895714D01*
X114608712Y-112039161D01*
X114397915Y-112207265D01*
X114207265Y-112397915D01*
X114039161Y-112608712D01*
X113895714Y-112837005D01*
X113778734Y-113079917D01*
X113689687Y-113334397D01*
X113689684Y-113334405D01*
X113629688Y-113597268D01*
X113629686Y-113597280D01*
X113599500Y-113865186D01*
X110000500Y-113865186D01*
X110000500Y-56865186D01*
X113599500Y-56865186D01*
X113599500Y-57134813D01*
X113629686Y-57402719D01*
X113629687Y-57402728D01*
X113629688Y-57402732D01*
X113644687Y-57468446D01*
X113689684Y-57665594D01*
X113689687Y-57665602D01*
X113778734Y-57920082D01*
X113895714Y-58162994D01*
X113895716Y-58162997D01*
X114039162Y-58391289D01*
X114207266Y-58602085D01*
X114397915Y-58792734D01*
X114608711Y-58960838D01*
X114837003Y-59104284D01*
X115079921Y-59221267D01*
X115271049Y-59288145D01*
X115334397Y-59310312D01*
X115334405Y-59310315D01*
X115334408Y-59310315D01*
X115334409Y-59310316D01*
X115597268Y-59370312D01*
X115865187Y-59400499D01*
X115865188Y-59400500D01*
X115865191Y-59400500D01*
X116134812Y-59400500D01*
X116134812Y-59400499D01*
X116402732Y-59370312D01*
X116665591Y-59310316D01*
X116920079Y-59221267D01*
X117162997Y-59104284D01*
X117391289Y-58960838D01*
X117602085Y-58792734D01*
X117792734Y-58602085D01*
X117960838Y-58391289D01*
X118104284Y-58162997D01*
X118221267Y-57920079D01*
X118310316Y-57665591D01*
X118370312Y-57402732D01*
X118400500Y-57134809D01*
X118400500Y-56865191D01*
X118370312Y-56597268D01*
X118310316Y-56334409D01*
X118221267Y-56079921D01*
X118104284Y-55837003D01*
X117960838Y-55608711D01*
X117792734Y-55397915D01*
X117602085Y-55207266D01*
X117391289Y-55039162D01*
X117162997Y-54895716D01*
X117162994Y-54895714D01*
X116920082Y-54778734D01*
X116665602Y-54689687D01*
X116665594Y-54689684D01*
X116468446Y-54644687D01*
X116402732Y-54629688D01*
X116402728Y-54629687D01*
X116402719Y-54629686D01*
X116134813Y-54599500D01*
X116134809Y-54599500D01*
X115865191Y-54599500D01*
X115865186Y-54599500D01*
X115597280Y-54629686D01*
X115597268Y-54629688D01*
X115334405Y-54689684D01*
X115334397Y-54689687D01*
X115079917Y-54778734D01*
X114837005Y-54895714D01*
X114608712Y-55039161D01*
X114397915Y-55207265D01*
X114207265Y-55397915D01*
X114039161Y-55608712D01*
X113895714Y-55837005D01*
X113778734Y-56079917D01*
X113689687Y-56334397D01*
X113689684Y-56334405D01*
X113629688Y-56597268D01*
X113629686Y-56597280D01*
X113599500Y-56865186D01*
X110000500Y-56865186D01*
X110000500Y-53124500D01*
X110020185Y-53057461D01*
X110072989Y-53011706D01*
X110124500Y-53000500D01*
X169375500Y-53000500D01*
X169442539Y-53020185D01*
G37*
%TD.AperFunction*%
M02*
