%TF.GenerationSoftware,KiCad,Pcbnew,8.0.4*%
%TF.CreationDate,2024-12-05T15:49:58-05:00*%
%TF.ProjectId,CVTPCB,43565450-4342-42e6-9b69-6361645f7063,rev?*%
%TF.SameCoordinates,Original*%
%TF.FileFunction,Soldermask,Top*%
%TF.FilePolarity,Negative*%
%FSLAX46Y46*%
G04 Gerber Fmt 4.6, Leading zero omitted, Abs format (unit mm)*
G04 Created by KiCad (PCBNEW 8.0.4) date 2024-12-05 15:49:58*
%MOMM*%
%LPD*%
G01*
G04 APERTURE LIST*
%ADD10C,2.400000*%
%ADD11O,2.400000X2.400000*%
%ADD12C,1.600000*%
%ADD13O,1.600000X1.600000*%
%ADD14R,1.700000X1.700000*%
%ADD15O,1.700000X1.700000*%
%ADD16C,4.300000*%
%ADD17O,1.750000X3.000000*%
%ADD18R,1.750000X3.500000*%
%ADD19R,3.000000X1.700000*%
%ADD20R,1.500000X1.500000*%
%ADD21R,4.500000X3.000000*%
%ADD22C,1.260000*%
G04 APERTURE END LIST*
D10*
%TO.C,R4*%
X146500000Y-69850000D03*
D11*
X146500000Y-57150000D03*
%TD*%
D12*
%TO.C,R3*%
X152000000Y-68580000D03*
D13*
X152000000Y-58420000D03*
%TD*%
D14*
%TO.C,J4*%
X150000000Y-113578500D03*
D15*
X152540000Y-113578500D03*
D14*
X150000000Y-131612500D03*
D15*
X152540000Y-131612500D03*
%TD*%
D16*
%TO.C,H4*%
X116000000Y-57000000D03*
%TD*%
D17*
%TO.C,U4*%
X126260000Y-130500000D03*
X128800000Y-130500000D03*
X131340000Y-130500000D03*
X133880000Y-130500000D03*
X136420000Y-130500000D03*
X138960000Y-130500000D03*
X141500000Y-130500000D03*
%TD*%
D16*
%TO.C,H2*%
X116000000Y-114000000D03*
%TD*%
D18*
%TO.C,J7*%
X120500000Y-124500000D03*
X117960000Y-124500000D03*
X115420000Y-124500000D03*
X112880000Y-124500000D03*
%TD*%
D19*
%TO.C,U3*%
X114600000Y-64440000D03*
X114600000Y-66980000D03*
X114600000Y-69520000D03*
X114600000Y-72060000D03*
X114600000Y-74600000D03*
X114600000Y-77140000D03*
X114600000Y-79680000D03*
X114600000Y-82220000D03*
X114600000Y-84760000D03*
X114600000Y-87300000D03*
X114600000Y-89840000D03*
X114600000Y-92380000D03*
X114600000Y-94920000D03*
X114600000Y-97460000D03*
X114600000Y-100000000D03*
X141000000Y-100000000D03*
X141000000Y-97460000D03*
X141000000Y-94920000D03*
X141000000Y-92380000D03*
X141000000Y-89840000D03*
X141000000Y-87300000D03*
X141000000Y-84760000D03*
X141000000Y-82220000D03*
X141000000Y-79680000D03*
X141000000Y-77140000D03*
X141000000Y-74600000D03*
X141000000Y-72060000D03*
X141000000Y-69520000D03*
X141000000Y-66980000D03*
X141000000Y-64440000D03*
%TD*%
D20*
%TO.C,SW1*%
X155500000Y-77460000D03*
D12*
X155500000Y-74920000D03*
X155500000Y-80000000D03*
%TD*%
D21*
%TO.C,J3*%
X162000000Y-71000000D03*
X162000000Y-75000000D03*
X162000000Y-79000000D03*
X162000000Y-83000000D03*
X162000000Y-87000000D03*
%TD*%
D16*
%TO.C,H3*%
X163000000Y-58500000D03*
%TD*%
D22*
%TO.C,PrimPot1*%
X146200000Y-107300000D03*
X147996051Y-105503949D03*
X146200000Y-103707898D03*
%TD*%
%TO.C,SecPot1*%
X146200000Y-79300000D03*
X147996051Y-77503949D03*
X146200000Y-75707898D03*
%TD*%
D16*
%TO.C,H1*%
X163000000Y-128000000D03*
%TD*%
D12*
%TO.C,R1*%
X151000000Y-98080000D03*
D13*
X151000000Y-87920000D03*
%TD*%
D10*
%TO.C,R2*%
X146500000Y-98850000D03*
D11*
X146500000Y-86150000D03*
%TD*%
D21*
%TO.C,J1*%
X162000000Y-96100000D03*
X162000000Y-100100000D03*
X162000000Y-104100000D03*
X162000000Y-108100000D03*
X162000000Y-112100000D03*
%TD*%
D20*
%TO.C,SW2*%
X155500000Y-102040000D03*
D12*
X155500000Y-99500000D03*
X155500000Y-104580000D03*
%TD*%
M02*
