%TF.GenerationSoftware,KiCad,Pcbnew,8.0.4*%
%TF.CreationDate,2024-12-05T15:49:58-05:00*%
%TF.ProjectId,CVTPCB,43565450-4342-42e6-9b69-6361645f7063,rev?*%
%TF.SameCoordinates,Original*%
%TF.FileFunction,Legend,Top*%
%TF.FilePolarity,Positive*%
%FSLAX46Y46*%
G04 Gerber Fmt 4.6, Leading zero omitted, Abs format (unit mm)*
G04 Created by KiCad (PCBNEW 8.0.4) date 2024-12-05 15:49:58*
%MOMM*%
%LPD*%
G01*
G04 APERTURE LIST*
%ADD10C,0.300000*%
%ADD11C,0.150000*%
%ADD12C,0.100000*%
%ADD13C,0.120000*%
%ADD14C,0.050000*%
%ADD15C,0.127000*%
%ADD16C,2.400000*%
%ADD17O,2.400000X2.400000*%
%ADD18C,1.600000*%
%ADD19O,1.600000X1.600000*%
%ADD20R,1.700000X1.700000*%
%ADD21O,1.700000X1.700000*%
%ADD22C,4.300000*%
%ADD23O,1.750000X3.000000*%
%ADD24R,1.750000X3.500000*%
%ADD25R,3.000000X1.700000*%
%ADD26R,1.500000X1.500000*%
%ADD27R,4.500000X3.000000*%
%ADD28C,1.260000*%
G04 APERTURE END LIST*
D10*
X166009524Y-74587209D02*
X165885714Y-74525304D01*
X165885714Y-74525304D02*
X165700000Y-74525304D01*
X165700000Y-74525304D02*
X165514286Y-74587209D01*
X165514286Y-74587209D02*
X165390476Y-74711019D01*
X165390476Y-74711019D02*
X165328571Y-74834828D01*
X165328571Y-74834828D02*
X165266667Y-75082447D01*
X165266667Y-75082447D02*
X165266667Y-75268161D01*
X165266667Y-75268161D02*
X165328571Y-75515780D01*
X165328571Y-75515780D02*
X165390476Y-75639590D01*
X165390476Y-75639590D02*
X165514286Y-75763400D01*
X165514286Y-75763400D02*
X165700000Y-75825304D01*
X165700000Y-75825304D02*
X165823809Y-75825304D01*
X165823809Y-75825304D02*
X166009524Y-75763400D01*
X166009524Y-75763400D02*
X166071428Y-75701495D01*
X166071428Y-75701495D02*
X166071428Y-75268161D01*
X166071428Y-75268161D02*
X165823809Y-75268161D01*
X166628571Y-75825304D02*
X166628571Y-74525304D01*
X166628571Y-74525304D02*
X167371428Y-75825304D01*
X167371428Y-75825304D02*
X167371428Y-74525304D01*
X167990476Y-75825304D02*
X167990476Y-74525304D01*
X167990476Y-74525304D02*
X168300000Y-74525304D01*
X168300000Y-74525304D02*
X168485714Y-74587209D01*
X168485714Y-74587209D02*
X168609524Y-74711019D01*
X168609524Y-74711019D02*
X168671429Y-74834828D01*
X168671429Y-74834828D02*
X168733333Y-75082447D01*
X168733333Y-75082447D02*
X168733333Y-75268161D01*
X168733333Y-75268161D02*
X168671429Y-75515780D01*
X168671429Y-75515780D02*
X168609524Y-75639590D01*
X168609524Y-75639590D02*
X168485714Y-75763400D01*
X168485714Y-75763400D02*
X168300000Y-75825304D01*
X168300000Y-75825304D02*
X167990476Y-75825304D01*
X166164285Y-112925304D02*
X165730952Y-112306257D01*
X165421428Y-112925304D02*
X165421428Y-111625304D01*
X165421428Y-111625304D02*
X165916666Y-111625304D01*
X165916666Y-111625304D02*
X166040476Y-111687209D01*
X166040476Y-111687209D02*
X166102381Y-111749114D01*
X166102381Y-111749114D02*
X166164285Y-111872923D01*
X166164285Y-111872923D02*
X166164285Y-112058638D01*
X166164285Y-112058638D02*
X166102381Y-112182447D01*
X166102381Y-112182447D02*
X166040476Y-112244352D01*
X166040476Y-112244352D02*
X165916666Y-112306257D01*
X165916666Y-112306257D02*
X165421428Y-112306257D01*
X166721428Y-112244352D02*
X167154762Y-112244352D01*
X167340476Y-112925304D02*
X166721428Y-112925304D01*
X166721428Y-112925304D02*
X166721428Y-111625304D01*
X166721428Y-111625304D02*
X167340476Y-111625304D01*
X168640475Y-112801495D02*
X168578571Y-112863400D01*
X168578571Y-112863400D02*
X168392856Y-112925304D01*
X168392856Y-112925304D02*
X168269047Y-112925304D01*
X168269047Y-112925304D02*
X168083333Y-112863400D01*
X168083333Y-112863400D02*
X167959523Y-112739590D01*
X167959523Y-112739590D02*
X167897618Y-112615780D01*
X167897618Y-112615780D02*
X167835714Y-112368161D01*
X167835714Y-112368161D02*
X167835714Y-112182447D01*
X167835714Y-112182447D02*
X167897618Y-111934828D01*
X167897618Y-111934828D02*
X167959523Y-111811019D01*
X167959523Y-111811019D02*
X168083333Y-111687209D01*
X168083333Y-111687209D02*
X168269047Y-111625304D01*
X168269047Y-111625304D02*
X168392856Y-111625304D01*
X168392856Y-111625304D02*
X168578571Y-111687209D01*
X168578571Y-111687209D02*
X168640475Y-111749114D01*
X156300828Y-95088346D02*
X155586542Y-95588346D01*
X156300828Y-95945489D02*
X154800828Y-95945489D01*
X154800828Y-95945489D02*
X154800828Y-95374060D01*
X154800828Y-95374060D02*
X154872257Y-95231203D01*
X154872257Y-95231203D02*
X154943685Y-95159774D01*
X154943685Y-95159774D02*
X155086542Y-95088346D01*
X155086542Y-95088346D02*
X155300828Y-95088346D01*
X155300828Y-95088346D02*
X155443685Y-95159774D01*
X155443685Y-95159774D02*
X155515114Y-95231203D01*
X155515114Y-95231203D02*
X155586542Y-95374060D01*
X155586542Y-95374060D02*
X155586542Y-95945489D01*
X120729400Y-132614284D02*
X120729400Y-131699999D01*
X121300828Y-132157141D02*
X120157971Y-132157141D01*
X121300828Y-130499999D02*
X121300828Y-131185713D01*
X121300828Y-130842856D02*
X119800828Y-130842856D01*
X119800828Y-130842856D02*
X120015114Y-130957142D01*
X120015114Y-130957142D02*
X120157971Y-131071427D01*
X120157971Y-131071427D02*
X120229400Y-131185713D01*
X119943685Y-130042856D02*
X119872257Y-129985713D01*
X119872257Y-129985713D02*
X119800828Y-129871428D01*
X119800828Y-129871428D02*
X119800828Y-129585713D01*
X119800828Y-129585713D02*
X119872257Y-129471428D01*
X119872257Y-129471428D02*
X119943685Y-129414285D01*
X119943685Y-129414285D02*
X120086542Y-129357142D01*
X120086542Y-129357142D02*
X120229400Y-129357142D01*
X120229400Y-129357142D02*
X120443685Y-129414285D01*
X120443685Y-129414285D02*
X121300828Y-130099999D01*
X121300828Y-130099999D02*
X121300828Y-129357142D01*
X119800828Y-129014285D02*
X121300828Y-128614285D01*
X121300828Y-128614285D02*
X119800828Y-128214285D01*
X157554510Y-92800828D02*
X157554510Y-91300828D01*
X157554510Y-91300828D02*
X158125939Y-91300828D01*
X158125939Y-91300828D02*
X158268796Y-91372257D01*
X158268796Y-91372257D02*
X158340225Y-91443685D01*
X158340225Y-91443685D02*
X158411653Y-91586542D01*
X158411653Y-91586542D02*
X158411653Y-91800828D01*
X158411653Y-91800828D02*
X158340225Y-91943685D01*
X158340225Y-91943685D02*
X158268796Y-92015114D01*
X158268796Y-92015114D02*
X158125939Y-92086542D01*
X158125939Y-92086542D02*
X157554510Y-92086542D01*
X159911653Y-92800828D02*
X159411653Y-92086542D01*
X159054510Y-92800828D02*
X159054510Y-91300828D01*
X159054510Y-91300828D02*
X159625939Y-91300828D01*
X159625939Y-91300828D02*
X159768796Y-91372257D01*
X159768796Y-91372257D02*
X159840225Y-91443685D01*
X159840225Y-91443685D02*
X159911653Y-91586542D01*
X159911653Y-91586542D02*
X159911653Y-91800828D01*
X159911653Y-91800828D02*
X159840225Y-91943685D01*
X159840225Y-91943685D02*
X159768796Y-92015114D01*
X159768796Y-92015114D02*
X159625939Y-92086542D01*
X159625939Y-92086542D02*
X159054510Y-92086542D01*
X160554510Y-92800828D02*
X160554510Y-91300828D01*
X161268796Y-92800828D02*
X161268796Y-91300828D01*
X161268796Y-91300828D02*
X161768796Y-92372257D01*
X161768796Y-92372257D02*
X162268796Y-91300828D01*
X162268796Y-91300828D02*
X162268796Y-92800828D01*
X162911654Y-92372257D02*
X163625940Y-92372257D01*
X162768797Y-92800828D02*
X163268797Y-91300828D01*
X163268797Y-91300828D02*
X163768797Y-92800828D01*
X165125939Y-92800828D02*
X164625939Y-92086542D01*
X164268796Y-92800828D02*
X164268796Y-91300828D01*
X164268796Y-91300828D02*
X164840225Y-91300828D01*
X164840225Y-91300828D02*
X164983082Y-91372257D01*
X164983082Y-91372257D02*
X165054511Y-91443685D01*
X165054511Y-91443685D02*
X165125939Y-91586542D01*
X165125939Y-91586542D02*
X165125939Y-91800828D01*
X165125939Y-91800828D02*
X165054511Y-91943685D01*
X165054511Y-91943685D02*
X164983082Y-92015114D01*
X164983082Y-92015114D02*
X164840225Y-92086542D01*
X164840225Y-92086542D02*
X164268796Y-92086542D01*
X166054511Y-92086542D02*
X166054511Y-92800828D01*
X165554511Y-91300828D02*
X166054511Y-92086542D01*
X166054511Y-92086542D02*
X166554511Y-91300828D01*
X149729400Y-130226784D02*
X149729400Y-129312499D01*
X150300828Y-129769641D02*
X149157971Y-129769641D01*
X150300828Y-128112499D02*
X150300828Y-128798213D01*
X150300828Y-128455356D02*
X148800828Y-128455356D01*
X148800828Y-128455356D02*
X149015114Y-128569642D01*
X149015114Y-128569642D02*
X149157971Y-128683927D01*
X149157971Y-128683927D02*
X149229400Y-128798213D01*
X148943685Y-127655356D02*
X148872257Y-127598213D01*
X148872257Y-127598213D02*
X148800828Y-127483928D01*
X148800828Y-127483928D02*
X148800828Y-127198213D01*
X148800828Y-127198213D02*
X148872257Y-127083928D01*
X148872257Y-127083928D02*
X148943685Y-127026785D01*
X148943685Y-127026785D02*
X149086542Y-126969642D01*
X149086542Y-126969642D02*
X149229400Y-126969642D01*
X149229400Y-126969642D02*
X149443685Y-127026785D01*
X149443685Y-127026785D02*
X150300828Y-127712499D01*
X150300828Y-127712499D02*
X150300828Y-126969642D01*
X148800828Y-126626785D02*
X150300828Y-126226785D01*
X150300828Y-126226785D02*
X148800828Y-125826785D01*
X156300828Y-70588346D02*
X155586542Y-71088346D01*
X156300828Y-71445489D02*
X154800828Y-71445489D01*
X154800828Y-71445489D02*
X154800828Y-70874060D01*
X154800828Y-70874060D02*
X154872257Y-70731203D01*
X154872257Y-70731203D02*
X154943685Y-70659774D01*
X154943685Y-70659774D02*
X155086542Y-70588346D01*
X155086542Y-70588346D02*
X155300828Y-70588346D01*
X155300828Y-70588346D02*
X155443685Y-70659774D01*
X155443685Y-70659774D02*
X155515114Y-70731203D01*
X155515114Y-70731203D02*
X155586542Y-70874060D01*
X155586542Y-70874060D02*
X155586542Y-71445489D01*
X165328571Y-71330066D02*
X166319048Y-71330066D01*
X165823809Y-71825304D02*
X165823809Y-70834828D01*
X167557143Y-70525304D02*
X166938095Y-70525304D01*
X166938095Y-70525304D02*
X166876191Y-71144352D01*
X166876191Y-71144352D02*
X166938095Y-71082447D01*
X166938095Y-71082447D02*
X167061905Y-71020542D01*
X167061905Y-71020542D02*
X167371429Y-71020542D01*
X167371429Y-71020542D02*
X167495238Y-71082447D01*
X167495238Y-71082447D02*
X167557143Y-71144352D01*
X167557143Y-71144352D02*
X167619048Y-71268161D01*
X167619048Y-71268161D02*
X167619048Y-71577685D01*
X167619048Y-71577685D02*
X167557143Y-71701495D01*
X167557143Y-71701495D02*
X167495238Y-71763400D01*
X167495238Y-71763400D02*
X167371429Y-71825304D01*
X167371429Y-71825304D02*
X167061905Y-71825304D01*
X167061905Y-71825304D02*
X166938095Y-71763400D01*
X166938095Y-71763400D02*
X166876191Y-71701495D01*
X167990476Y-70525304D02*
X168423809Y-71825304D01*
X168423809Y-71825304D02*
X168857143Y-70525304D01*
X165235714Y-78525304D02*
X165978571Y-78525304D01*
X165607143Y-79825304D02*
X165607143Y-78525304D01*
X166411904Y-79825304D02*
X166411904Y-78525304D01*
X166411904Y-78525304D02*
X166845238Y-79453876D01*
X166845238Y-79453876D02*
X167278571Y-78525304D01*
X167278571Y-78525304D02*
X167278571Y-79825304D01*
X167897618Y-79825304D02*
X167897618Y-78525304D01*
X167897618Y-78525304D02*
X168392856Y-78525304D01*
X168392856Y-78525304D02*
X168516666Y-78587209D01*
X168516666Y-78587209D02*
X168578571Y-78649114D01*
X168578571Y-78649114D02*
X168640475Y-78772923D01*
X168640475Y-78772923D02*
X168640475Y-78958638D01*
X168640475Y-78958638D02*
X168578571Y-79082447D01*
X168578571Y-79082447D02*
X168516666Y-79144352D01*
X168516666Y-79144352D02*
X168392856Y-79206257D01*
X168392856Y-79206257D02*
X167897618Y-79206257D01*
X166009524Y-99687209D02*
X165885714Y-99625304D01*
X165885714Y-99625304D02*
X165700000Y-99625304D01*
X165700000Y-99625304D02*
X165514286Y-99687209D01*
X165514286Y-99687209D02*
X165390476Y-99811019D01*
X165390476Y-99811019D02*
X165328571Y-99934828D01*
X165328571Y-99934828D02*
X165266667Y-100182447D01*
X165266667Y-100182447D02*
X165266667Y-100368161D01*
X165266667Y-100368161D02*
X165328571Y-100615780D01*
X165328571Y-100615780D02*
X165390476Y-100739590D01*
X165390476Y-100739590D02*
X165514286Y-100863400D01*
X165514286Y-100863400D02*
X165700000Y-100925304D01*
X165700000Y-100925304D02*
X165823809Y-100925304D01*
X165823809Y-100925304D02*
X166009524Y-100863400D01*
X166009524Y-100863400D02*
X166071428Y-100801495D01*
X166071428Y-100801495D02*
X166071428Y-100368161D01*
X166071428Y-100368161D02*
X165823809Y-100368161D01*
X166628571Y-100925304D02*
X166628571Y-99625304D01*
X166628571Y-99625304D02*
X167371428Y-100925304D01*
X167371428Y-100925304D02*
X167371428Y-99625304D01*
X167990476Y-100925304D02*
X167990476Y-99625304D01*
X167990476Y-99625304D02*
X168300000Y-99625304D01*
X168300000Y-99625304D02*
X168485714Y-99687209D01*
X168485714Y-99687209D02*
X168609524Y-99811019D01*
X168609524Y-99811019D02*
X168671429Y-99934828D01*
X168671429Y-99934828D02*
X168733333Y-100182447D01*
X168733333Y-100182447D02*
X168733333Y-100368161D01*
X168733333Y-100368161D02*
X168671429Y-100615780D01*
X168671429Y-100615780D02*
X168609524Y-100739590D01*
X168609524Y-100739590D02*
X168485714Y-100863400D01*
X168485714Y-100863400D02*
X168300000Y-100925304D01*
X168300000Y-100925304D02*
X167990476Y-100925304D01*
X151872257Y-118526785D02*
X151800828Y-118641071D01*
X151800828Y-118641071D02*
X151800828Y-118812499D01*
X151800828Y-118812499D02*
X151872257Y-118983928D01*
X151872257Y-118983928D02*
X152015114Y-119098213D01*
X152015114Y-119098213D02*
X152157971Y-119155356D01*
X152157971Y-119155356D02*
X152443685Y-119212499D01*
X152443685Y-119212499D02*
X152657971Y-119212499D01*
X152657971Y-119212499D02*
X152943685Y-119155356D01*
X152943685Y-119155356D02*
X153086542Y-119098213D01*
X153086542Y-119098213D02*
X153229400Y-118983928D01*
X153229400Y-118983928D02*
X153300828Y-118812499D01*
X153300828Y-118812499D02*
X153300828Y-118698213D01*
X153300828Y-118698213D02*
X153229400Y-118526785D01*
X153229400Y-118526785D02*
X153157971Y-118469642D01*
X153157971Y-118469642D02*
X152657971Y-118469642D01*
X152657971Y-118469642D02*
X152657971Y-118698213D01*
X153300828Y-117955356D02*
X151800828Y-117955356D01*
X151800828Y-117955356D02*
X153300828Y-117269642D01*
X153300828Y-117269642D02*
X151800828Y-117269642D01*
X153300828Y-116698213D02*
X151800828Y-116698213D01*
X151800828Y-116698213D02*
X151800828Y-116412499D01*
X151800828Y-116412499D02*
X151872257Y-116241070D01*
X151872257Y-116241070D02*
X152015114Y-116126785D01*
X152015114Y-116126785D02*
X152157971Y-116069642D01*
X152157971Y-116069642D02*
X152443685Y-116012499D01*
X152443685Y-116012499D02*
X152657971Y-116012499D01*
X152657971Y-116012499D02*
X152943685Y-116069642D01*
X152943685Y-116069642D02*
X153086542Y-116126785D01*
X153086542Y-116126785D02*
X153229400Y-116241070D01*
X153229400Y-116241070D02*
X153300828Y-116412499D01*
X153300828Y-116412499D02*
X153300828Y-116698213D01*
X142157971Y-126499999D02*
X142229400Y-126557142D01*
X142229400Y-126557142D02*
X142300828Y-126728570D01*
X142300828Y-126728570D02*
X142300828Y-126842856D01*
X142300828Y-126842856D02*
X142229400Y-127014285D01*
X142229400Y-127014285D02*
X142086542Y-127128570D01*
X142086542Y-127128570D02*
X141943685Y-127185713D01*
X141943685Y-127185713D02*
X141657971Y-127242856D01*
X141657971Y-127242856D02*
X141443685Y-127242856D01*
X141443685Y-127242856D02*
X141157971Y-127185713D01*
X141157971Y-127185713D02*
X141015114Y-127128570D01*
X141015114Y-127128570D02*
X140872257Y-127014285D01*
X140872257Y-127014285D02*
X140800828Y-126842856D01*
X140800828Y-126842856D02*
X140800828Y-126728570D01*
X140800828Y-126728570D02*
X140872257Y-126557142D01*
X140872257Y-126557142D02*
X140943685Y-126499999D01*
X141872257Y-126042856D02*
X141872257Y-125471428D01*
X142300828Y-126157142D02*
X140800828Y-125757142D01*
X140800828Y-125757142D02*
X142300828Y-125357142D01*
X142300828Y-124957142D02*
X140800828Y-124957142D01*
X140800828Y-124957142D02*
X142300828Y-124271428D01*
X142300828Y-124271428D02*
X140800828Y-124271428D01*
X141729400Y-123699999D02*
X141729400Y-122785714D01*
X142300828Y-121642857D02*
X142300828Y-122214285D01*
X142300828Y-122214285D02*
X140800828Y-122214285D01*
X156300828Y-110945489D02*
X154800828Y-110945489D01*
X154800828Y-110945489D02*
X154800828Y-110374060D01*
X154800828Y-110374060D02*
X154872257Y-110231203D01*
X154872257Y-110231203D02*
X154943685Y-110159774D01*
X154943685Y-110159774D02*
X155086542Y-110088346D01*
X155086542Y-110088346D02*
X155300828Y-110088346D01*
X155300828Y-110088346D02*
X155443685Y-110159774D01*
X155443685Y-110159774D02*
X155515114Y-110231203D01*
X155515114Y-110231203D02*
X155586542Y-110374060D01*
X155586542Y-110374060D02*
X155586542Y-110945489D01*
X154800828Y-109159774D02*
X154800828Y-108874060D01*
X154800828Y-108874060D02*
X154872257Y-108731203D01*
X154872257Y-108731203D02*
X155015114Y-108588346D01*
X155015114Y-108588346D02*
X155300828Y-108516917D01*
X155300828Y-108516917D02*
X155800828Y-108516917D01*
X155800828Y-108516917D02*
X156086542Y-108588346D01*
X156086542Y-108588346D02*
X156229400Y-108731203D01*
X156229400Y-108731203D02*
X156300828Y-108874060D01*
X156300828Y-108874060D02*
X156300828Y-109159774D01*
X156300828Y-109159774D02*
X156229400Y-109302632D01*
X156229400Y-109302632D02*
X156086542Y-109445489D01*
X156086542Y-109445489D02*
X155800828Y-109516917D01*
X155800828Y-109516917D02*
X155300828Y-109516917D01*
X155300828Y-109516917D02*
X155015114Y-109445489D01*
X155015114Y-109445489D02*
X154872257Y-109302632D01*
X154872257Y-109302632D02*
X154800828Y-109159774D01*
X154800828Y-108088345D02*
X154800828Y-107231203D01*
X156300828Y-107659774D02*
X154800828Y-107659774D01*
X165483333Y-108244352D02*
X165916667Y-108244352D01*
X166102381Y-108925304D02*
X165483333Y-108925304D01*
X165483333Y-108925304D02*
X165483333Y-107625304D01*
X165483333Y-107625304D02*
X166102381Y-107625304D01*
X166659523Y-108925304D02*
X166659523Y-107625304D01*
X166659523Y-107625304D02*
X167092857Y-108553876D01*
X167092857Y-108553876D02*
X167526190Y-107625304D01*
X167526190Y-107625304D02*
X167526190Y-108925304D01*
X167959523Y-107625304D02*
X168702380Y-107625304D01*
X168330952Y-108925304D02*
X168330952Y-107625304D01*
X165235714Y-103625304D02*
X165978571Y-103625304D01*
X165607143Y-104925304D02*
X165607143Y-103625304D01*
X166411904Y-104925304D02*
X166411904Y-103625304D01*
X166411904Y-103625304D02*
X166845238Y-104553876D01*
X166845238Y-104553876D02*
X167278571Y-103625304D01*
X167278571Y-103625304D02*
X167278571Y-104925304D01*
X167897618Y-104925304D02*
X167897618Y-103625304D01*
X167897618Y-103625304D02*
X168392856Y-103625304D01*
X168392856Y-103625304D02*
X168516666Y-103687209D01*
X168516666Y-103687209D02*
X168578571Y-103749114D01*
X168578571Y-103749114D02*
X168640475Y-103872923D01*
X168640475Y-103872923D02*
X168640475Y-104058638D01*
X168640475Y-104058638D02*
X168578571Y-104182447D01*
X168578571Y-104182447D02*
X168516666Y-104244352D01*
X168516666Y-104244352D02*
X168392856Y-104306257D01*
X168392856Y-104306257D02*
X167897618Y-104306257D01*
X155785714Y-67229400D02*
X156000000Y-67300828D01*
X156000000Y-67300828D02*
X156357142Y-67300828D01*
X156357142Y-67300828D02*
X156500000Y-67229400D01*
X156500000Y-67229400D02*
X156571428Y-67157971D01*
X156571428Y-67157971D02*
X156642857Y-67015114D01*
X156642857Y-67015114D02*
X156642857Y-66872257D01*
X156642857Y-66872257D02*
X156571428Y-66729400D01*
X156571428Y-66729400D02*
X156500000Y-66657971D01*
X156500000Y-66657971D02*
X156357142Y-66586542D01*
X156357142Y-66586542D02*
X156071428Y-66515114D01*
X156071428Y-66515114D02*
X155928571Y-66443685D01*
X155928571Y-66443685D02*
X155857142Y-66372257D01*
X155857142Y-66372257D02*
X155785714Y-66229400D01*
X155785714Y-66229400D02*
X155785714Y-66086542D01*
X155785714Y-66086542D02*
X155857142Y-65943685D01*
X155857142Y-65943685D02*
X155928571Y-65872257D01*
X155928571Y-65872257D02*
X156071428Y-65800828D01*
X156071428Y-65800828D02*
X156428571Y-65800828D01*
X156428571Y-65800828D02*
X156642857Y-65872257D01*
X157285713Y-66515114D02*
X157785713Y-66515114D01*
X157999999Y-67300828D02*
X157285713Y-67300828D01*
X157285713Y-67300828D02*
X157285713Y-65800828D01*
X157285713Y-65800828D02*
X157999999Y-65800828D01*
X159499999Y-67157971D02*
X159428571Y-67229400D01*
X159428571Y-67229400D02*
X159214285Y-67300828D01*
X159214285Y-67300828D02*
X159071428Y-67300828D01*
X159071428Y-67300828D02*
X158857142Y-67229400D01*
X158857142Y-67229400D02*
X158714285Y-67086542D01*
X158714285Y-67086542D02*
X158642856Y-66943685D01*
X158642856Y-66943685D02*
X158571428Y-66657971D01*
X158571428Y-66657971D02*
X158571428Y-66443685D01*
X158571428Y-66443685D02*
X158642856Y-66157971D01*
X158642856Y-66157971D02*
X158714285Y-66015114D01*
X158714285Y-66015114D02*
X158857142Y-65872257D01*
X158857142Y-65872257D02*
X159071428Y-65800828D01*
X159071428Y-65800828D02*
X159214285Y-65800828D01*
X159214285Y-65800828D02*
X159428571Y-65872257D01*
X159428571Y-65872257D02*
X159499999Y-65943685D01*
X160428571Y-65800828D02*
X160714285Y-65800828D01*
X160714285Y-65800828D02*
X160857142Y-65872257D01*
X160857142Y-65872257D02*
X160999999Y-66015114D01*
X160999999Y-66015114D02*
X161071428Y-66300828D01*
X161071428Y-66300828D02*
X161071428Y-66800828D01*
X161071428Y-66800828D02*
X160999999Y-67086542D01*
X160999999Y-67086542D02*
X160857142Y-67229400D01*
X160857142Y-67229400D02*
X160714285Y-67300828D01*
X160714285Y-67300828D02*
X160428571Y-67300828D01*
X160428571Y-67300828D02*
X160285714Y-67229400D01*
X160285714Y-67229400D02*
X160142856Y-67086542D01*
X160142856Y-67086542D02*
X160071428Y-66800828D01*
X160071428Y-66800828D02*
X160071428Y-66300828D01*
X160071428Y-66300828D02*
X160142856Y-66015114D01*
X160142856Y-66015114D02*
X160285714Y-65872257D01*
X160285714Y-65872257D02*
X160428571Y-65800828D01*
X161714285Y-67300828D02*
X161714285Y-65800828D01*
X161714285Y-65800828D02*
X162571428Y-67300828D01*
X162571428Y-67300828D02*
X162571428Y-65800828D01*
X163285714Y-67300828D02*
X163285714Y-65800828D01*
X163285714Y-65800828D02*
X163642857Y-65800828D01*
X163642857Y-65800828D02*
X163857143Y-65872257D01*
X163857143Y-65872257D02*
X164000000Y-66015114D01*
X164000000Y-66015114D02*
X164071429Y-66157971D01*
X164071429Y-66157971D02*
X164142857Y-66443685D01*
X164142857Y-66443685D02*
X164142857Y-66657971D01*
X164142857Y-66657971D02*
X164071429Y-66943685D01*
X164071429Y-66943685D02*
X164000000Y-67086542D01*
X164000000Y-67086542D02*
X163857143Y-67229400D01*
X163857143Y-67229400D02*
X163642857Y-67300828D01*
X163642857Y-67300828D02*
X163285714Y-67300828D01*
X164714286Y-66872257D02*
X165428572Y-66872257D01*
X164571429Y-67300828D02*
X165071429Y-65800828D01*
X165071429Y-65800828D02*
X165571429Y-67300828D01*
X166928571Y-67300828D02*
X166428571Y-66586542D01*
X166071428Y-67300828D02*
X166071428Y-65800828D01*
X166071428Y-65800828D02*
X166642857Y-65800828D01*
X166642857Y-65800828D02*
X166785714Y-65872257D01*
X166785714Y-65872257D02*
X166857143Y-65943685D01*
X166857143Y-65943685D02*
X166928571Y-66086542D01*
X166928571Y-66086542D02*
X166928571Y-66300828D01*
X166928571Y-66300828D02*
X166857143Y-66443685D01*
X166857143Y-66443685D02*
X166785714Y-66515114D01*
X166785714Y-66515114D02*
X166642857Y-66586542D01*
X166642857Y-66586542D02*
X166071428Y-66586542D01*
X167857143Y-66586542D02*
X167857143Y-67300828D01*
X167357143Y-65800828D02*
X167857143Y-66586542D01*
X167857143Y-66586542D02*
X168357143Y-65800828D01*
X151872257Y-128526785D02*
X151800828Y-128641071D01*
X151800828Y-128641071D02*
X151800828Y-128812499D01*
X151800828Y-128812499D02*
X151872257Y-128983928D01*
X151872257Y-128983928D02*
X152015114Y-129098213D01*
X152015114Y-129098213D02*
X152157971Y-129155356D01*
X152157971Y-129155356D02*
X152443685Y-129212499D01*
X152443685Y-129212499D02*
X152657971Y-129212499D01*
X152657971Y-129212499D02*
X152943685Y-129155356D01*
X152943685Y-129155356D02*
X153086542Y-129098213D01*
X153086542Y-129098213D02*
X153229400Y-128983928D01*
X153229400Y-128983928D02*
X153300828Y-128812499D01*
X153300828Y-128812499D02*
X153300828Y-128698213D01*
X153300828Y-128698213D02*
X153229400Y-128526785D01*
X153229400Y-128526785D02*
X153157971Y-128469642D01*
X153157971Y-128469642D02*
X152657971Y-128469642D01*
X152657971Y-128469642D02*
X152657971Y-128698213D01*
X153300828Y-127955356D02*
X151800828Y-127955356D01*
X151800828Y-127955356D02*
X153300828Y-127269642D01*
X153300828Y-127269642D02*
X151800828Y-127269642D01*
X153300828Y-126698213D02*
X151800828Y-126698213D01*
X151800828Y-126698213D02*
X151800828Y-126412499D01*
X151800828Y-126412499D02*
X151872257Y-126241070D01*
X151872257Y-126241070D02*
X152015114Y-126126785D01*
X152015114Y-126126785D02*
X152157971Y-126069642D01*
X152157971Y-126069642D02*
X152443685Y-126012499D01*
X152443685Y-126012499D02*
X152657971Y-126012499D01*
X152657971Y-126012499D02*
X152943685Y-126069642D01*
X152943685Y-126069642D02*
X153086542Y-126126785D01*
X153086542Y-126126785D02*
X153229400Y-126241070D01*
X153229400Y-126241070D02*
X153300828Y-126412499D01*
X153300828Y-126412499D02*
X153300828Y-126698213D01*
X117372257Y-131414285D02*
X117300828Y-131528571D01*
X117300828Y-131528571D02*
X117300828Y-131699999D01*
X117300828Y-131699999D02*
X117372257Y-131871428D01*
X117372257Y-131871428D02*
X117515114Y-131985713D01*
X117515114Y-131985713D02*
X117657971Y-132042856D01*
X117657971Y-132042856D02*
X117943685Y-132099999D01*
X117943685Y-132099999D02*
X118157971Y-132099999D01*
X118157971Y-132099999D02*
X118443685Y-132042856D01*
X118443685Y-132042856D02*
X118586542Y-131985713D01*
X118586542Y-131985713D02*
X118729400Y-131871428D01*
X118729400Y-131871428D02*
X118800828Y-131699999D01*
X118800828Y-131699999D02*
X118800828Y-131585713D01*
X118800828Y-131585713D02*
X118729400Y-131414285D01*
X118729400Y-131414285D02*
X118657971Y-131357142D01*
X118657971Y-131357142D02*
X118157971Y-131357142D01*
X118157971Y-131357142D02*
X118157971Y-131585713D01*
X118800828Y-130842856D02*
X117300828Y-130842856D01*
X117300828Y-130842856D02*
X118800828Y-130157142D01*
X118800828Y-130157142D02*
X117300828Y-130157142D01*
X118800828Y-129585713D02*
X117300828Y-129585713D01*
X117300828Y-129585713D02*
X117300828Y-129299999D01*
X117300828Y-129299999D02*
X117372257Y-129128570D01*
X117372257Y-129128570D02*
X117515114Y-129014285D01*
X117515114Y-129014285D02*
X117657971Y-128957142D01*
X117657971Y-128957142D02*
X117943685Y-128899999D01*
X117943685Y-128899999D02*
X118157971Y-128899999D01*
X118157971Y-128899999D02*
X118443685Y-128957142D01*
X118443685Y-128957142D02*
X118586542Y-129014285D01*
X118586542Y-129014285D02*
X118729400Y-129128570D01*
X118729400Y-129128570D02*
X118800828Y-129299999D01*
X118800828Y-129299999D02*
X118800828Y-129585713D01*
X113157971Y-132499999D02*
X113229400Y-132557142D01*
X113229400Y-132557142D02*
X113300828Y-132728570D01*
X113300828Y-132728570D02*
X113300828Y-132842856D01*
X113300828Y-132842856D02*
X113229400Y-133014285D01*
X113229400Y-133014285D02*
X113086542Y-133128570D01*
X113086542Y-133128570D02*
X112943685Y-133185713D01*
X112943685Y-133185713D02*
X112657971Y-133242856D01*
X112657971Y-133242856D02*
X112443685Y-133242856D01*
X112443685Y-133242856D02*
X112157971Y-133185713D01*
X112157971Y-133185713D02*
X112015114Y-133128570D01*
X112015114Y-133128570D02*
X111872257Y-133014285D01*
X111872257Y-133014285D02*
X111800828Y-132842856D01*
X111800828Y-132842856D02*
X111800828Y-132728570D01*
X111800828Y-132728570D02*
X111872257Y-132557142D01*
X111872257Y-132557142D02*
X111943685Y-132499999D01*
X112872257Y-132042856D02*
X112872257Y-131471428D01*
X113300828Y-132157142D02*
X111800828Y-131757142D01*
X111800828Y-131757142D02*
X113300828Y-131357142D01*
X113300828Y-130957142D02*
X111800828Y-130957142D01*
X111800828Y-130957142D02*
X113300828Y-130271428D01*
X113300828Y-130271428D02*
X111800828Y-130271428D01*
X112729400Y-129699999D02*
X112729400Y-128785714D01*
X113300828Y-127642857D02*
X113300828Y-128214285D01*
X113300828Y-128214285D02*
X111800828Y-128214285D01*
X156300828Y-86445489D02*
X154800828Y-86445489D01*
X154800828Y-86445489D02*
X154800828Y-85874060D01*
X154800828Y-85874060D02*
X154872257Y-85731203D01*
X154872257Y-85731203D02*
X154943685Y-85659774D01*
X154943685Y-85659774D02*
X155086542Y-85588346D01*
X155086542Y-85588346D02*
X155300828Y-85588346D01*
X155300828Y-85588346D02*
X155443685Y-85659774D01*
X155443685Y-85659774D02*
X155515114Y-85731203D01*
X155515114Y-85731203D02*
X155586542Y-85874060D01*
X155586542Y-85874060D02*
X155586542Y-86445489D01*
X154800828Y-84659774D02*
X154800828Y-84374060D01*
X154800828Y-84374060D02*
X154872257Y-84231203D01*
X154872257Y-84231203D02*
X155015114Y-84088346D01*
X155015114Y-84088346D02*
X155300828Y-84016917D01*
X155300828Y-84016917D02*
X155800828Y-84016917D01*
X155800828Y-84016917D02*
X156086542Y-84088346D01*
X156086542Y-84088346D02*
X156229400Y-84231203D01*
X156229400Y-84231203D02*
X156300828Y-84374060D01*
X156300828Y-84374060D02*
X156300828Y-84659774D01*
X156300828Y-84659774D02*
X156229400Y-84802632D01*
X156229400Y-84802632D02*
X156086542Y-84945489D01*
X156086542Y-84945489D02*
X155800828Y-85016917D01*
X155800828Y-85016917D02*
X155300828Y-85016917D01*
X155300828Y-85016917D02*
X155015114Y-84945489D01*
X155015114Y-84945489D02*
X154872257Y-84802632D01*
X154872257Y-84802632D02*
X154800828Y-84659774D01*
X154800828Y-83588345D02*
X154800828Y-82731203D01*
X156300828Y-83159774D02*
X154800828Y-83159774D01*
X150229400Y-119155356D02*
X150229400Y-118241071D01*
X150800828Y-118698213D02*
X149657971Y-118698213D01*
X149300828Y-117098214D02*
X149300828Y-117669642D01*
X149300828Y-117669642D02*
X150015114Y-117726785D01*
X150015114Y-117726785D02*
X149943685Y-117669642D01*
X149943685Y-117669642D02*
X149872257Y-117555357D01*
X149872257Y-117555357D02*
X149872257Y-117269642D01*
X149872257Y-117269642D02*
X149943685Y-117155357D01*
X149943685Y-117155357D02*
X150015114Y-117098214D01*
X150015114Y-117098214D02*
X150157971Y-117041071D01*
X150157971Y-117041071D02*
X150515114Y-117041071D01*
X150515114Y-117041071D02*
X150657971Y-117098214D01*
X150657971Y-117098214D02*
X150729400Y-117155357D01*
X150729400Y-117155357D02*
X150800828Y-117269642D01*
X150800828Y-117269642D02*
X150800828Y-117555357D01*
X150800828Y-117555357D02*
X150729400Y-117669642D01*
X150729400Y-117669642D02*
X150657971Y-117726785D01*
X149300828Y-116698214D02*
X150800828Y-116298214D01*
X150800828Y-116298214D02*
X149300828Y-115898214D01*
X165328571Y-96430066D02*
X166319048Y-96430066D01*
X165823809Y-96925304D02*
X165823809Y-95934828D01*
X167557143Y-95625304D02*
X166938095Y-95625304D01*
X166938095Y-95625304D02*
X166876191Y-96244352D01*
X166876191Y-96244352D02*
X166938095Y-96182447D01*
X166938095Y-96182447D02*
X167061905Y-96120542D01*
X167061905Y-96120542D02*
X167371429Y-96120542D01*
X167371429Y-96120542D02*
X167495238Y-96182447D01*
X167495238Y-96182447D02*
X167557143Y-96244352D01*
X167557143Y-96244352D02*
X167619048Y-96368161D01*
X167619048Y-96368161D02*
X167619048Y-96677685D01*
X167619048Y-96677685D02*
X167557143Y-96801495D01*
X167557143Y-96801495D02*
X167495238Y-96863400D01*
X167495238Y-96863400D02*
X167371429Y-96925304D01*
X167371429Y-96925304D02*
X167061905Y-96925304D01*
X167061905Y-96925304D02*
X166938095Y-96863400D01*
X166938095Y-96863400D02*
X166876191Y-96801495D01*
X167990476Y-95625304D02*
X168423809Y-96925304D01*
X168423809Y-96925304D02*
X168857143Y-95625304D01*
X126229400Y-127399999D02*
X126229400Y-126485714D01*
X126800828Y-126942856D02*
X125657971Y-126942856D01*
X125300828Y-126028571D02*
X125300828Y-125285714D01*
X125300828Y-125285714D02*
X125872257Y-125685714D01*
X125872257Y-125685714D02*
X125872257Y-125514285D01*
X125872257Y-125514285D02*
X125943685Y-125400000D01*
X125943685Y-125400000D02*
X126015114Y-125342857D01*
X126015114Y-125342857D02*
X126157971Y-125285714D01*
X126157971Y-125285714D02*
X126515114Y-125285714D01*
X126515114Y-125285714D02*
X126657971Y-125342857D01*
X126657971Y-125342857D02*
X126729400Y-125400000D01*
X126729400Y-125400000D02*
X126800828Y-125514285D01*
X126800828Y-125514285D02*
X126800828Y-125857142D01*
X126800828Y-125857142D02*
X126729400Y-125971428D01*
X126729400Y-125971428D02*
X126657971Y-126028571D01*
X126657971Y-124771428D02*
X126729400Y-124714285D01*
X126729400Y-124714285D02*
X126800828Y-124771428D01*
X126800828Y-124771428D02*
X126729400Y-124828571D01*
X126729400Y-124828571D02*
X126657971Y-124771428D01*
X126657971Y-124771428D02*
X126800828Y-124771428D01*
X125300828Y-124314285D02*
X125300828Y-123571428D01*
X125300828Y-123571428D02*
X125872257Y-123971428D01*
X125872257Y-123971428D02*
X125872257Y-123799999D01*
X125872257Y-123799999D02*
X125943685Y-123685714D01*
X125943685Y-123685714D02*
X126015114Y-123628571D01*
X126015114Y-123628571D02*
X126157971Y-123571428D01*
X126157971Y-123571428D02*
X126515114Y-123571428D01*
X126515114Y-123571428D02*
X126657971Y-123628571D01*
X126657971Y-123628571D02*
X126729400Y-123685714D01*
X126729400Y-123685714D02*
X126800828Y-123799999D01*
X126800828Y-123799999D02*
X126800828Y-124142856D01*
X126800828Y-124142856D02*
X126729400Y-124257142D01*
X126729400Y-124257142D02*
X126657971Y-124314285D01*
X125300828Y-123228571D02*
X126800828Y-122828571D01*
X126800828Y-122828571D02*
X125300828Y-122428571D01*
X115657971Y-132642856D02*
X115729400Y-132699999D01*
X115729400Y-132699999D02*
X115800828Y-132871427D01*
X115800828Y-132871427D02*
X115800828Y-132985713D01*
X115800828Y-132985713D02*
X115729400Y-133157142D01*
X115729400Y-133157142D02*
X115586542Y-133271427D01*
X115586542Y-133271427D02*
X115443685Y-133328570D01*
X115443685Y-133328570D02*
X115157971Y-133385713D01*
X115157971Y-133385713D02*
X114943685Y-133385713D01*
X114943685Y-133385713D02*
X114657971Y-133328570D01*
X114657971Y-133328570D02*
X114515114Y-133271427D01*
X114515114Y-133271427D02*
X114372257Y-133157142D01*
X114372257Y-133157142D02*
X114300828Y-132985713D01*
X114300828Y-132985713D02*
X114300828Y-132871427D01*
X114300828Y-132871427D02*
X114372257Y-132699999D01*
X114372257Y-132699999D02*
X114443685Y-132642856D01*
X115372257Y-132185713D02*
X115372257Y-131614285D01*
X115800828Y-132299999D02*
X114300828Y-131899999D01*
X114300828Y-131899999D02*
X115800828Y-131499999D01*
X115800828Y-131099999D02*
X114300828Y-131099999D01*
X114300828Y-131099999D02*
X115800828Y-130414285D01*
X115800828Y-130414285D02*
X114300828Y-130414285D01*
X115229400Y-129842856D02*
X115229400Y-128928571D01*
X115800828Y-128357142D02*
X114300828Y-128357142D01*
X115015114Y-128357142D02*
X115015114Y-127671428D01*
X115800828Y-127671428D02*
X114300828Y-127671428D01*
X166164285Y-87825304D02*
X165730952Y-87206257D01*
X165421428Y-87825304D02*
X165421428Y-86525304D01*
X165421428Y-86525304D02*
X165916666Y-86525304D01*
X165916666Y-86525304D02*
X166040476Y-86587209D01*
X166040476Y-86587209D02*
X166102381Y-86649114D01*
X166102381Y-86649114D02*
X166164285Y-86772923D01*
X166164285Y-86772923D02*
X166164285Y-86958638D01*
X166164285Y-86958638D02*
X166102381Y-87082447D01*
X166102381Y-87082447D02*
X166040476Y-87144352D01*
X166040476Y-87144352D02*
X165916666Y-87206257D01*
X165916666Y-87206257D02*
X165421428Y-87206257D01*
X166721428Y-87144352D02*
X167154762Y-87144352D01*
X167340476Y-87825304D02*
X166721428Y-87825304D01*
X166721428Y-87825304D02*
X166721428Y-86525304D01*
X166721428Y-86525304D02*
X167340476Y-86525304D01*
X168640475Y-87701495D02*
X168578571Y-87763400D01*
X168578571Y-87763400D02*
X168392856Y-87825304D01*
X168392856Y-87825304D02*
X168269047Y-87825304D01*
X168269047Y-87825304D02*
X168083333Y-87763400D01*
X168083333Y-87763400D02*
X167959523Y-87639590D01*
X167959523Y-87639590D02*
X167897618Y-87515780D01*
X167897618Y-87515780D02*
X167835714Y-87268161D01*
X167835714Y-87268161D02*
X167835714Y-87082447D01*
X167835714Y-87082447D02*
X167897618Y-86834828D01*
X167897618Y-86834828D02*
X167959523Y-86711019D01*
X167959523Y-86711019D02*
X168083333Y-86587209D01*
X168083333Y-86587209D02*
X168269047Y-86525304D01*
X168269047Y-86525304D02*
X168392856Y-86525304D01*
X168392856Y-86525304D02*
X168578571Y-86587209D01*
X168578571Y-86587209D02*
X168640475Y-86649114D01*
X165483333Y-83144352D02*
X165916667Y-83144352D01*
X166102381Y-83825304D02*
X165483333Y-83825304D01*
X165483333Y-83825304D02*
X165483333Y-82525304D01*
X165483333Y-82525304D02*
X166102381Y-82525304D01*
X166659523Y-83825304D02*
X166659523Y-82525304D01*
X166659523Y-82525304D02*
X167092857Y-83453876D01*
X167092857Y-83453876D02*
X167526190Y-82525304D01*
X167526190Y-82525304D02*
X167526190Y-83825304D01*
X167959523Y-82525304D02*
X168702380Y-82525304D01*
X168330952Y-83825304D02*
X168330952Y-82525304D01*
D11*
X146954819Y-66666666D02*
X146478628Y-66999999D01*
X146954819Y-67238094D02*
X145954819Y-67238094D01*
X145954819Y-67238094D02*
X145954819Y-66857142D01*
X145954819Y-66857142D02*
X146002438Y-66761904D01*
X146002438Y-66761904D02*
X146050057Y-66714285D01*
X146050057Y-66714285D02*
X146145295Y-66666666D01*
X146145295Y-66666666D02*
X146288152Y-66666666D01*
X146288152Y-66666666D02*
X146383390Y-66714285D01*
X146383390Y-66714285D02*
X146431009Y-66761904D01*
X146431009Y-66761904D02*
X146478628Y-66857142D01*
X146478628Y-66857142D02*
X146478628Y-67238094D01*
X146288152Y-65809523D02*
X146954819Y-65809523D01*
X145907200Y-66047618D02*
X146621485Y-66285713D01*
X146621485Y-66285713D02*
X146621485Y-65666666D01*
X152454819Y-65666666D02*
X151978628Y-65999999D01*
X152454819Y-66238094D02*
X151454819Y-66238094D01*
X151454819Y-66238094D02*
X151454819Y-65857142D01*
X151454819Y-65857142D02*
X151502438Y-65761904D01*
X151502438Y-65761904D02*
X151550057Y-65714285D01*
X151550057Y-65714285D02*
X151645295Y-65666666D01*
X151645295Y-65666666D02*
X151788152Y-65666666D01*
X151788152Y-65666666D02*
X151883390Y-65714285D01*
X151883390Y-65714285D02*
X151931009Y-65761904D01*
X151931009Y-65761904D02*
X151978628Y-65857142D01*
X151978628Y-65857142D02*
X151978628Y-66238094D01*
X151454819Y-65333332D02*
X151454819Y-64714285D01*
X151454819Y-64714285D02*
X151835771Y-65047618D01*
X151835771Y-65047618D02*
X151835771Y-64904761D01*
X151835771Y-64904761D02*
X151883390Y-64809523D01*
X151883390Y-64809523D02*
X151931009Y-64761904D01*
X151931009Y-64761904D02*
X152026247Y-64714285D01*
X152026247Y-64714285D02*
X152264342Y-64714285D01*
X152264342Y-64714285D02*
X152359580Y-64761904D01*
X152359580Y-64761904D02*
X152407200Y-64809523D01*
X152407200Y-64809523D02*
X152454819Y-64904761D01*
X152454819Y-64904761D02*
X152454819Y-65190475D01*
X152454819Y-65190475D02*
X152407200Y-65285713D01*
X152407200Y-65285713D02*
X152359580Y-65333332D01*
D12*
X150941666Y-122569919D02*
X150941666Y-123284204D01*
X150941666Y-123284204D02*
X150894047Y-123427061D01*
X150894047Y-123427061D02*
X150798809Y-123522300D01*
X150798809Y-123522300D02*
X150655952Y-123569919D01*
X150655952Y-123569919D02*
X150560714Y-123569919D01*
X151846428Y-122903252D02*
X151846428Y-123569919D01*
X151608333Y-122522300D02*
X151370238Y-123236585D01*
X151370238Y-123236585D02*
X151989285Y-123236585D01*
X125498095Y-129457419D02*
X125498095Y-130266942D01*
X125498095Y-130266942D02*
X125545714Y-130362180D01*
X125545714Y-130362180D02*
X125593333Y-130409800D01*
X125593333Y-130409800D02*
X125688571Y-130457419D01*
X125688571Y-130457419D02*
X125879047Y-130457419D01*
X125879047Y-130457419D02*
X125974285Y-130409800D01*
X125974285Y-130409800D02*
X126021904Y-130362180D01*
X126021904Y-130362180D02*
X126069523Y-130266942D01*
X126069523Y-130266942D02*
X126069523Y-129457419D01*
X126974285Y-129790752D02*
X126974285Y-130457419D01*
X126736190Y-129409800D02*
X126498095Y-130124085D01*
X126498095Y-130124085D02*
X127117142Y-130124085D01*
X116983095Y-68112419D02*
X116983095Y-68921942D01*
X116983095Y-68921942D02*
X117030714Y-69017180D01*
X117030714Y-69017180D02*
X117078333Y-69064800D01*
X117078333Y-69064800D02*
X117173571Y-69112419D01*
X117173571Y-69112419D02*
X117364047Y-69112419D01*
X117364047Y-69112419D02*
X117459285Y-69064800D01*
X117459285Y-69064800D02*
X117506904Y-69017180D01*
X117506904Y-69017180D02*
X117554523Y-68921942D01*
X117554523Y-68921942D02*
X117554523Y-68112419D01*
X117935476Y-68112419D02*
X118554523Y-68112419D01*
X118554523Y-68112419D02*
X118221190Y-68493371D01*
X118221190Y-68493371D02*
X118364047Y-68493371D01*
X118364047Y-68493371D02*
X118459285Y-68540990D01*
X118459285Y-68540990D02*
X118506904Y-68588609D01*
X118506904Y-68588609D02*
X118554523Y-68683847D01*
X118554523Y-68683847D02*
X118554523Y-68921942D01*
X118554523Y-68921942D02*
X118506904Y-69017180D01*
X118506904Y-69017180D02*
X118459285Y-69064800D01*
X118459285Y-69064800D02*
X118364047Y-69112419D01*
X118364047Y-69112419D02*
X118078333Y-69112419D01*
X118078333Y-69112419D02*
X117983095Y-69064800D01*
X117983095Y-69064800D02*
X117935476Y-69017180D01*
X135581027Y-63312419D02*
X135914360Y-64312419D01*
X135914360Y-64312419D02*
X136247693Y-63312419D01*
X136581027Y-64312419D02*
X136581027Y-63312419D01*
X137057217Y-64312419D02*
X137057217Y-63312419D01*
X137057217Y-63312419D02*
X137628645Y-64312419D01*
X137628645Y-64312419D02*
X137628645Y-63312419D01*
X117943884Y-102412419D02*
X117943884Y-101412419D01*
X117943884Y-101412419D02*
X118181979Y-101412419D01*
X118181979Y-101412419D02*
X118324836Y-101460038D01*
X118324836Y-101460038D02*
X118420074Y-101555276D01*
X118420074Y-101555276D02*
X118467693Y-101650514D01*
X118467693Y-101650514D02*
X118515312Y-101840990D01*
X118515312Y-101840990D02*
X118515312Y-101983847D01*
X118515312Y-101983847D02*
X118467693Y-102174323D01*
X118467693Y-102174323D02*
X118420074Y-102269561D01*
X118420074Y-102269561D02*
X118324836Y-102364800D01*
X118324836Y-102364800D02*
X118181979Y-102412419D01*
X118181979Y-102412419D02*
X117943884Y-102412419D01*
X118896265Y-101507657D02*
X118943884Y-101460038D01*
X118943884Y-101460038D02*
X119039122Y-101412419D01*
X119039122Y-101412419D02*
X119277217Y-101412419D01*
X119277217Y-101412419D02*
X119372455Y-101460038D01*
X119372455Y-101460038D02*
X119420074Y-101507657D01*
X119420074Y-101507657D02*
X119467693Y-101602895D01*
X119467693Y-101602895D02*
X119467693Y-101698133D01*
X119467693Y-101698133D02*
X119420074Y-101840990D01*
X119420074Y-101840990D02*
X118848646Y-102412419D01*
X118848646Y-102412419D02*
X119467693Y-102412419D01*
X119801027Y-101412419D02*
X120420074Y-101412419D01*
X120420074Y-101412419D02*
X120086741Y-101793371D01*
X120086741Y-101793371D02*
X120229598Y-101793371D01*
X120229598Y-101793371D02*
X120324836Y-101840990D01*
X120324836Y-101840990D02*
X120372455Y-101888609D01*
X120372455Y-101888609D02*
X120420074Y-101983847D01*
X120420074Y-101983847D02*
X120420074Y-102221942D01*
X120420074Y-102221942D02*
X120372455Y-102317180D01*
X120372455Y-102317180D02*
X120324836Y-102364800D01*
X120324836Y-102364800D02*
X120229598Y-102412419D01*
X120229598Y-102412419D02*
X119943884Y-102412419D01*
X119943884Y-102412419D02*
X119848646Y-102364800D01*
X119848646Y-102364800D02*
X119801027Y-102317180D01*
X135723884Y-101888609D02*
X136057217Y-101888609D01*
X136200074Y-102412419D02*
X135723884Y-102412419D01*
X135723884Y-102412419D02*
X135723884Y-101412419D01*
X135723884Y-101412419D02*
X136200074Y-101412419D01*
X136628646Y-102412419D02*
X136628646Y-101412419D01*
X136628646Y-101412419D02*
X137200074Y-102412419D01*
X137200074Y-102412419D02*
X137200074Y-101412419D01*
X113453646Y-62027419D02*
X114072693Y-62027419D01*
X114072693Y-62027419D02*
X113739360Y-62408371D01*
X113739360Y-62408371D02*
X113882217Y-62408371D01*
X113882217Y-62408371D02*
X113977455Y-62455990D01*
X113977455Y-62455990D02*
X114025074Y-62503609D01*
X114025074Y-62503609D02*
X114072693Y-62598847D01*
X114072693Y-62598847D02*
X114072693Y-62836942D01*
X114072693Y-62836942D02*
X114025074Y-62932180D01*
X114025074Y-62932180D02*
X113977455Y-62979800D01*
X113977455Y-62979800D02*
X113882217Y-63027419D01*
X113882217Y-63027419D02*
X113596503Y-63027419D01*
X113596503Y-63027419D02*
X113501265Y-62979800D01*
X113501265Y-62979800D02*
X113453646Y-62932180D01*
X114358408Y-62027419D02*
X114691741Y-63027419D01*
X114691741Y-63027419D02*
X115025074Y-62027419D01*
X115263170Y-62027419D02*
X115882217Y-62027419D01*
X115882217Y-62027419D02*
X115548884Y-62408371D01*
X115548884Y-62408371D02*
X115691741Y-62408371D01*
X115691741Y-62408371D02*
X115786979Y-62455990D01*
X115786979Y-62455990D02*
X115834598Y-62503609D01*
X115834598Y-62503609D02*
X115882217Y-62598847D01*
X115882217Y-62598847D02*
X115882217Y-62836942D01*
X115882217Y-62836942D02*
X115834598Y-62932180D01*
X115834598Y-62932180D02*
X115786979Y-62979800D01*
X115786979Y-62979800D02*
X115691741Y-63027419D01*
X115691741Y-63027419D02*
X115406027Y-63027419D01*
X115406027Y-63027419D02*
X115310789Y-62979800D01*
X115310789Y-62979800D02*
X115263170Y-62932180D01*
D11*
X158447200Y-78793332D02*
X158494819Y-78650475D01*
X158494819Y-78650475D02*
X158494819Y-78412380D01*
X158494819Y-78412380D02*
X158447200Y-78317142D01*
X158447200Y-78317142D02*
X158399580Y-78269523D01*
X158399580Y-78269523D02*
X158304342Y-78221904D01*
X158304342Y-78221904D02*
X158209104Y-78221904D01*
X158209104Y-78221904D02*
X158113866Y-78269523D01*
X158113866Y-78269523D02*
X158066247Y-78317142D01*
X158066247Y-78317142D02*
X158018628Y-78412380D01*
X158018628Y-78412380D02*
X157971009Y-78602856D01*
X157971009Y-78602856D02*
X157923390Y-78698094D01*
X157923390Y-78698094D02*
X157875771Y-78745713D01*
X157875771Y-78745713D02*
X157780533Y-78793332D01*
X157780533Y-78793332D02*
X157685295Y-78793332D01*
X157685295Y-78793332D02*
X157590057Y-78745713D01*
X157590057Y-78745713D02*
X157542438Y-78698094D01*
X157542438Y-78698094D02*
X157494819Y-78602856D01*
X157494819Y-78602856D02*
X157494819Y-78364761D01*
X157494819Y-78364761D02*
X157542438Y-78221904D01*
X157494819Y-77888570D02*
X158494819Y-77650475D01*
X158494819Y-77650475D02*
X157780533Y-77459999D01*
X157780533Y-77459999D02*
X158494819Y-77269523D01*
X158494819Y-77269523D02*
X157494819Y-77031428D01*
X158494819Y-76126666D02*
X158494819Y-76698094D01*
X158494819Y-76412380D02*
X157494819Y-76412380D01*
X157494819Y-76412380D02*
X157637676Y-76507618D01*
X157637676Y-76507618D02*
X157732914Y-76602856D01*
X157732914Y-76602856D02*
X157780533Y-76698094D01*
X145037220Y-110775966D02*
X145037220Y-109775966D01*
X145037220Y-109775966D02*
X145418172Y-109775966D01*
X145418172Y-109775966D02*
X145513410Y-109823585D01*
X145513410Y-109823585D02*
X145561029Y-109871204D01*
X145561029Y-109871204D02*
X145608648Y-109966442D01*
X145608648Y-109966442D02*
X145608648Y-110109299D01*
X145608648Y-110109299D02*
X145561029Y-110204537D01*
X145561029Y-110204537D02*
X145513410Y-110252156D01*
X145513410Y-110252156D02*
X145418172Y-110299775D01*
X145418172Y-110299775D02*
X145037220Y-110299775D01*
X146037220Y-110775966D02*
X146037220Y-110109299D01*
X146037220Y-110299775D02*
X146084839Y-110204537D01*
X146084839Y-110204537D02*
X146132458Y-110156918D01*
X146132458Y-110156918D02*
X146227696Y-110109299D01*
X146227696Y-110109299D02*
X146322934Y-110109299D01*
X146656268Y-110775966D02*
X146656268Y-110109299D01*
X146656268Y-109775966D02*
X146608649Y-109823585D01*
X146608649Y-109823585D02*
X146656268Y-109871204D01*
X146656268Y-109871204D02*
X146703887Y-109823585D01*
X146703887Y-109823585D02*
X146656268Y-109775966D01*
X146656268Y-109775966D02*
X146656268Y-109871204D01*
X147132458Y-110775966D02*
X147132458Y-110109299D01*
X147132458Y-110204537D02*
X147180077Y-110156918D01*
X147180077Y-110156918D02*
X147275315Y-110109299D01*
X147275315Y-110109299D02*
X147418172Y-110109299D01*
X147418172Y-110109299D02*
X147513410Y-110156918D01*
X147513410Y-110156918D02*
X147561029Y-110252156D01*
X147561029Y-110252156D02*
X147561029Y-110775966D01*
X147561029Y-110252156D02*
X147608648Y-110156918D01*
X147608648Y-110156918D02*
X147703886Y-110109299D01*
X147703886Y-110109299D02*
X147846743Y-110109299D01*
X147846743Y-110109299D02*
X147941982Y-110156918D01*
X147941982Y-110156918D02*
X147989601Y-110252156D01*
X147989601Y-110252156D02*
X147989601Y-110775966D01*
X148465791Y-110775966D02*
X148465791Y-109775966D01*
X148465791Y-109775966D02*
X148846743Y-109775966D01*
X148846743Y-109775966D02*
X148941981Y-109823585D01*
X148941981Y-109823585D02*
X148989600Y-109871204D01*
X148989600Y-109871204D02*
X149037219Y-109966442D01*
X149037219Y-109966442D02*
X149037219Y-110109299D01*
X149037219Y-110109299D02*
X148989600Y-110204537D01*
X148989600Y-110204537D02*
X148941981Y-110252156D01*
X148941981Y-110252156D02*
X148846743Y-110299775D01*
X148846743Y-110299775D02*
X148465791Y-110299775D01*
X149608648Y-110775966D02*
X149513410Y-110728347D01*
X149513410Y-110728347D02*
X149465791Y-110680727D01*
X149465791Y-110680727D02*
X149418172Y-110585489D01*
X149418172Y-110585489D02*
X149418172Y-110299775D01*
X149418172Y-110299775D02*
X149465791Y-110204537D01*
X149465791Y-110204537D02*
X149513410Y-110156918D01*
X149513410Y-110156918D02*
X149608648Y-110109299D01*
X149608648Y-110109299D02*
X149751505Y-110109299D01*
X149751505Y-110109299D02*
X149846743Y-110156918D01*
X149846743Y-110156918D02*
X149894362Y-110204537D01*
X149894362Y-110204537D02*
X149941981Y-110299775D01*
X149941981Y-110299775D02*
X149941981Y-110585489D01*
X149941981Y-110585489D02*
X149894362Y-110680727D01*
X149894362Y-110680727D02*
X149846743Y-110728347D01*
X149846743Y-110728347D02*
X149751505Y-110775966D01*
X149751505Y-110775966D02*
X149608648Y-110775966D01*
X150227696Y-110109299D02*
X150608648Y-110109299D01*
X150370553Y-109775966D02*
X150370553Y-110633108D01*
X150370553Y-110633108D02*
X150418172Y-110728347D01*
X150418172Y-110728347D02*
X150513410Y-110775966D01*
X150513410Y-110775966D02*
X150608648Y-110775966D01*
X151465791Y-110775966D02*
X150894363Y-110775966D01*
X151180077Y-110775966D02*
X151180077Y-109775966D01*
X151180077Y-109775966D02*
X151084839Y-109918823D01*
X151084839Y-109918823D02*
X150989601Y-110014061D01*
X150989601Y-110014061D02*
X150894363Y-110061680D01*
X145138908Y-72851149D02*
X145281765Y-72898768D01*
X145281765Y-72898768D02*
X145519860Y-72898768D01*
X145519860Y-72898768D02*
X145615098Y-72851149D01*
X145615098Y-72851149D02*
X145662717Y-72803529D01*
X145662717Y-72803529D02*
X145710336Y-72708291D01*
X145710336Y-72708291D02*
X145710336Y-72613053D01*
X145710336Y-72613053D02*
X145662717Y-72517815D01*
X145662717Y-72517815D02*
X145615098Y-72470196D01*
X145615098Y-72470196D02*
X145519860Y-72422577D01*
X145519860Y-72422577D02*
X145329384Y-72374958D01*
X145329384Y-72374958D02*
X145234146Y-72327339D01*
X145234146Y-72327339D02*
X145186527Y-72279720D01*
X145186527Y-72279720D02*
X145138908Y-72184482D01*
X145138908Y-72184482D02*
X145138908Y-72089244D01*
X145138908Y-72089244D02*
X145186527Y-71994006D01*
X145186527Y-71994006D02*
X145234146Y-71946387D01*
X145234146Y-71946387D02*
X145329384Y-71898768D01*
X145329384Y-71898768D02*
X145567479Y-71898768D01*
X145567479Y-71898768D02*
X145710336Y-71946387D01*
X146519860Y-72851149D02*
X146424622Y-72898768D01*
X146424622Y-72898768D02*
X146234146Y-72898768D01*
X146234146Y-72898768D02*
X146138908Y-72851149D01*
X146138908Y-72851149D02*
X146091289Y-72755910D01*
X146091289Y-72755910D02*
X146091289Y-72374958D01*
X146091289Y-72374958D02*
X146138908Y-72279720D01*
X146138908Y-72279720D02*
X146234146Y-72232101D01*
X146234146Y-72232101D02*
X146424622Y-72232101D01*
X146424622Y-72232101D02*
X146519860Y-72279720D01*
X146519860Y-72279720D02*
X146567479Y-72374958D01*
X146567479Y-72374958D02*
X146567479Y-72470196D01*
X146567479Y-72470196D02*
X146091289Y-72565434D01*
X147424622Y-72851149D02*
X147329384Y-72898768D01*
X147329384Y-72898768D02*
X147138908Y-72898768D01*
X147138908Y-72898768D02*
X147043670Y-72851149D01*
X147043670Y-72851149D02*
X146996051Y-72803529D01*
X146996051Y-72803529D02*
X146948432Y-72708291D01*
X146948432Y-72708291D02*
X146948432Y-72422577D01*
X146948432Y-72422577D02*
X146996051Y-72327339D01*
X146996051Y-72327339D02*
X147043670Y-72279720D01*
X147043670Y-72279720D02*
X147138908Y-72232101D01*
X147138908Y-72232101D02*
X147329384Y-72232101D01*
X147329384Y-72232101D02*
X147424622Y-72279720D01*
X147853194Y-72898768D02*
X147853194Y-71898768D01*
X147853194Y-71898768D02*
X148234146Y-71898768D01*
X148234146Y-71898768D02*
X148329384Y-71946387D01*
X148329384Y-71946387D02*
X148377003Y-71994006D01*
X148377003Y-71994006D02*
X148424622Y-72089244D01*
X148424622Y-72089244D02*
X148424622Y-72232101D01*
X148424622Y-72232101D02*
X148377003Y-72327339D01*
X148377003Y-72327339D02*
X148329384Y-72374958D01*
X148329384Y-72374958D02*
X148234146Y-72422577D01*
X148234146Y-72422577D02*
X147853194Y-72422577D01*
X148996051Y-72898768D02*
X148900813Y-72851149D01*
X148900813Y-72851149D02*
X148853194Y-72803529D01*
X148853194Y-72803529D02*
X148805575Y-72708291D01*
X148805575Y-72708291D02*
X148805575Y-72422577D01*
X148805575Y-72422577D02*
X148853194Y-72327339D01*
X148853194Y-72327339D02*
X148900813Y-72279720D01*
X148900813Y-72279720D02*
X148996051Y-72232101D01*
X148996051Y-72232101D02*
X149138908Y-72232101D01*
X149138908Y-72232101D02*
X149234146Y-72279720D01*
X149234146Y-72279720D02*
X149281765Y-72327339D01*
X149281765Y-72327339D02*
X149329384Y-72422577D01*
X149329384Y-72422577D02*
X149329384Y-72708291D01*
X149329384Y-72708291D02*
X149281765Y-72803529D01*
X149281765Y-72803529D02*
X149234146Y-72851149D01*
X149234146Y-72851149D02*
X149138908Y-72898768D01*
X149138908Y-72898768D02*
X148996051Y-72898768D01*
X149615099Y-72232101D02*
X149996051Y-72232101D01*
X149757956Y-71898768D02*
X149757956Y-72755910D01*
X149757956Y-72755910D02*
X149805575Y-72851149D01*
X149805575Y-72851149D02*
X149900813Y-72898768D01*
X149900813Y-72898768D02*
X149996051Y-72898768D01*
X150853194Y-72898768D02*
X150281766Y-72898768D01*
X150567480Y-72898768D02*
X150567480Y-71898768D01*
X150567480Y-71898768D02*
X150472242Y-72041625D01*
X150472242Y-72041625D02*
X150377004Y-72136863D01*
X150377004Y-72136863D02*
X150281766Y-72184482D01*
X153954819Y-94666666D02*
X153478628Y-94999999D01*
X153954819Y-95238094D02*
X152954819Y-95238094D01*
X152954819Y-95238094D02*
X152954819Y-94857142D01*
X152954819Y-94857142D02*
X153002438Y-94761904D01*
X153002438Y-94761904D02*
X153050057Y-94714285D01*
X153050057Y-94714285D02*
X153145295Y-94666666D01*
X153145295Y-94666666D02*
X153288152Y-94666666D01*
X153288152Y-94666666D02*
X153383390Y-94714285D01*
X153383390Y-94714285D02*
X153431009Y-94761904D01*
X153431009Y-94761904D02*
X153478628Y-94857142D01*
X153478628Y-94857142D02*
X153478628Y-95238094D01*
X153954819Y-93714285D02*
X153954819Y-94285713D01*
X153954819Y-93999999D02*
X152954819Y-93999999D01*
X152954819Y-93999999D02*
X153097676Y-94095237D01*
X153097676Y-94095237D02*
X153192914Y-94190475D01*
X153192914Y-94190475D02*
X153240533Y-94285713D01*
X146954819Y-95666666D02*
X146478628Y-95999999D01*
X146954819Y-96238094D02*
X145954819Y-96238094D01*
X145954819Y-96238094D02*
X145954819Y-95857142D01*
X145954819Y-95857142D02*
X146002438Y-95761904D01*
X146002438Y-95761904D02*
X146050057Y-95714285D01*
X146050057Y-95714285D02*
X146145295Y-95666666D01*
X146145295Y-95666666D02*
X146288152Y-95666666D01*
X146288152Y-95666666D02*
X146383390Y-95714285D01*
X146383390Y-95714285D02*
X146431009Y-95761904D01*
X146431009Y-95761904D02*
X146478628Y-95857142D01*
X146478628Y-95857142D02*
X146478628Y-96238094D01*
X146050057Y-95285713D02*
X146002438Y-95238094D01*
X146002438Y-95238094D02*
X145954819Y-95142856D01*
X145954819Y-95142856D02*
X145954819Y-94904761D01*
X145954819Y-94904761D02*
X146002438Y-94809523D01*
X146002438Y-94809523D02*
X146050057Y-94761904D01*
X146050057Y-94761904D02*
X146145295Y-94714285D01*
X146145295Y-94714285D02*
X146240533Y-94714285D01*
X146240533Y-94714285D02*
X146383390Y-94761904D01*
X146383390Y-94761904D02*
X146954819Y-95333332D01*
X146954819Y-95333332D02*
X146954819Y-94714285D01*
X158447200Y-103373332D02*
X158494819Y-103230475D01*
X158494819Y-103230475D02*
X158494819Y-102992380D01*
X158494819Y-102992380D02*
X158447200Y-102897142D01*
X158447200Y-102897142D02*
X158399580Y-102849523D01*
X158399580Y-102849523D02*
X158304342Y-102801904D01*
X158304342Y-102801904D02*
X158209104Y-102801904D01*
X158209104Y-102801904D02*
X158113866Y-102849523D01*
X158113866Y-102849523D02*
X158066247Y-102897142D01*
X158066247Y-102897142D02*
X158018628Y-102992380D01*
X158018628Y-102992380D02*
X157971009Y-103182856D01*
X157971009Y-103182856D02*
X157923390Y-103278094D01*
X157923390Y-103278094D02*
X157875771Y-103325713D01*
X157875771Y-103325713D02*
X157780533Y-103373332D01*
X157780533Y-103373332D02*
X157685295Y-103373332D01*
X157685295Y-103373332D02*
X157590057Y-103325713D01*
X157590057Y-103325713D02*
X157542438Y-103278094D01*
X157542438Y-103278094D02*
X157494819Y-103182856D01*
X157494819Y-103182856D02*
X157494819Y-102944761D01*
X157494819Y-102944761D02*
X157542438Y-102801904D01*
X157494819Y-102468570D02*
X158494819Y-102230475D01*
X158494819Y-102230475D02*
X157780533Y-102039999D01*
X157780533Y-102039999D02*
X158494819Y-101849523D01*
X158494819Y-101849523D02*
X157494819Y-101611428D01*
X157590057Y-101278094D02*
X157542438Y-101230475D01*
X157542438Y-101230475D02*
X157494819Y-101135237D01*
X157494819Y-101135237D02*
X157494819Y-100897142D01*
X157494819Y-100897142D02*
X157542438Y-100801904D01*
X157542438Y-100801904D02*
X157590057Y-100754285D01*
X157590057Y-100754285D02*
X157685295Y-100706666D01*
X157685295Y-100706666D02*
X157780533Y-100706666D01*
X157780533Y-100706666D02*
X157923390Y-100754285D01*
X157923390Y-100754285D02*
X158494819Y-101325713D01*
X158494819Y-101325713D02*
X158494819Y-100706666D01*
D13*
%TO.C,R4*%
X144580000Y-58430000D02*
X145060000Y-58430000D01*
X144580000Y-68570000D02*
X144580000Y-58430000D01*
X145060000Y-68570000D02*
X144580000Y-68570000D01*
X147940000Y-68570000D02*
X148420000Y-68570000D01*
X148420000Y-58430000D02*
X147940000Y-58430000D01*
X148420000Y-68570000D02*
X148420000Y-58430000D01*
%TO.C,R3*%
X150630000Y-60230000D02*
X150630000Y-66770000D01*
X150630000Y-66770000D02*
X153370000Y-66770000D01*
X152000000Y-59460000D02*
X152000000Y-60230000D01*
X152000000Y-67540000D02*
X152000000Y-66770000D01*
X153370000Y-60230000D02*
X150630000Y-60230000D01*
X153370000Y-66770000D02*
X153370000Y-60230000D01*
%TO.C,J4*%
D14*
X156275000Y-133612500D02*
X146275000Y-133612500D01*
X146275000Y-111612500D01*
X156275000Y-111612500D01*
X156275000Y-133612500D01*
X156275000Y-133612500D02*
X146275000Y-133612500D01*
X146275000Y-111612500D01*
X156275000Y-111612500D01*
X156275000Y-133612500D01*
%TO.C,U4*%
D12*
X144040000Y-133040000D02*
X123720000Y-133040000D01*
X123720000Y-127960000D01*
X144040000Y-127960000D01*
X144040000Y-133040000D01*
D15*
%TO.C,J7*%
X111550000Y-122250000D02*
X121450000Y-122250000D01*
X111550000Y-126750000D02*
X111550000Y-122250000D01*
X121450000Y-122250000D02*
X121450000Y-126750000D01*
X121450000Y-126750000D02*
X111550000Y-126750000D01*
%TO.C,U3*%
D12*
X112560000Y-54280000D02*
X143040000Y-54280000D01*
X143040000Y-107620000D01*
X112560000Y-107620000D01*
X112560000Y-54280000D01*
%TO.C,SW1*%
D13*
X156860000Y-72350000D02*
X154140000Y-72350000D01*
X154140000Y-82570000D01*
X156860000Y-82570000D01*
X156860000Y-72350000D01*
%TO.C,J3*%
D12*
X159000000Y-68000000D02*
X165000000Y-68000000D01*
X165000000Y-90000000D01*
X159000000Y-90000000D01*
X159000000Y-68000000D01*
D13*
%TO.C,PrimPot1*%
X151927000Y-105504898D02*
G75*
G02*
X144067000Y-105504898I-3930000J0D01*
G01*
X144067000Y-105504898D02*
G75*
G02*
X151927000Y-105504898I3930000J0D01*
G01*
%TO.C,SecPot1*%
X151927000Y-77504898D02*
G75*
G02*
X144067000Y-77504898I-3930000J0D01*
G01*
X144067000Y-77504898D02*
G75*
G02*
X151927000Y-77504898I3930000J0D01*
G01*
%TO.C,R1*%
X149630000Y-89730000D02*
X149630000Y-96270000D01*
X149630000Y-96270000D02*
X152370000Y-96270000D01*
X151000000Y-88960000D02*
X151000000Y-89730000D01*
X151000000Y-97040000D02*
X151000000Y-96270000D01*
X152370000Y-89730000D02*
X149630000Y-89730000D01*
X152370000Y-96270000D02*
X152370000Y-89730000D01*
%TO.C,R2*%
X144580000Y-87430000D02*
X145060000Y-87430000D01*
X144580000Y-97570000D02*
X144580000Y-87430000D01*
X145060000Y-97570000D02*
X144580000Y-97570000D01*
X147940000Y-97570000D02*
X148420000Y-97570000D01*
X148420000Y-87430000D02*
X147940000Y-87430000D01*
X148420000Y-97570000D02*
X148420000Y-87430000D01*
%TO.C,J1*%
D12*
X159000000Y-93100000D02*
X165000000Y-93100000D01*
X165000000Y-115100000D01*
X159000000Y-115100000D01*
X159000000Y-93100000D01*
%TO.C,SW2*%
D13*
X156860000Y-96930000D02*
X154140000Y-96930000D01*
X154140000Y-107150000D01*
X156860000Y-107150000D01*
X156860000Y-96930000D01*
%TD*%
%LPC*%
D16*
%TO.C,R4*%
X146500000Y-69850000D03*
D17*
X146500000Y-57150000D03*
%TD*%
D18*
%TO.C,R3*%
X152000000Y-68580000D03*
D19*
X152000000Y-58420000D03*
%TD*%
D20*
%TO.C,J4*%
X150000000Y-113578500D03*
D21*
X152540000Y-113578500D03*
D20*
X150000000Y-131612500D03*
D21*
X152540000Y-131612500D03*
%TD*%
D22*
%TO.C,H4*%
X116000000Y-57000000D03*
%TD*%
D23*
%TO.C,U4*%
X126260000Y-130500000D03*
X128800000Y-130500000D03*
X131340000Y-130500000D03*
X133880000Y-130500000D03*
X136420000Y-130500000D03*
X138960000Y-130500000D03*
X141500000Y-130500000D03*
%TD*%
D22*
%TO.C,H2*%
X116000000Y-114000000D03*
%TD*%
D24*
%TO.C,J7*%
X120500000Y-124500000D03*
X117960000Y-124500000D03*
X115420000Y-124500000D03*
X112880000Y-124500000D03*
%TD*%
D25*
%TO.C,U3*%
X114600000Y-64440000D03*
X114600000Y-66980000D03*
X114600000Y-69520000D03*
X114600000Y-72060000D03*
X114600000Y-74600000D03*
X114600000Y-77140000D03*
X114600000Y-79680000D03*
X114600000Y-82220000D03*
X114600000Y-84760000D03*
X114600000Y-87300000D03*
X114600000Y-89840000D03*
X114600000Y-92380000D03*
X114600000Y-94920000D03*
X114600000Y-97460000D03*
X114600000Y-100000000D03*
X141000000Y-100000000D03*
X141000000Y-97460000D03*
X141000000Y-94920000D03*
X141000000Y-92380000D03*
X141000000Y-89840000D03*
X141000000Y-87300000D03*
X141000000Y-84760000D03*
X141000000Y-82220000D03*
X141000000Y-79680000D03*
X141000000Y-77140000D03*
X141000000Y-74600000D03*
X141000000Y-72060000D03*
X141000000Y-69520000D03*
X141000000Y-66980000D03*
X141000000Y-64440000D03*
%TD*%
D26*
%TO.C,SW1*%
X155500000Y-77460000D03*
D18*
X155500000Y-74920000D03*
X155500000Y-80000000D03*
%TD*%
D27*
%TO.C,J3*%
X162000000Y-71000000D03*
X162000000Y-75000000D03*
X162000000Y-79000000D03*
X162000000Y-83000000D03*
X162000000Y-87000000D03*
%TD*%
D22*
%TO.C,H3*%
X163000000Y-58500000D03*
%TD*%
D28*
%TO.C,PrimPot1*%
X146200000Y-107300000D03*
X147996051Y-105503949D03*
X146200000Y-103707898D03*
%TD*%
%TO.C,SecPot1*%
X146200000Y-79300000D03*
X147996051Y-77503949D03*
X146200000Y-75707898D03*
%TD*%
D22*
%TO.C,H1*%
X163000000Y-128000000D03*
%TD*%
D18*
%TO.C,R1*%
X151000000Y-98080000D03*
D19*
X151000000Y-87920000D03*
%TD*%
D16*
%TO.C,R2*%
X146500000Y-98850000D03*
D17*
X146500000Y-86150000D03*
%TD*%
D27*
%TO.C,J1*%
X162000000Y-96100000D03*
X162000000Y-100100000D03*
X162000000Y-104100000D03*
X162000000Y-108100000D03*
X162000000Y-112100000D03*
%TD*%
D26*
%TO.C,SW2*%
X155500000Y-102040000D03*
D18*
X155500000Y-99500000D03*
X155500000Y-104580000D03*
%TD*%
%LPD*%
M02*
