M48
; DRILL file {KiCad 8.0.4} date 2024-12-05T15:50:01-0500
; FORMAT={-:-/ absolute / metric / decimal}
; #@! TF.CreationDate,2024-12-05T15:50:01-05:00
; #@! TF.GenerationSoftware,Kicad,Pcbnew,8.0.4
; #@! TF.FileFunction,Plated,1,2,PTH
FMAT,2
METRIC
; #@! TA.AperFunction,Plated,PTH,ViaDrill
T1C0.300
; #@! TA.AperFunction,Plated,PTH,ViaDrill
T2C0.500
; #@! TA.AperFunction,Plated,PTH,ComponentDrill
T3C0.700
; #@! TA.AperFunction,Plated,PTH,ComponentDrill
T4C0.800
; #@! TA.AperFunction,Plated,PTH,ComponentDrill
T5C1.000
; #@! TA.AperFunction,Plated,PTH,ComponentDrill
T6C1.100
; #@! TA.AperFunction,Plated,PTH,ComponentDrill
T7C1.200
%
G90
G05
T1
X158.0Y-111.0
T2
X118.0Y-128.0
X122.5Y-124.5
X159.0Y-75.0
X159.0Y-100.0
T3
X146.2Y-75.708
X146.2Y-79.3
X146.2Y-103.708
X146.2Y-107.3
X147.996Y-77.504
X147.996Y-105.504
T4
X151.0Y-87.92
X151.0Y-98.08
X152.0Y-58.42
X152.0Y-68.58
X155.5Y-74.92
X155.5Y-77.46
X155.5Y-80.0
X155.5Y-99.5
X155.5Y-102.04
X155.5Y-104.58
T5
X150.0Y-113.578
X150.0Y-131.612
X152.54Y-113.578
X152.54Y-131.612
T6
X115.1Y-64.44
X115.1Y-66.98
X115.1Y-69.52
X115.1Y-72.06
X115.1Y-74.6
X115.1Y-77.14
X115.1Y-79.68
X115.1Y-82.22
X115.1Y-84.76
X115.1Y-87.3
X115.1Y-89.84
X115.1Y-92.38
X115.1Y-94.92
X115.1Y-97.46
X115.1Y-100.0
X126.26Y-130.5
X128.8Y-130.5
X131.34Y-130.5
X133.88Y-130.5
X136.42Y-130.5
X138.96Y-130.5
X140.5Y-64.44
X140.5Y-66.98
X140.5Y-69.52
X140.5Y-72.06
X140.5Y-74.6
X140.5Y-77.14
X140.5Y-79.68
X140.5Y-82.22
X140.5Y-84.76
X140.5Y-87.3
X140.5Y-89.84
X140.5Y-92.38
X140.5Y-94.92
X140.5Y-97.46
X140.5Y-100.0
X141.5Y-130.5
T7
X146.5Y-57.15
X146.5Y-69.85
X146.5Y-86.15
X146.5Y-98.85
M30
